<?xml version="1.0" encoding="UTF-8" standalone="no"?>
<!-- Created with Inkscape (http://www.inkscape.org/) -->

<svg
   xmlns:dc="http://purl.org/dc/elements/1.1/"
   xmlns:cc="http://creativecommons.org/ns#"
   xmlns:rdf="http://www.w3.org/1999/02/22-rdf-syntax-ns#"
   xmlns:svg="http://www.w3.org/2000/svg"
   xmlns="http://www.w3.org/2000/svg"
   xmlns:sodipodi="http://sodipodi.sourceforge.net/DTD/sodipodi-0.dtd"
   xmlns:inkscape="http://www.inkscape.org/namespaces/inkscape"
   id="svg2816"
   version="1.1"
   inkscape:version="0.91 r13725"
   width="316.32434"
   height="287.49887"
   sodipodi:docname="Hibiscus-2.svg">
  <metadata
     id="metadata2822">
    <rdf:RDF>
      <cc:Work
         rdf:about="">
        <dc:format>image/svg+xml</dc:format>
        <dc:type
           rdf:resource="http://purl.org/dc/dcmitype/StillImage" />
        <dc:title></dc:title>
      </cc:Work>
    </rdf:RDF>
  </metadata>
  <defs
     id="defs2820" />
  <sodipodi:namedview
     pagecolor="#FFFFFF"
     bordercolor="#666666"
     borderopacity="1"
     objecttolerance="10"
     gridtolerance="10"
     guidetolerance="10"
     inkscape:pageopacity="0"
     inkscape:pageshadow="2"
     inkscape:window-width="1280"
     inkscape:window-height="702"
     id="namedview2818"
     showgrid="false"
     inkscape:zoom="0.71732523"
     inkscape:cx="246.54241"
     inkscape:cy="319.50864"
     inkscape:window-x="0"
     inkscape:window-y="1"
     inkscape:window-maximized="1"
     inkscape:current-layer="svg2816"
     fit-margin-top="3"
     fit-margin-left="3"
     fit-margin-right="3"
     fit-margin-bottom="3" />
  <path
     style="color:#ffffff;display:inline;overflow:visible;visibility:visible;fill:#ffffff;fill-opacity:1;stroke:#ffffff;stroke-width:0.45374456;stroke-linecap:butt;stroke-linejoin:miter;stroke-miterlimit:4;stroke-dasharray:none;stroke-dashoffset:0;stroke-opacity:0.97093021;marker:none;enable-background:accumulate"
     d="m 105.4731,283.78841 c -6.966578,-1.69416 -14.201158,-8.80799 -20.214882,-19.8775 -2.948173,-8.96671 -16.252442,-10.35443 -19.796849,-17.05266 -3.198141,-8.29284 2.161466,-20.59509 6.597123,-27.78017 6.486464,-10.3284 15.059256,-18.74807 30.011528,-29.47552 4.23734,-3.32618 19.2858,-15.65748 19.31296,-21.29726 -19.6145,-4.13695 -40.725197,23.9791 -54.478153,29.99893 -7.715756,3.13765 -17.493034,4.37534 -22.697034,2.87318 C 38.565703,199.5488 36.276827,197.65746 31.044069,190.3 20.544335,177.93874 7.5435291,180.6227 3.2611611,160.67155 c -0.457894,-5.26124 3.811117,-9.96149 5.079546,-12.5291 7.5164999,-10.49565 18.2732249,-21.19144 18.5980209,-32.97187 0.06851,-10.51879 0.633007,-11.33751 8.640788,-12.53231 9.844076,-2.07031 12.080176,-9.915726 21.307265,-11.750426 11.219478,-5.64881 58.649559,17.361836 57.772699,13.044136 -8.41769,-22.246846 -35.807975,-29.779346 -46.190549,-49.245226 -2.956073,-6.317 -2.831653,-11.53069 0.392175,-16.43415 2.706902,-4.11723 9.354766,-7.63516 18.00848,-9.52978 7.048106,-1.54309 6.511666,-1.22097 9.982376,-5.99423 8.275218,-11.60094 14.298828,-14.0350798 26.250738,-17.6457698 7.408,-2.27 13.3945,-2.83888 19.80434,0.45449 9.53573,4.8994598 16.30989,8.7167098 20.14008,11.3489698 10.0562,6.59572 19.96517,17.55576 23.43314,27.0464 1.90484,10.05791 -1.46083,14.96702 -6.46064,22.03039 -3.6115,5.09883 -5.33546,8.81524 -8.03879,17.32956 -2.27829,7.17559 -4.41877,11.9726 -6.68249,14.97596 -3.2656,1.749436 -4.34689,-21.71658 -5.85485,-26.20374 -2.7781,-7.73346 -5.22202,-11.49785 -12.15782,-18.72686 -7.178,0.95095 -0.83416,24.24487 -1.9886,30.23233 -0.1291,0.2138 -2.20002,-1.54273 -4.60203,-3.90341 -7.40081,-7.27344 -14.18206,-11.71629 -20.28079,-13.28725 -4.91273,-1.26545 -5.19391,-0.94252 -2.87451,3.30133 1.05756,1.93502 2.88845,5.1517 4.06866,7.14817 5.65233,9.56169 14.91795,28.094356 17.12751,34.257716 3.51105,9.79367 6.24531,22.72335 5.89847,27.89237 l -0.13924,2.07505 -2.66907,-1.99984 c -2.32905,-1.74508 -6.12601,-4.06678 -12.00407,-7.34003 -11.3923,-6.34391 -26.54481,-8.50128 -39.688938,-5.65081 -3.848044,0.83451 -14.156242,4.15904 -14.756319,4.75912 6.426222,5.85275 16.204239,6.3699 23.919719,10.20762 3.435228,1.76396 7.063588,4.21151 7.068248,4.76797 -7.674858,4.24695 -16.430518,6.86157 -22.511298,12.11315 -3.523359,3.19177 -7.655422,9.8491 -7.066207,11.38461 20.662417,-8.59217 44.060485,-10.67779 63.510795,-7.5335 1.90039,0.23818 2.15529,0.39946 2.15529,1.36381 0,1.67459 -1.04546,3.30627 -3.86988,6.03981 -1.41821,1.37258 -4.97598,5.35419 -7.90616,8.84802 -2.93018,3.49384 -6.74264,7.88382 -8.47214,9.75552 -12.54826,14.84093 -20.2172,29.4859 -20.36196,47.87005 6.35425,-0.0728 11.11253,-5.74777 14.41998,-9.0749 5.2251,-5.34052 8.53914,-7.64934 13.94385,-18.51948 4.68374,-9.4201 5.28839,-10.44064 5.9453,-10.03465 0.22128,0.13676 0.40233,3.26188 0.40233,6.94471 0,9.40275 0.96247,13.75265 3.56339,16.10483 9.86643,-2.51533 9.76315,-16.96668 10.16861,-23.53506 l 0.10721,-1.81498 1.64254,2.94934 c 2.22356,3.57663 5.32587,14.70175 8.29973,10.494 6.49446,-14.98203 2.1016,-22.65788 2.69832,-38.03253 11.48437,17.84956 22.14994,34.71791 26.11236,54.76319 1.64383,8.62688 1.45479,19.14934 -0.44869,24.97483 -2.80907,8.59704 -7.85559,16.51395 -12.32505,19.3354 -9.50522,5.00083 -18.53677,-0.70693 -27.85983,2.02391 -7.23755,1.51047 -12.45019,7.45807 -19.29681,9.68824 -6.43829,1.92184 -18.86968,3.06695 -23.74329,1.88178 l 0,0 z"
     id="path3602"
     inkscape:connector-curvature="0"
     sodipodi:nodetypes="cccccccsccccccccssccccccsccccsssssscsssccccccssscccssscccccccscccccc" />
  <path
     style="color:#ffffff;display:inline;overflow:visible;visibility:visible;fill:#ffffff;fill-opacity:1;stroke:#ffffff;stroke-width:0.45374456;stroke-linecap:butt;stroke-linejoin:miter;stroke-miterlimit:4;stroke-dasharray:none;stroke-dashoffset:0;stroke-opacity:0.97093021;marker:none;enable-background:accumulate"
     d="m 227.75726,260.98156 c -9.2795,-1.90312 -15.2471,-7.57386 -18.07347,-17.17441 -1.27,-4.31392 -2.1772,-9.95047 -2.99421,-18.60352 -1.04434,-11.06062 -2.68121,-16.17102 -8.03193,-25.07595 -2.10591,-3.50476 -3.64031,-5.73918 -9.76997,-14.22714 -1.28991,-1.78618 -1.88031,-3.12203 -1.37985,-3.12203 0.0736,0 3.28953,1.55597 7.14648,3.4577 8.75184,4.31525 11.38674,6.07725 16.62418,11.1169 4.07281,3.919 8.14997,6.9181 11.0224,8.10789 2.26552,0.93841 2.90108,-0.0363 2.90108,-4.44913 0,-3.14893 -0.18993,-3.97361 -1.59794,-6.93848 -1.80007,-3.79044 -4.26612,-6.99387 -8.96725,-11.64861 -3.05761,-3.02744 -3.95789,-4.63745 -2.59313,-4.63745 0.34164,0 2.33245,0.29939 4.424,0.66533 3.8842,0.67958 10.43933,2.93504 20.13764,6.92889 7.18146,2.95738 11.44256,4.34931 12.30336,4.019 1.99919,-0.76717 -2.74613,-9.81203 -7.19896,-13.72168 -4.71427,-4.13918 -10.47965,-7.25575 -18.26299,-9.87234 -1.99649,-0.67117 -3.94769,-1.39194 -4.33602,-1.60169 -0.38833,-0.20976 -5.18669,-1.26217 -10.663,-2.33868 -5.47631,-1.07652 -10.04201,-2.01834 -10.146,-2.09295 -0.45029,-0.32311 0.56396,-0.68261 4.86225,-1.72338 9.21549,-2.23142 19.7184,-3.40444 30.45738,-3.40162 19.83562,0.005 37.49675,3.06193 47.90469,8.29125 3.60675,1.81216 8.6841,5.55015 11.73088,8.63635 5.16667,5.23356 7.9714,10.37627 10.53707,19.32064 0.98095,3.41976 1.15951,4.84263 1.01784,8.11052 -0.19094,4.40402 -1.0273,6.6282 -3.75822,9.99437 -2.47571,3.05161 -2.79746,4.91375 -1.78032,10.30361 0.47962,2.54154 0.85628,6.53335 0.85628,9.07489 0,4.12621 -0.12278,4.7842 -1.3546,7.25992 -1.97196,3.96327 -7.02982,8.93197 -10.95832,10.76515 -3.05823,1.42708 -3.21261,1.45009 -8.55933,1.27548 -12.16774,-0.39734 -13.86351,-0.30048 -16.56168,0.94603 -1.37258,0.6341 -4.11835,2.50767 -6.10171,4.16347 -6.75823,5.64211 -13.05566,7.9788 -22.25733,8.25869 -2.99471,0.0911 -5.9554,0.0609 -6.5793,-0.067 l 0,0 z"
     id="path3604"
     inkscape:connector-curvature="0" />
  <path
     style="color:#ffffff;display:inline;overflow:visible;visibility:visible;fill:#ffffff;fill-opacity:1;stroke:#ffffff;stroke-width:0.45374456;stroke-linecap:butt;stroke-linejoin:miter;stroke-miterlimit:4;stroke-dasharray:none;stroke-dashoffset:0;stroke-opacity:0.97093021;marker:none;enable-background:accumulate"
     d="m 238.58264,132.45855 c -19.02032,-2.69157 -29.73876,8.48965 -46.13566,8.8085 -0.46911,-0.46911 1.2468,-2.27314 4.99957,-5.25628 2.32122,-1.84518 5.11004,-3.5732 5.60917,-4.0361 5.45374,-6.35475 63.12007,-29.11109 52.95353,-33.945486 -14.25572,-3.6315 -36.69017,6.076756 -44.72377,9.447646 -5.44087,2.29237 -10.00259,4.05784 -10.13718,3.92326 -0.58543,-0.58543 5.11313,-9.87493 8.96004,-14.606166 5.25386,-6.09454 8.16824,-7.9524 14.17894,-12.7799 5.09543,-4.09995 19.31949,-10.77195 29.21372,-13.70314 8.07523,-2.39229 11.50946,-2.86838 19.21114,-2.6633 17.49745,0.46594 30.33783,6.89524 37.39687,18.72495 3.37536,5.65652 4.76257,7.0358 -0.56429,14.161666 l -4.42636,5.92125 c 0,0 -2.22905,0.66941 0.016,7.01025 3.25521,9.19403 2.01132,4.98371 3.25521,9.19403 2.09526,7.09204 2.06286,8.82929 1.26448,12.6452 -2.94076,8.63953 -6.98856,19.44039 -13.44582,13.60627 -14.83798,-10.65691 -37.2568,-18.31547 -57.62556,-16.45265 z"
     id="path3606"
     inkscape:connector-curvature="0"
     sodipodi:nodetypes="ccscccsccsssscssccc" />
  <path
     style="color:#ffffff;display:inline;overflow:visible;visibility:visible;fill:#ffffff;fill-opacity:1;stroke:#ffffff;stroke-width:0.52977717;stroke-linecap:butt;stroke-linejoin:miter;stroke-miterlimit:4;stroke-dasharray:none;stroke-dashoffset:0;stroke-opacity:0.97093021;marker:none;enable-background:accumulate"
     d="m 164.46,153.17441 c -6.28097,-2.76038 -4.88064,-15.02419 5.28531,-33.88889 13.60887,-23.469976 24.51085,-45.853986 44.49656,-63.045956 5.19202,-4.40613 15.31084,-11.85676 16.10286,-11.85676 0.63466,0 0.60134,0.85797 -0.0468,1.2044 -0.61986,0.3313 -9.69742,12.13347 -15.17862,19.73444 -13.62396,17.13786 -20.72029,33.73878 -27.85754,52.962936 -2.4982,6.70856 -8.9545,23.02149 -10.78282,26.45253 -2.27461,4.21053 -6.22407,10.82411 -12.019,8.4373 z"
     id="path3608"
     inkscape:connector-curvature="0"
     sodipodi:nodetypes="cccsccccc" />
  <path
     style="color:#ffffff;display:inline;overflow:visible;visibility:visible;fill:#ffffff;fill-opacity:1;stroke:#ffffff;stroke-width:0.45374456;stroke-linecap:butt;stroke-linejoin:miter;stroke-miterlimit:4;stroke-dasharray:none;stroke-dashoffset:0;stroke-opacity:0.97093021;marker:none;enable-background:accumulate"
     d="m 214.35826,47.876254 c -2.66399,-1.3129 -3.66547,-5.14351 -2.05674,-7.86688 0.9204,-1.55812 2.36204,-2.26397 4.62396,-2.26397 2.799,0 4.60281,2.13384 4.60281,5.44494 0,2.46774 -0.91935,3.94537 -2.99406,4.81225 -1.90561,0.79621 -2.33005,0.78337 -4.17597,-0.12634 z"
     id="path3610"
     inkscape:connector-curvature="0" />
  <path
     style="color:#ffffff;display:inline;overflow:visible;visibility:visible;fill:#ffffff;fill-opacity:1;stroke:#ffffff;stroke-width:0.45374456;stroke-linecap:butt;stroke-linejoin:miter;stroke-miterlimit:4;stroke-dasharray:none;stroke-dashoffset:0;stroke-opacity:0.97093021;marker:none;enable-background:accumulate"
     d="m 222.82371,31.839484 c -3.24689,-1.60017 -2.25278,-7.7204 0.76103,-9.5007 2.00173,-1.18246 4.2121,-0.19341 6.33886,0.69521 3.73545,1.56077 4.10871,7.66157 0.2239,9.13857 -1.74095,0.66191 -5.66716,0.48336 -7.32379,-0.33308 z"
     id="path3612"
     inkscape:connector-curvature="0"
     sodipodi:nodetypes="sssss" />
  <path
     style="color:#ffffff;display:inline;overflow:visible;visibility:visible;fill:#ffffff;fill-opacity:1;stroke:#ffffff;stroke-width:0.45374456;stroke-linecap:butt;stroke-linejoin:miter;stroke-miterlimit:4;stroke-dasharray:none;stroke-dashoffset:0;stroke-opacity:0.97093021;marker:none;enable-background:accumulate"
     d="m 244.93507,33.917904 c -2.45695,-0.30548 -3.29608,-0.65018 -4.34925,-1.78657 -2.89505,-3.12381 -0.54436,-8.68556 4.76978,-8.68556 2.0535,0 3.48769,-0.13333 4.8429,1.22188 3.5673,3.5673 0.28469,9.94007 -5.26343,9.25025 z"
     id="path3614"
     inkscape:connector-curvature="0"
     sodipodi:nodetypes="sssss" />
  <path
     style="color:#ffffff;display:inline;overflow:visible;visibility:visible;fill:#ffffff;fill-opacity:1;stroke:#ffffff;stroke-width:0.45374456;stroke-linecap:butt;stroke-linejoin:miter;stroke-miterlimit:4;stroke-dasharray:none;stroke-dashoffset:0;stroke-opacity:0.97093021;marker:none;enable-background:accumulate"
     d="m 245.89408,49.797644 c -1.85115,-0.91273 -3.30559,-3.35625 -3.30559,-5.55356 0,-2.62036 1.94395,-4.25531 5.35273,-4.50188 2.33286,-0.16874 2.79312,-0.0541 4.05927,1.01133 1.05728,0.88964 1.50708,1.7284 1.73231,3.23036 0.73415,4.89567 -3.43277,7.98614 -7.83872,5.81375 z"
     id="path3616"
     inkscape:connector-curvature="0" />
  <path
     style="color:#ffffff;display:inline;overflow:visible;visibility:visible;fill:#ffffff;fill-opacity:1;stroke:#ffffff;stroke-width:0.45374456;stroke-linecap:butt;stroke-linejoin:miter;stroke-miterlimit:4;stroke-dasharray:none;stroke-dashoffset:0;stroke-opacity:0.97093021;marker:none;enable-background:accumulate"
     d="m 232.23289,61.967054 c -0.61296,-0.48218 -1.36698,-1.71941 -1.67559,-2.74943 -1.35204,-4.51275 2.51581,-8.28279 6.9846,-6.80796 2.84216,0.938 3.67184,4.02015 2.04624,7.6015 -1.29267,2.84789 -4.97605,3.82736 -7.35525,1.95589 l 0,0 z"
     id="path3618"
     inkscape:connector-curvature="0" />
</svg>
