<?xml version="1.0" encoding="UTF-8" standalone="no"?>
<svg
   xmlns:dc="http://purl.org/dc/elements/1.1/"
   xmlns:cc="http://creativecommons.org/ns#"
   xmlns:rdf="http://www.w3.org/1999/02/22-rdf-syntax-ns#"
   xmlns:svg="http://www.w3.org/2000/svg"
   xmlns="http://www.w3.org/2000/svg"
   viewBox="0 0 491.64661 486.56366"
   height="486.56366"
   width="491.64661"
   version="1.1"
   id="svg4190">
  <metadata
     id="metadata4196">
    <rdf:RDF>
      <cc:Work
         rdf:about="">
        <dc:format>image/svg+xml</dc:format>
        <dc:type
           rdf:resource="http://purl.org/dc/dcmitype/StillImage" />
        <dc:title></dc:title>
      </cc:Work>
    </rdf:RDF>
  </metadata>
  <defs
     id="defs4194" />
  <path
     id="path4200"
     d="M 5.6701333,480.21687 C 12.715495,456.54448 -5.806377,429.21963 26.806195,409.1997 c 37.55147,-28.94181 93.926655,-35.87293 154.715995,-67.63541 11.59521,-5.68927 21.32995,-32.00303 10.13286,-52.20607 -3.34159,-9.93629 -15.92393,-15.85607 -21.12362,-26.42009 -7.41827,-14.09496 -13.64203,-44.64066 -18.00191,-63.32321 -6.75046,-7.48901 -8.49139,-15.58033 -12.43402,-27.56186 -0.63408,-7.75802 -7.49666,-19.64025 -0.35019,-33.95031 -1.40907,-21.98151 -3.45003,-32.42667 0.85424,-54.884881 1.2131,-11.0637 5.38264,-19.35894 9.68085,-28.81837 6.25928,-13.77533 55.29721,-53.0540051 98.11308,-48.5396232 71.1723,5.7345232 93.12061,49.5625732 96.78388,54.4656032 3.1165,4.17121 6.92583,21.92822 7.6345,26.72435 1.33187,28.555861 -4.00432,38.247941 -2.29493,54.247151 1.53274,4.99226 4.20122,9.41665 4.32098,15.1154 -1.95704,30.33154 -12.86968,34.62065 -17.66052,49.83862 -3.38177,17.19066 -10.14531,37.89602 -13.52708,49.88111 -10.77164,18.64891 -17.45002,20.95096 -23.68119,29.98317 -8.07172,31.0924 8.19591,36.93709 8.36945,52.91269 65.02045,35.78732 100.51882,37.08369 142.03435,60.87186 49.22334,32.39518 23.67239,54.10832 35.50858,81.16248 z"
     style="fill:#000000;fill-opacity:0.45882353;fill-rule:evenodd;stroke:#000000;stroke-width:1px;stroke-linecap:butt;stroke-linejoin:miter;stroke-opacity:0" />
</svg>
