<svg xmlns="http://www.w3.org/2000/svg" width="281.32" height="287.236"><path style="marker:none" d="M170.037 263.626c6.04-5.003 7.263-13.052 7.313-20.959-.008-11.42 4.194-16.517-1.724-32.45-1.548-4.743-6.811-21.998-4.287-26.492 15.974 6.436 13.98 22.71 21.159 34.309 13.429 21.942 23.253 23.018 35.739 16.68 13.126-4.616 14.37 10.447 26.446-3.28 2.702-3.952 4.861-20.577 5.107-23.245-.674-12.064-1.636-10.343 3.442-19.863 5.323-11.162-4.568-27.52-10.591-34.135-5.523-10.05-50.015-15.278-47.438-18.274 16.087-13.5 39.185-5.909 55.431-16.227 4.975-3.553 7.237-7.756 7.13-13.25-1.904-12.659-12.555-16.86-13.134-26.207-.721-13.318-3.956-18.237-10.925-27.03-9.693-11.371-20.182-11.015-34.054-10.422-10.208.256-22.278 4.051-29.052 9.872-8.099 12.112-4.607 26.74-7.32 38.455-1.596 6.83-2.22 11.702-1.946 15.21 1.56 3.009 12.92-15.098 16.028-17.915 23.957-15.845 12.586-2.378 4.987 16.152-.004.234 2.278-.135 5.07-.82 8.603-2.11 15.485-2.278 20.58-.503 6.66 2.678-1.79 5.54-5.571 7.71-8.378 4.794-23.4 14.924-27.768 18.725-6.942 6.04-14.74 14.957-16.82 19.235l-.836 1.718 2.821-.266c2.463-.232 6.24-.194 11.945.119 11.055.607 22.927 6.404 31.096 15.183 2.391 2.57 8.307 10.321 8.468 11.095-9.606 3.01-20.477-7.733-29.043-3.462 3.606 7.178 8.725 13.595 10.73 20.78 1.095 4.283 1.065 11.62-.05 12.548-10.989-17.068-26.878-30.322-42.286-37.465-1.475-.753-1.73-.751-2.166.015 3.633 9.58-2.69 20.005-3.12 29.614 2.333 18.01 3.405 8.01-10.884 27.555-5.708 4.816-8.638 14.303-7.759 10.506 1.773-14.065-3.362-11.249.617-44.23l.741-1.495-2.511 1.528c-3.212 1.74-17.36 18.405-17.603 13.588 2.085-15.121 15.606-28.407 22.11-40.916-17.753 8.414-36.539 24.075-41.042 36.65-5.908 16.502-2.5 33.63 4.74 43.633 16.644 40.194 30.48 38.366 39.466 32.015 8.678-6.133 18.065-8.112 26.764-13.99z" color="#fff" overflow="visible" fill="#fff" stroke="#fff" stroke-width=".405" stroke-opacity=".971"/><path style="marker:none" d="M46.001 203.73c8.272 3.083 15.794 1.538 22.78-4.679 3.14-2.794 6.647-6.816 11.577-13.276 6.302-8.258 10.125-11.502 18.761-15.918 3.399-1.738 5.717-2.75 14.762-6.45 1.903-.779 3.031-1.546 2.636-1.794-.059-.037-3.37-.394-7.357-.794-9.05-.909-12.003-.815-18.636.59-5.157 1.093-9.863 1.455-12.72.977-4.914-8.67 13.478-13.564 17.46-14.482 3.914-.888 5.422-1.72 4.344-2.395-.27-.17-1.99-.917-3.823-1.662-3.405-1.384-9.7-2.839-19.337-4.47-7.137-1.21-11.192-2.214-11.708-2.902-1.2-1.598 7.028-6.425 12.48-7.323 16.336-.984 27.99 3.967 42.163 8.868.515-.034-.108-.82-2.987-3.774-6.174-6.332-13.89-12.46-22.373-17.774-17.678-9.404-35.783-20.623-55.485-16.089-9.905 3.467-18.214 8.152-22.71 16.042-3.41 7.488 6.613 13.673 1.814 18.94-3.349 3.814-6.774 6.7-11.95 16.439 6.685 23.513 12.546 16.071 18.831 24.831 4.535 10.154 8.207 18.396 16.248 23.892 2.32 1.554 4.674 2.996 5.23 3.203z" color="#fff" overflow="visible" fill="#fff" stroke="#fff" stroke-width=".424" stroke-opacity=".971"/><path style="marker:none" d="M92.269 101.794c16.698 6.919 19.28 21.308 32.256 29.453.628-.162.222-2.477-1.182-6.746-.87-2.64-2.176-5.408-2.328-6.03-.955-7.87-34.957-54.388-24.205-53.495 13.383 3.853 26.151 22.656 30.78 29.303 3.13 4.508 5.838 8.16 6.019 8.113.784-.202 1.21-10.615.67-16.372-.936-7.56-2.274-10.496-4.497-17.373-1.881-5.836-9.698-18.185-16.056-25.362-5.188-5.858-7.686-7.902-13.971-11.435-14.28-8.025-28.034-8.887-40.055-2.508-5.749 3.05-7.603 3.523-7.163 11.97l.365 7.019s1.427 1.624-3.783 5.783c-6.345 5.623-12.04 7.63-15.368 15.868-2.288 8.55-4.85 19.419 3.465 17.703 17.628-1.67 39.722 2.779 55.053 14.109z" color="#fff" overflow="visible" fill="#fff" stroke="#fff" stroke-width=".435" stroke-opacity=".971"/><path style="marker:none" d="M152.573 154.78c6.46.984 5.856-15.283 7.195-36.698.89-27.152 5.786-50.406-1.638-75.605-1.959-6.495-5.395-18.175-6.034-18.595-.511-.336-.918.41-.57 1.048.331.61 1.685 15.448 2.262 24.81 2.322 21.781-.348 39.646-4.31 59.76-1.377 7.024-4.417 24.305-4.677 28.189-.295 4.782-1.966 19.013 3.912 20.057z" color="#fff" overflow="visible" fill="#fff" stroke="#fff" stroke-width=".517" stroke-opacity=".971"/><path style="marker:none" d="M166.097 36.608c2.814.281 5.56-2.297 5.64-5.295.045-1.715-.761-3.007-2.586-4.142-2.259-1.404-4.794-.593-6.469 2.07-1.248 1.985-1.254 3.635-.018 5.373 1.135 1.597 1.484 1.8 3.433 1.994z" color="#fff" overflow="visible" fill="#fff" stroke="#fff" stroke-width=".431" stroke-opacity=".971"/><path style="marker:none" d="M163.66 19.96c3.016.314 5.034-4.648 3.687-7.343-.895-1.79-2.903-2.077-4.808-2.4-3.346-.567-6.326 3.753-4.226 6.625.942 1.287 3.808 2.959 5.347 3.119z" color="#fff" overflow="visible" fill="#fff" stroke="#fff" stroke-width=".387" stroke-opacity=".971"/><path style="marker:none" d="M146.095 12.417c2.137.988 2.988 1.131 4.413.746 3.916-1.06 4.833-6.713.545-9.38-1.657-1.03-2.747-1.857-4.526-1.447-4.683 1.079-5.258 7.852-.432 10.081zM137.766 25.185c1.956.195 4.365-1.04 5.477-2.808 1.325-2.108.584-4.399-2.042-6.308-1.797-1.306-2.226-1.445-3.787-1.223-1.303.185-2.09.634-3.032 1.729-3.069 3.569-1.27 8.146 3.384 8.61zM142.155 39.924c.738-.08 1.973-.697 2.743-1.37 3.374-2.952 2.16-7.925-2.192-8.982-2.768-.671-4.997 1.391-5.497 5.088-.397 2.939 2.08 5.575 4.946 5.264z" color="#fff" overflow="visible" fill="#fff" stroke="#fff" stroke-width=".431" stroke-opacity=".971"/></svg>