<svg xmlns="http://www.w3.org/2000/svg" width="316.324" height="287.499"><path style="marker:none" d="M274.85 222.222c1.118-8.659-6.844-19.152-12.738-24.976-8.577-8.347-18.697-14.387-35.429-21.143-4.808-2.188-22.004-10.452-23.34-15.829 17.718-8.515 28.323 5.038 42.819 7.581 27.301 4.935 36.035-2.41 41.352-17.383 7.127-14.241 19.435-4.252 18.877-24.29-.786-5.127-11.52-19.075-13.324-21.23-9.597-8.266-9.082-6.21-12.128-17.378-4.082-12.57-24.338-16.349-34.162-16.202-11.997-2.778-51.82 30.226-51.987 25.901 2.847-23.192 27.181-36.758 32.546-57.753 1.347-6.717.018-11.664-4.192-15.593-11.035-7.685-22.78-1.94-30.263-8.298C182.305 6.484 176.003 5.564 163.782 4.9c-16.354-.294-24.55 8.65-35.297 20.566-8.044 8.636-14.934 21.403-16.032 31.268 2.555 15.564 16.35 23.373 22.953 34.188 3.837 6.318 6.99 10.398 9.844 12.737 3.516.91-.906-21.738-.513-26.371 7.438-31.422 8.37-12.158 16.145 7.686.173.174 1.737-1.984 3.476-4.797 5.358-8.664 10.783-14.483 16.226-17.403 7.384-3.554 2.714 5.534 1.291 10.251-3.161 10.441-7.68 30.286-8.351 36.682-1.069 10.165-.668 23.141.863 27.993l.615 1.948 2.077-2.53c1.812-2.207 4.889-5.307 9.726-9.8 9.375-8.707 23.304-14.294 36.484-14.634 3.858-.1 14.447.673 15.158 1.106-5.492 10.153-22.324 11.293-26.031 21.508 8.296 2.266 17.241 2.722 24.252 6.319 4.097 2.225 9.579 7.617 9.375 9.22-21.674-3.39-44.44.068-62.233 7.597-1.754.67-1.96.884-1.736 1.804.39 1.598 1.764 2.912 5.089 4.863 1.67.98 5.983 3.951 9.585 6.603 3.602 2.653 8.253 5.955 10.335 7.338 15.398 11.242 26.103 23.433 30.513 40.945-6.068 1.41-11.918-2.898-15.841-5.304-6.217-3.88-9.91-5.312-17.582-14.427-6.649-7.9-7.462-8.733-7.993-8.193-.18.182.375 3.207 1.23 6.722 2.185 8.973 2.279 13.349.349 16.2-9.98-.104-13.24-13.92-15.152-20.094l-.524-1.707-.879 3.197c-1.287 3.931-1.656 15.27-5.466 11.948-9.666-12.787-7.266-21.135-11.406-35.67-6.79 19.71-13.724 26.442-12.84 46.496 2.82 21.663 2.516 47.237 21.762 53.254 10.214 2.56 25.853-18.234 35.366-17.799 7.243-.243 19.166 3.522 26.204 4.056 26.142.582 30.075-7.013 40.025-36.444z" color="#fff" overflow="visible" fill="#5f368e" stroke="#fff" stroke-width=".445" stroke-opacity=".971"/><path style="marker:none" d="M122.877 272.096c8.394-3.977 12.76-10.779 13.221-20.6.207-4.412-.239-10.002-1.47-18.45-1.576-10.8-1.205-16.058 1.822-25.803 1.191-3.835 2.133-6.325 5.998-15.852.814-2.006 1.066-3.418.59-3.301-.071.017-2.772 2.25-6.003 4.964-7.332 6.156-9.432 8.45-13.249 14.48-2.968 4.688-6.154 8.5-8.613 10.304-10.126-2.647-.29-20.096 1.947-23.77 2.208-3.6 2.691-5.347 1.392-5.029-.326.08-2.152.829-4.059 1.665-3.541 1.553-9.26 5.232-17.567 11.302-6.152 4.494-9.887 6.815-10.783 6.7-2.082-.267.335-10.004 3.667-14.772 11.263-13.035 23.547-18.193 37.643-25.287.354-.413-.696-.52-5.031-.512-9.294.016-19.57 1.342-29.795 3.845-20.056 6.438-41.79 11.868-52.86 30.04-4.672 10.006-7.256 19.702-4.63 28.87 3.122 8.055 15.135 5.03 15.567 12.507.405 5.317.058 10.013 3.573 21.05 22.581 12.183 21.296 2.313 32.497 3.993 10.963 4.019 19.854 7.288 29.893 5.252 2.873-.61 5.685-1.329 6.25-1.596z" color="#fff" overflow="visible" fill="#5f368e" stroke="#fff" stroke-width=".445" stroke-opacity=".971"/><path style="marker:none" d="M82.705 155.52c17.486-7.442 30.29 1.252 45.977-2.484.338-.593-1.715-1.999-5.982-4.097-2.639-1.298-5.696-2.362-6.279-2.708-6.67-5.1-66.866-13.916-58.309-21.34 12.731-7.216 36.349-2.918 44.782-1.486 5.713.98 10.467 1.641 10.564 1.471.421-.739-7.163-8.756-11.925-12.605-6.419-4.885-9.626-6.05-16.47-9.46-5.805-2.9-20.9-6.15-31.002-6.675-8.245-.428-11.625-.06-18.911 2.054-16.553 4.806-27.287 14.511-31.26 28.266-1.9 6.577-2.9 8.32 3.827 14.234l5.59 4.913s2.279.128 1.614 7.12c-.387 8.927-3.038 14.693.77 23.284 4.807 8.041 11.17 18.001 15.964 10.48 11.653-14.49 31.221-27.814 51.05-30.967z" color="#fff" overflow="visible" fill="#5f368e" stroke="#fff" stroke-width=".459" stroke-opacity=".971"/><path style="marker:none" d="M162.29 155.167c5.34-4.097-6.51-14.778-20.574-30.415-18.413-19.23-31.208-38.751-54.235-50.505-5.968-2.996-16.639-8.448-17.393-8.264-.604.148-.373.96.324 1.139.668.172 12.055 9.322 19.04 15.3 16.957 13.183 27.571 27.374 38.835 44.06 3.938 5.82 13.876 19.885 16.415 22.734 3.144 3.489 11.927 14.457 16.89 10.83z" color="#fff" overflow="visible" fill="#5f368e" stroke="#fff" stroke-width=".52" stroke-opacity=".971"/><path style="marker:none" d="M86.124 65.595c2.232-1.873 2.296-5.762.13-7.987-1.238-1.272-2.775-1.61-4.929-1.084-2.665.652-3.887 3.108-3.118 6.268.573 2.356 1.792 3.552 3.97 3.896 2 .316 2.4.205 3.947-1.093zM74.336 52.261c2.72-2.283.352-7.892-2.932-8.89-2.181-.662-4.056.796-5.875 2.14-3.195 2.359-2.133 8.268 1.91 8.773 1.812.227 5.51-.858 6.897-2.023zM53.762 59.393c2.269-.863 2.988-1.388 3.727-2.718 2.031-3.655-1.5-8.415-6.56-7.178-1.956.478-3.353.685-4.329 2.294-2.568 4.235 2.039 9.552 7.162 7.602zM56.538 74.772c1.551-1.302 2.368-3.973 1.858-6.07-.609-2.501-2.84-3.609-6.144-3.05-2.26.382-2.672.598-3.63 1.91-.8 1.095-1.034 2-.9 3.486.439 4.844 5.125 6.823 8.816 3.724zM72.375 83.205c.472-.603.903-1.96.957-3.014.24-4.622-4.32-7.32-8.233-4.871-2.489 1.557-2.563 4.691-.182 7.73 1.892 2.418 5.628 2.495 7.458.155z" color="#fff" overflow="visible" fill="#5f368e" stroke="#fff" stroke-width=".445" stroke-opacity=".971"/></svg>