<?xml version="1.0" encoding="UTF-8" standalone="no"?>
<!-- Created with Inkscape (http://www.inkscape.org/) -->

<svg
   xmlns:dc="http://purl.org/dc/elements/1.1/"
   xmlns:cc="http://creativecommons.org/ns#"
   xmlns:rdf="http://www.w3.org/1999/02/22-rdf-syntax-ns#"
   xmlns:svg="http://www.w3.org/2000/svg"
   xmlns="http://www.w3.org/2000/svg"
   xmlns:sodipodi="http://sodipodi.sourceforge.net/DTD/sodipodi-0.dtd"
   xmlns:inkscape="http://www.inkscape.org/namespaces/inkscape"
   id="svg2816"
   version="1.1"
   inkscape:version="0.91 r13725"
   width="705"
   height="658"
   sodipodi:docname="Hibiscus-2.svg">
  <metadata
     id="metadata2822">
    <rdf:RDF>
      <cc:Work
         rdf:about="">
        <dc:format>image/svg+xml</dc:format>
        <dc:type
           rdf:resource="http://purl.org/dc/dcmitype/StillImage" />
        <dc:title></dc:title>
      </cc:Work>
    </rdf:RDF>
  </metadata>
  <defs
     id="defs2820">
    <inkscape:perspective
       sodipodi:type="inkscape:persp3d"
       inkscape:vp_x="0 : 0.5 : 1"
       inkscape:vp_y="0 : 1000 : 0"
       inkscape:vp_z="1 : 0.5 : 1"
       inkscape:persp3d-origin="0.5 : 0.33333333 : 1"
       id="perspective2824" />
  </defs>
  <path
     style="color:#FFFFFF;display:inline;overflow:visible;visibility:visible;fill:#FFFFFF;fill-opacity:1;stroke:#FFFFFF;stroke-width:0.98575479;stroke-linecap:butt;stroke-linejoin:miter;stroke-miterlimit:4;stroke-dasharray:none;stroke-dashoffset:0;stroke-opacity:0.97093021;marker:none;enable-background:accumulate"
     d="m 246.62944,650.59504 c -15.13483,-3.68053 -30.85187,-19.13524 -43.91662,-43.18363 -6.40487,-19.48008 -35.30823,-22.49488 -43.00842,-37.0467 -6.94793,-18.01611 4.69575,-44.74261 14.33216,-60.3521 14.09178,-22.43832 32.71606,-40.72996 65.19972,-64.03523 9.20556,-7.22607 41.89817,-34.01571 41.95717,-46.26805 -42.61228,-8.98748 -88.47502,52.09432 -118.35316,65.17233 -16.76239,6.8165 -38.00341,9.50537 -49.30904,6.24195 -12.25738,-3.53814 -17.229936,-7.64704 -28.598042,-23.63105 -22.81055,-26.85469 -51.054651,-21.02382 -60.358046,-64.36746 -0.99477,-11.42999 8.279607,-21.64124 11.035255,-27.21932 16.329508,-22.80167 39.69837,-46.03817 40.403985,-71.63102 0.148854,-22.85195 1.375199,-24.63059 18.772014,-27.2263 21.386144,-4.49771 26.244044,-21.5418 46.289794,-25.52766 24.37419,-12.27198 127.41549,37.7184 125.51053,28.33824 -18.28734,-48.33102 -77.79243,-64.69531 -100.34844,-106.98471 -6.42204,-13.72359 -6.15175,-25.05028 0.85198,-35.70299 5.88073,-8.94463 20.32314,-16.58731 39.12322,-20.703333 15.31194,-3.352348 14.14652,-2.652536 21.6866,-13.022405 17.97782,-25.202903 31.06405,-30.491039 57.02942,-38.335238 16.09379,-4.931532 29.0994,-6.167409 43.02469,0.987397 20.71627,10.644005 35.43308,18.936953 43.7541,24.655507 21.84698,14.329136 43.37411,38.139682 50.90822,58.757992 4.13825,21.85069 -3.17363,32.51568 -14.03565,47.86076 -7.84595,11.07716 -11.59122,19.151 -17.46418,37.64826 -4.94956,15.58891 -9.59974,26.01034 -14.51763,32.53511 -7.09448,3.80064 -9.44357,-47.17902 -12.7196,-56.92734 -6.0354,-16.80083 -11.34477,-24.97893 -26.41272,-40.68386 -15.59414,2.06593 -1.81219,52.67169 -4.32021,65.67938 -0.28048,0.46449 -4.77951,-3.35156 -9.99786,-8.48012 -16.07816,-15.80148 -30.81037,-25.4535 -44.05978,-28.86638 -10.67284,-2.74919 -11.2837,-2.04761 -6.24482,7.1721 2.29751,4.2038 6.2751,11.19199 8.83909,15.52931 12.27964,20.77266 32.40907,61.03467 37.20933,74.42449 7.62771,21.27665 13.56787,49.36623 12.81435,60.59585 l -0.3025,4.50803 -5.7985,-4.34463 c -5.05985,-3.79117 -13.30871,-8.83503 -26.07872,-15.94613 -24.74964,-13.78207 -57.6683,-18.46894 -86.22377,-12.27631 -8.35983,1.81295 -30.75426,9.03546 -32.05793,10.33913 13.96089,12.71503 35.20354,13.83853 51.96531,22.17593 7.463,3.83219 15.34556,9.14946 15.3557,10.35837 -16.67355,9.22644 -35.69511,14.90667 -48.90554,26.31565 -7.65446,6.93411 -16.63133,21.39709 -15.35125,24.73293 44.88886,-18.66637 95.7209,-23.19734 137.97647,-16.36641 4.12859,0.51742 4.68234,0.86781 4.68234,2.96285 0,3.63803 -2.27125,7.18283 -8.40728,13.12143 -3.08103,2.98191 -10.81025,11.63191 -17.17603,19.22222 -6.36578,7.59031 -14.64831,17.12749 -18.40563,21.19373 -27.26094,32.24176 -43.92163,64.0578 -44.23612,103.99713 13.80453,-0.15808 24.14185,-12.48696 31.32725,-19.7151 11.35144,-11.60221 18.55117,-16.6181 30.29285,-40.23335 10.17536,-20.46505 11.48896,-22.68218 12.91609,-21.80017 0.48073,0.29711 0.87406,7.08639 0.87406,15.0873 0,20.42736 2.09095,29.87747 7.74142,34.98756 21.43469,-5.46454 21.21033,-36.85992 22.09119,-51.12965 l 0.23291,-3.94302 3.56839,6.40741 c 4.83067,7.77019 11.57039,31.93938 18.03108,22.79809 14.10912,-32.54829 4.56569,-49.22398 5.86206,-82.62523 24.94966,38.77795 48.12048,75.42425 56.7288,118.9724 3.57119,18.74178 3.1605,41.60171 -0.97477,54.25751 -6.10268,18.67698 -17.06618,35.87639 -26.77604,42.00596 -20.64998,10.86423 -40.27089,-1.5358 -60.52514,4.39691 -15.72351,3.28147 -27.04791,16.20256 -41.9221,21.04759 -13.98712,4.17517 -40.99416,6.66291 -51.58201,4.08814 l 0,0 z"
     id="path3602"
     inkscape:connector-curvature="0"
     sodipodi:nodetypes="cccccccsccccccccssccccccsccccsssssscsssccccccssscccssscccccccscccccc" />
  <path
     style="color:#FFFFFF;display:inline;overflow:visible;visibility:visible;fill:#FFFFFF;fill-opacity:1;stroke:#FFFFFF;stroke-width:1.01491213;stroke-linecap:butt;stroke-linejoin:miter;stroke-miterlimit:4;stroke-dasharray:none;stroke-dashoffset:0;stroke-opacity:0.97093021;marker:none;enable-background:accumulate"
     d="m 496.96014,592.65269 c -20.15734,-4.3832 -33.12041,-17.44386 -39.25997,-39.55554 -5.40258,-55.41571 -22.16614,-99.56925 -45.17422,-133.36871 -2.80198,-4.11386 -4.08447,-7.19054 -2.99734,-7.19054 29.93868,8.55799 79.69441,61.72483 81.8808,41.99448 0,-7.2525 -0.41256,-9.15188 -3.47111,-15.98049 -4.57033,-8.22301 -25.85648,-37.47175 -25.11196,-37.50954 26.1346,-6.99809 56.21473,33.51495 80.07974,26.74721 5.36134,-33.92164 -47.72333,-49.04474 -64.72842,-58.02997 -15.7117,-4.63485 -28.69218,-5.6248 -45.2022,-10.2068 -0.97814,-0.74417 1.22506,-1.57214 10.56198,-3.96923 20.01829,-5.13932 42.83316,-7.84098 66.16084,-7.83451 43.08777,0.0119 81.45203,7.05215 104.06059,19.09616 7.83474,4.17371 18.864,12.78293 25.48232,19.89099 11.22328,12.05375 17.31582,23.89827 22.88909,44.49868 9.54553,25.14593 -7.96405,28.93384 -9.82007,65.42956 4.58039,26.22658 -1.67815,50.33258 -24.8866,62.41578 -15.61032,8.15321 -38.85139,-2.38227 -54.56893,5.11649 -24.95666,17.91052 -37.24721,27.8362 -61.60271,28.61034 -6.50525,0.2098 -12.93657,0.14034 -14.29183,-0.15436 z"
     id="path3604"
     inkscape:connector-curvature="0"
     sodipodi:nodetypes="ccccccccccsssscccccc" />
  <path
     style="color:#FFFFFF;display:inline;overflow:visible;visibility:visible;fill:#FFFFFF;fill-opacity:1;stroke:#FFFFFF;stroke-width:0.9370634;stroke-linecap:butt;stroke-linejoin:miter;stroke-miterlimit:4;stroke-dasharray:none;stroke-dashoffset:0;stroke-opacity:0.97093021;marker:none;enable-background:accumulate"
     d="m 530.67327,321.49234 c -39.79165,-5.48714 -62.21527,17.30736 -96.51856,17.95739 -0.98141,-0.95636 2.6084,-4.63413 10.4594,-10.71568 4.85613,-3.76167 10.69051,-7.28447 11.7347,-8.22817 11.40957,-12.95506 132.05097,-59.34711 110.78196,-69.20272 -29.82381,-7.40333 -76.75803,12.38836 -93.56479,19.26038 -11.38262,4.67334 -20.92603,8.2725 -21.20759,7.99814 -1.22476,-1.1935 10.69697,-20.13144 18.74494,-29.77676 10.99139,-12.42459 17.08846,-16.21209 29.66319,-26.05365 10.65994,-8.35833 40.41751,-21.96016 61.11685,-27.93578 16.89385,-4.87703 24.07848,-5.84763 40.19085,-5.42953 36.6057,0.94989 63.46854,14.05692 78.23649,38.1735 7.06146,11.53158 9.96357,14.34345 -1.18053,28.87054 l -9.26022,12.07134 c 0,0 -4.6633,1.36467 0.0334,14.29136 6.8101,18.74334 4.20781,10.16001 6.8101,18.74334 4.38341,14.45815 4.31565,17.99979 2.64537,25.77905 -6.15223,17.61292 -14.62049,39.632 -28.12947,27.73832 -31.04193,-21.72564 -77.94345,-37.3387 -120.5561,-33.54107 z"
     id="path3606"
     inkscape:connector-curvature="0"
     sodipodi:nodetypes="ccscccsccsssscssccc" />
  <path
     style="color:#FFFFFF;display:inline;overflow:visible;visibility:visible;fill:#FFFFFF;stroke:#FFFFFF;stroke-width:1.1509347;stroke-linecap:butt;stroke-linejoin:miter;stroke-miterlimit:4;stroke-dasharray:none;stroke-dashoffset:0;stroke-opacity:0.97093022;marker:none;enable-background:accumulate;fill-opacity:1"
     d="m 365.0193,364.04952 c -13.64532,-5.9969 -10.60314,-32.63988 11.48229,-73.62322 29.56509,-50.98828 53.24953,-99.61727 96.66824,-136.96664 11.27962,-9.57226 33.26263,-25.75867 34.98329,-25.75867 1.37879,0 1.30639,1.86394 -0.10159,2.61654 -1.34662,0.71975 -21.06752,26.35985 -32.97538,42.87285 -29.59788,37.23179 -45.01458,73.29711 -60.52018,115.06137 -5.42731,14.57428 -19.45353,50.01394 -23.42555,57.46781 -4.94156,9.14732 -13.52171,23.51527 -26.11112,18.32996 z"
     id="path3608"
     inkscape:connector-curvature="0"
     sodipodi:nodetypes="cccsccccc" />
  <path
     style="color:#FFFFFF;display:inline;overflow:visible;visibility:visible;fill:#FFFFFF;stroke:#FFFFFF;stroke-width:0.98575479;stroke-linecap:butt;stroke-linejoin:miter;stroke-miterlimit:4;stroke-dasharray:none;stroke-dashoffset:0;stroke-opacity:0.97093022;marker:none;enable-background:accumulate;fill-opacity:1"
     d="m 473.42271,135.29046 c -5.78749,-2.85223 -7.96321,-11.17421 -4.46825,-17.0907 1.99956,-3.38499 5.13149,-4.91843 10.04548,-4.91843 6.08081,0 9.99957,4.63573 9.99957,11.82906 0,5.36113 -1.99728,8.57128 -6.50457,10.45455 -4.13992,1.72977 -5.06201,1.70187 -9.07223,-0.27448 z"
     id="path3610"
     inkscape:connector-curvature="0" />
  <path
     style="color:#FFFFFF;display:inline;overflow:visible;visibility:visible;fill:#FFFFFF;stroke:#FFFFFF;stroke-width:0.98575479;stroke-linecap:butt;stroke-linejoin:miter;stroke-miterlimit:4;stroke-dasharray:none;stroke-dashoffset:0;stroke-opacity:0.97093022;marker:none;enable-background:accumulate;fill-opacity:1"
     d="m 491.81379,100.45078 c -7.05385,-3.476334 -4.89415,-16.772487 1.65331,-20.640164 4.34876,-2.568873 9.15075,-0.420179 13.7711,1.510328 8.11522,3.390755 8.92615,16.644682 0.48644,19.853456 -3.78221,1.43799 -12.31185,1.05007 -15.91085,-0.72362 z"
     id="path3612"
     inkscape:connector-curvature="0"
     sodipodi:nodetypes="sssss" />
  <path
     style="color:#FFFFFF;display:inline;overflow:visible;visibility:visible;fill:#FFFFFF;stroke:#FFFFFF;stroke-width:0.98575479;stroke-linecap:butt;stroke-linejoin:miter;stroke-miterlimit:4;stroke-dasharray:none;stroke-dashoffset:0;stroke-opacity:0.97093022;marker:none;enable-background:accumulate;fill-opacity:1"
     d="m 539.85045,104.96612 c -5.33769,-0.66365 -7.16068,-1.4125 -9.44869,-3.8813 -6.28945,-6.786428 -1.18263,-18.86928 10.36229,-18.86928 4.4612,0 7.57697,-0.28965 10.52115,2.654533 7.74992,7.74992 0.61849,21.594677 -11.43475,20.096047 z"
     id="path3614"
     inkscape:connector-curvature="0"
     sodipodi:nodetypes="sssss" />
  <path
     style="color:#FFFFFF;display:inline;overflow:visible;visibility:visible;fill:#FFFFFF;stroke:#FFFFFF;stroke-width:0.98575479;stroke-linecap:butt;stroke-linejoin:miter;stroke-miterlimit:4;stroke-dasharray:none;stroke-dashoffset:0;stroke-opacity:0.97093022;marker:none;enable-background:accumulate;fill-opacity:1"
     d="m 541.93389,139.46467 c -4.02159,-1.98288 -7.18134,-7.29142 -7.18134,-12.06505 0,-5.6927 4.22321,-9.24461 11.62875,-9.78027 5.06809,-0.3666 6.06801,-0.11748 8.81871,2.19709 2.29693,1.93274 3.2741,3.75493 3.76341,7.01793 1.59494,10.63578 -7.45764,17.34981 -17.02953,12.6303 z"
     id="path3616"
     inkscape:connector-curvature="0" />
  <path
     style="color:#FFFFFF;display:inline;overflow:visible;visibility:visible;fill:#FFFFFF;stroke:#FFFFFF;stroke-width:0.98575479;stroke-linecap:butt;stroke-linejoin:miter;stroke-miterlimit:4;stroke-dasharray:none;stroke-dashoffset:0;stroke-opacity:0.97093022;marker:none;enable-background:accumulate;fill-opacity:1"
     d="m 512.25513,165.90256 c -1.33167,-1.0475 -2.96976,-3.73539 -3.6402,-5.9731 -2.93731,-9.80389 5.46557,-17.99425 15.17395,-14.7902 6.17456,2.03779 7.97703,8.73373 4.44544,16.51418 -2.80832,6.187 -10.81041,8.31488 -15.97919,4.24912 l 0,0 z"
     id="path3618"
     inkscape:connector-curvature="0" />
</svg>
