<svg width="705" height="658"><path style="marker:none" d="M236.871 647.807c-15.135-3.68-30.852-19.135-43.917-43.184-6.405-19.48-35.308-22.495-43.008-37.046-6.948-18.017 4.696-44.743 14.332-60.353 14.092-22.438 32.716-40.73 65.2-64.035 9.205-7.226 41.898-34.015 41.957-46.268-42.612-8.987-88.475 52.095-118.353 65.173-16.763 6.816-38.004 9.505-49.31 6.241-12.257-3.538-17.23-7.647-28.597-23.63-22.81-26.855-51.055-21.024-60.358-64.368-.995-11.43 8.28-21.641 11.035-27.22 16.33-22.801 39.698-46.038 40.404-71.63.149-22.852 1.375-24.631 18.772-27.227 21.386-4.497 26.244-21.541 46.29-25.527 24.374-12.272 127.415 37.718 125.51 28.338-18.287-48.331-77.792-64.695-100.348-106.985-6.422-13.723-6.152-25.05.852-35.703 5.88-8.944 20.323-16.587 39.123-20.703 15.312-3.352 14.147-2.653 21.687-13.023 17.977-25.202 31.064-30.49 57.029-38.335 16.094-4.931 29.1-6.167 43.025.988 20.716 10.644 35.433 18.937 43.754 24.655 21.847 14.33 43.374 38.14 50.908 58.758 4.138 21.85-3.174 32.516-14.036 47.86-7.846 11.078-11.59 19.152-17.464 37.65-4.95 15.588-9.6 26.01-14.517 32.534-7.095 3.8-9.444-47.179-12.72-56.927-6.035-16.8-11.345-24.979-26.413-40.684-15.594 2.066-1.812 52.672-4.32 65.68-.28.464-4.78-3.352-9.998-8.48-16.078-15.802-30.81-25.454-44.06-28.867-10.672-2.75-11.283-2.048-6.244 7.172 2.297 4.204 6.275 11.192 8.839 15.53 12.28 20.772 32.409 61.034 37.209 74.424 7.628 21.276 13.568 49.366 12.814 60.596l-.302 4.508-5.799-4.345c-5.06-3.791-13.308-8.835-26.078-15.946-24.75-13.782-57.669-18.469-86.224-12.276-8.36 1.813-30.754 9.035-32.058 10.339 13.96 12.715 35.203 13.838 51.965 22.176 7.463 3.832 15.346 9.15 15.356 10.358-16.674 9.227-35.695 14.907-48.906 26.316-7.654 6.934-16.63 21.397-15.35 24.733 44.888-18.667 95.72-23.198 137.976-16.367 4.128.518 4.682.868 4.682 2.963 0 3.638-2.271 7.183-8.407 13.122-3.081 2.981-10.81 11.631-17.176 19.222-6.366 7.59-14.649 17.127-18.406 21.193-27.26 32.242-43.922 64.058-44.236 103.998 13.804-.158 24.142-12.487 31.327-19.716 11.352-11.602 18.551-16.618 30.293-40.233 10.175-20.465 11.489-22.682 12.916-21.8.48.297.874 7.086.874 15.087 0 20.428 2.091 29.878 7.742 34.988 21.434-5.465 21.21-36.86 22.09-51.13l.234-3.943 3.568 6.408c4.83 7.77 11.57 31.939 18.031 22.798 14.11-32.549 4.566-49.224 5.862-82.626 24.95 38.778 48.12 75.425 56.729 118.973 3.571 18.742 3.16 41.602-.975 54.257-6.102 18.677-17.066 35.877-26.776 42.006-20.65 10.865-40.27-1.535-60.525 4.397-15.723 3.282-27.048 16.203-41.922 21.048-13.987 4.175-40.994 6.663-51.582 4.088z" color="#000" overflow="visible" stroke="#000" stroke-width=".986" stroke-opacity=".971"/><path style="marker:none" d="M502.532 598.26c-20.16-4.135-33.124-16.455-39.265-37.312-2.759-9.372-4.73-21.617-6.504-40.416-2.27-24.029-5.825-35.131-17.45-54.477-4.575-7.614-7.908-12.468-21.225-30.908-2.802-3.88-4.085-6.783-2.998-6.783.16 0 7.147 3.38 15.526 7.512 19.013 9.375 24.738 13.203 36.116 24.151 8.848 8.514 17.706 15.03 23.946 17.615 4.922 2.038 6.303-.08 6.303-9.666 0-6.841-.413-8.633-3.472-15.074-3.91-8.235-9.268-15.194-19.481-25.306-6.643-6.577-8.599-10.075-5.634-10.075.742 0 5.067.65 9.611 1.445 8.439 1.477 22.68 6.377 43.75 15.053 15.6 6.425 24.858 9.449 26.728 8.731 4.343-1.666-5.966-21.316-15.64-29.81-10.241-8.992-22.767-15.763-39.676-21.447-4.337-1.458-8.576-3.024-9.42-3.48-.843-.456-11.268-2.742-23.165-5.08-11.897-2.34-21.816-4.386-22.042-4.548-.978-.702 1.225-1.483 10.563-3.744 20.02-4.847 42.838-7.396 66.168-7.39 43.093.012 81.462 6.652 104.073 18.013 7.835 3.937 18.866 12.058 25.485 18.762 11.225 11.37 17.318 22.543 22.892 41.974 2.13 7.43 2.519 10.52 2.21 17.62-.414 9.568-2.23 14.4-8.164 21.713-5.378 6.63-6.077 10.675-3.867 22.384 1.041 5.522 1.86 14.194 1.86 19.715 0 8.965-.267 10.394-2.943 15.773-4.284 8.61-15.272 19.404-23.807 23.387-6.644 3.1-6.98 3.15-18.595 2.77-26.434-.863-30.118-.652-35.98 2.056-2.982 1.377-8.947 5.448-13.256 9.045-14.682 12.257-28.363 17.334-48.354 17.942-6.506.198-12.938.132-14.293-.146zM526.05 319.045c-41.322-5.848-64.607 18.443-100.23 19.136-1.018-1.02 2.71-4.938 10.862-11.42 5.043-4.008 11.102-7.762 12.186-8.768 11.848-13.805 137.128-63.243 115.041-73.746-30.97-7.89-79.709 13.202-97.162 20.525-11.82 4.98-21.73 8.816-22.023 8.523-1.272-1.272 11.108-21.453 19.466-31.731 11.414-13.24 17.745-17.277 30.803-27.765 11.07-8.907 41.972-23.402 63.467-29.77 17.543-5.197 25.004-6.231 41.736-5.786 38.013 1.013 65.908 14.98 81.244 40.68 7.333 12.289 10.347 15.285-1.226 30.766l-9.616 12.864s-4.843 1.454.035 15.23c7.072 19.974 4.37 10.827 7.072 19.974 4.551 15.407 4.481 19.181 2.747 27.471-6.39 18.77-15.183 42.234-29.211 29.56-32.236-23.152-80.94-39.79-125.191-35.743z" color="#000" stroke="#000" stroke-width=".986" stroke-opacity=".971" overflow="visible"/><path style="marker:none" d="M365.02 364.05c-13.646-5.997-10.604-32.64 11.482-73.624 29.565-50.988 53.25-99.617 96.668-136.966 11.28-9.573 33.262-25.759 34.983-25.759 1.379 0 1.307 1.864-.101 2.617-1.347.72-21.068 26.36-32.976 42.872-29.598 37.232-45.014 73.297-60.52 115.062-5.427 14.574-19.454 50.014-23.426 57.468-4.941 9.147-13.521 23.515-26.11 18.33z" color="#000" overflow="visible" stroke="#000" stroke-width="1.151" stroke-opacity=".971"/><path style="marker:none" d="M473.423 135.29c-5.788-2.852-7.964-11.174-4.469-17.09 2-3.385 5.132-4.919 10.046-4.919 6.08 0 10 4.636 10 11.83 0 5.36-1.998 8.57-6.505 10.454-4.14 1.73-5.062 1.702-9.072-.275zM491.814 100.45c-7.054-3.476-4.894-16.772 1.653-20.64 4.349-2.568 9.15-.42 13.771 1.51 8.115 3.392 8.926 16.646.487 19.854-3.783 1.438-12.312 1.05-15.911-.723zM539.85 104.966c-5.337-.664-7.16-1.412-9.448-3.881-6.29-6.787-1.183-18.87 10.362-18.87 4.461 0 7.577-.29 10.521 2.655 7.75 7.75.619 21.595-11.435 20.096zM541.934 139.465c-4.022-1.983-7.181-7.292-7.181-12.065 0-5.693 4.223-9.245 11.628-9.78 5.068-.367 6.068-.118 8.819 2.196 2.297 1.933 3.274 3.755 3.763 7.018 1.595 10.636-7.457 17.35-17.03 12.63zM512.255 165.903c-1.332-1.048-2.97-3.736-3.64-5.974-2.937-9.803 5.466-17.994 15.174-14.79 6.174 2.038 7.977 8.734 4.445 16.514-2.808 6.187-10.81 8.315-15.979 4.25z" color="#000" overflow="visible" stroke="#000" stroke-width=".986" stroke-opacity=".971"/></svg>