<?xml version="1.0" standalone="no"?>
<!DOCTYPE svg PUBLIC "-//W3C//DTD SVG 20010904//EN"
 "http://www.w3.org/TR/2001/REC-SVG-20010904/DTD/svg10.dtd">
<svg version="1.0" xmlns="http://www.w3.org/2000/svg"
 width="510.000000pt" height="510.000000pt" viewBox="0 0 510.000000 510.000000"
 preserveAspectRatio="xMidYMid meet">
<metadata>
Created by potrace 1.11, written by Peter Selinger 2001-2013
</metadata>
<g transform="translate(0.000000,510.000000) scale(0.100000,-0.100000)"
fill="#000000" stroke="none">
<path d="M0 2550 l0 -2550 2550 0 2550 0 0 2550 0 2550 -2550 0 -2550 0 0
-2550z m3088 1730 c324 -92 521 -344 592 -756 27 -158 36 -410 21 -599 -57
-710 -321 -1239 -782 -1567 -285 -204 -694 -328 -1078 -328 l-88 0 -12 -52
c-15 -69 -43 -98 -93 -98 -53 0 -72 30 -63 103 l7 54 -112 22 c-126 24 -185
50 -202 87 -15 33 -1 74 32 92 23 13 33 12 104 -17 44 -17 105 -34 136 -38 67
-7 58 -20 90 142 96 488 326 1475 450 1925 57 210 175 601 219 733 16 48 28
87 27 87 -16 0 -202 -83 -284 -126 -113 -59 -143 -65 -166 -32 -25 36 -19 67
19 104 43 40 287 162 410 204 49 17 98 39 108 48 14 12 40 17 95 19 43 1 113
6 157 12 125 15 327 6 413 -19z"/>
<path d="M2690 4144 c-25 -2 -78 -9 -118 -15 l-72 -12 -29 -96 c-182 -592
-338 -1188 -475 -1806 -82 -371 -201 -935 -212 -1002 l-6 -42 93 5 c404 21
703 120 971 322 281 211 457 464 582 833 75 221 113 442 123 714 20 540 -127
901 -422 1035 -107 49 -292 76 -435 64z"/>
</g>
</svg>
