<svg xmlns="http://www.w3.org/2000/svg" width="316.324" height="287.499"><path style="marker:none" d="M105.473 283.788c-6.966-1.694-14.201-8.808-20.215-19.877-2.948-8.967-16.252-10.355-19.797-17.053-3.198-8.293 2.162-20.595 6.597-27.78 6.487-10.328 15.06-18.748 30.012-29.475 4.237-3.327 19.286-15.658 19.313-21.298-19.615-4.137-40.725 23.98-54.478 30-7.716 3.137-17.493 4.375-22.697 2.872-5.642-1.628-7.931-3.52-13.164-10.877-10.5-12.361-23.5-9.677-27.783-29.628-.458-5.262 3.811-9.962 5.08-12.53 7.516-10.495 18.273-21.191 18.598-32.971.068-10.52.633-11.338 8.64-12.533 9.845-2.07 12.08-9.915 21.308-11.75 11.22-5.649 58.65 17.362 57.772 13.044-8.417-22.247-35.807-29.78-46.19-49.245-2.956-6.317-2.832-11.53.392-16.434 2.707-4.118 9.355-7.636 18.009-9.53 7.048-1.543 6.511-1.221 9.982-5.994 8.275-11.601 14.299-14.035 26.25-17.646 7.409-2.27 13.395-2.84 19.805.454 9.536 4.9 16.31 8.717 20.14 11.35 10.056 6.595 19.965 17.555 23.433 27.046 1.905 10.058-1.46 14.967-6.46 22.03-3.612 5.099-5.336 8.815-8.04 17.33-2.277 7.175-4.418 11.972-6.682 14.976-3.265 1.749-4.347-21.717-5.855-26.204-2.778-7.734-5.222-11.498-12.157-18.727-7.178.95-.834 24.245-1.989 30.232-.129.214-2.2-1.542-4.602-3.903-7.4-7.274-14.182-11.716-20.28-13.287-4.913-1.266-5.195-.943-2.875 3.301a295.934 295.934 0 0 0 4.068 7.148c5.653 9.562 14.918 28.095 17.128 34.258 3.511 9.794 6.245 22.723 5.898 27.892l-.139 2.075-2.669-2c-2.329-1.745-6.126-4.066-12.004-7.34-11.392-6.343-26.545-8.5-39.689-5.65-3.848.834-14.156 4.159-14.756 4.759 6.426 5.852 16.204 6.37 23.92 10.207 3.435 1.764 7.063 4.212 7.068 4.768-7.675 4.247-16.43 6.862-22.512 12.113-3.523 3.192-7.655 9.85-7.066 11.385 20.663-8.592 44.06-10.678 63.511-7.533 1.9.238 2.155.399 2.155 1.363 0 1.675-1.045 3.307-3.87 6.04-1.418 1.373-4.976 5.354-7.906 8.848-2.93 3.494-6.742 7.884-8.472 9.756-12.548 14.84-20.217 29.486-20.362 47.87 6.354-.073 11.113-5.748 14.42-9.075 5.225-5.34 8.54-7.65 13.944-18.52 4.684-9.42 5.288-10.44 5.945-10.034.222.137.403 3.262.403 6.944 0 9.403.962 13.753 3.563 16.105 9.866-2.515 9.763-16.966 10.169-23.535l.107-1.815 1.642 2.95c2.224 3.576 5.326 14.701 8.3 10.494 6.495-14.982 2.102-22.658 2.698-38.033 11.485 17.85 22.15 34.718 26.113 54.763 1.644 8.627 1.455 19.15-.449 24.975-2.809 8.597-7.856 16.514-12.325 19.335-9.505 5.001-18.537-.706-27.86 2.024-7.237 1.51-12.45 7.458-19.297 9.689-6.438 1.921-18.87 3.067-23.743 1.881z" color="#fff" overflow="visible" fill="#fff" stroke="#fff" stroke-width=".454" stroke-opacity=".971"/><path style="marker:none" d="M227.757 260.982c-9.28-1.904-15.247-7.574-18.073-17.175-1.27-4.314-2.177-9.95-2.994-18.603-1.045-11.061-2.682-16.171-8.032-25.076-2.106-3.505-3.64-5.74-9.77-14.227-1.29-1.787-1.88-3.122-1.38-3.122.073 0 3.29 1.555 7.146 3.457 8.752 4.315 11.387 6.077 16.624 11.117 4.073 3.92 8.15 6.918 11.023 8.108 2.265.938 2.901-.036 2.901-4.45 0-3.148-.19-3.973-1.598-6.938-1.8-3.79-4.266-6.993-8.967-11.648-3.058-3.028-3.958-4.638-2.593-4.638.341 0 2.332.3 4.424.666 3.884.68 10.439 2.935 20.137 6.929 7.182 2.957 11.443 4.349 12.304 4.019 1.999-.768-2.746-9.812-7.2-13.722-4.714-4.14-10.479-7.256-18.262-9.872-1.997-.672-3.948-1.392-4.336-1.602-.389-.21-5.187-1.262-10.663-2.339-5.477-1.076-10.042-2.018-10.146-2.093-.45-.323.564-.682 4.862-1.723 9.215-2.232 19.718-3.405 30.457-3.402 19.836.005 37.497 3.062 47.905 8.291 3.607 1.813 8.684 5.55 11.73 8.637 5.168 5.233 7.972 10.376 10.538 19.32.98 3.42 1.16 4.843 1.018 8.111-.191 4.404-1.028 6.628-3.758 9.994-2.476 3.052-2.798 4.914-1.78 10.304.479 2.541.856 6.533.856 9.075 0 4.126-.123 4.784-1.355 7.26-1.972 3.963-7.03 8.932-10.958 10.765-3.059 1.427-3.213 1.45-8.56 1.275-12.167-.397-13.863-.3-16.561.946-1.373.635-4.119 2.508-6.102 4.164-6.758 5.642-13.056 7.979-22.257 8.259-2.995.09-5.956.06-6.58-.067zM238.583 132.459c-19.02-2.692-29.74 8.49-46.136 8.808-.47-.47 1.247-2.273 5-5.256 2.32-1.845 5.11-3.573 5.609-4.036 5.453-6.355 63.12-29.111 52.953-33.946-14.255-3.631-36.69 6.077-44.724 9.448-5.44 2.292-10.002 4.058-10.137 3.923-.585-.585 5.113-9.875 8.96-14.606 5.254-6.095 8.169-7.952 14.18-12.78 5.095-4.1 19.319-10.772 29.213-13.703 8.075-2.392 11.51-2.868 19.211-2.663 17.498.466 30.338 6.895 37.397 18.725 3.375 5.656 4.763 7.035-.564 14.161l-4.427 5.921s-2.229.67.016 7.01c3.256 9.195 2.012 4.984 3.256 9.195 2.095 7.092 2.062 8.829 1.264 12.645-2.94 8.64-6.989 19.44-13.446 13.606-14.838-10.657-37.257-18.315-57.625-16.452z" color="#fff" overflow="visible" fill="#fff" stroke="#fff" stroke-width=".454" stroke-opacity=".971"/><path style="marker:none" d="M164.46 153.174c-6.281-2.76-4.88-15.024 5.285-33.888 13.61-23.47 24.511-45.854 44.497-63.046 5.192-4.407 15.31-11.857 16.103-11.857.634 0 .601.858-.047 1.204-.62.332-9.697 12.134-15.179 19.735-13.624 17.138-20.72 33.738-27.857 52.963-2.498 6.708-8.955 23.021-10.783 26.452-2.275 4.21-6.224 10.824-12.019 8.437z" color="#fff" overflow="visible" fill="#fff" stroke="#fff" stroke-width=".53" stroke-opacity=".971"/><path style="marker:none" d="M214.358 47.876c-2.664-1.313-3.665-5.143-2.056-7.867.92-1.558 2.362-2.264 4.623-2.264 2.8 0 4.603 2.134 4.603 5.445 0 2.468-.92 3.946-2.994 4.813-1.905.796-2.33.783-4.176-.127zM222.824 31.84c-3.247-1.6-2.253-7.72.76-9.501 2.002-1.183 4.213-.194 6.34.695 3.735 1.56 4.108 7.662.224 9.139-1.741.661-5.668.483-7.324-.334zM244.935 33.918c-2.457-.306-3.296-.65-4.35-1.787-2.894-3.123-.544-8.685 4.77-8.685 2.054 0 3.488-.134 4.843 1.222 3.568 3.567.285 9.94-5.263 9.25zM245.894 49.798c-1.851-.913-3.306-3.357-3.306-5.554 0-2.62 1.944-4.255 5.353-4.502 2.333-.169 2.793-.054 4.06 1.012 1.057.89 1.507 1.728 1.732 3.23.734 4.896-3.433 7.986-7.839 5.814zM232.233 61.967c-.613-.482-1.367-1.72-1.676-2.75-1.352-4.512 2.516-8.282 6.985-6.807 2.842.938 3.672 4.02 2.046 7.601-1.293 2.848-4.976 3.828-7.355 1.956z" color="#fff" overflow="visible" fill="#fff" stroke="#fff" stroke-width=".454" stroke-opacity=".971"/></svg>