<svg xmlns="http://www.w3.org/2000/svg" width="316.3" height="284.319"><path style="marker:none" d="M264.275 281.252c-2.023.07-4.53-1.314-7.005-3.865-1.483-2.213-5.204-1.579-6.677-3.13-1.499-2.01-.978-5.761-.318-8.051.977-3.3 2.667-6.24 5.915-10.292.9-1.226 4.052-5.72 3.63-7.256-5.645.367-9.245 9.613-12.525 12.294-1.858 1.44-4.421 2.519-5.95 2.506-1.657-.014-2.423-.354-4.404-1.955-3.793-2.562-7.122-.844-9.803-5.94-.524-1.396.279-2.997.428-3.792 1.245-3.423 3.356-7.148 2.548-10.374-.78-2.864-.69-3.13 1.396-4.063 2.518-1.31 2.53-3.613 4.898-4.813 2.62-2.388 17.258.26 16.692-.846-3.979-5.406-11.995-5.371-16.297-9.872-1.283-1.493-1.646-2.919-1.142-4.497.423-1.324 1.962-2.786 4.17-3.958 1.798-.955 1.676-.827 2.257-2.388 1.367-3.782 2.819-4.901 5.793-6.791 1.84-1.18 3.424-1.79 5.416-1.382 2.964.607 5.095 1.13 6.336 1.553 3.235 1.029 6.76 3.254 8.425 5.57 1.282 2.588.74 4.178-.081 6.478-.594 1.66-.78 2.801-.868 5.32-.074 2.124-.29 3.59-.678 4.578-.754.724-2.832-5.571-3.583-6.676-1.342-1.89-2.293-2.728-4.727-4.165-1.879.804 1.616 6.652 1.757 8.367-.018.068-.715-.252-1.547-.71-2.564-1.415-4.745-2.107-6.522-2.07-1.431.03-1.483.138-.53 1.116.435.445 1.177 1.18 1.65 1.633 2.262 2.169 6.189 6.501 7.258 8.008 1.699 2.395 3.424 5.7 3.723 7.132l.12.575-.877-.341c-.766-.297-1.974-.64-3.82-1.082-3.579-.858-7.86-.293-11.216 1.48-.983.52-3.531 2.207-3.649 2.416 2.191 1.102 4.888.5 7.277.956 1.067.218 2.24.607 2.283.758-1.763 1.738-3.944 3.114-5.197 5.003-.715 1.136-1.332 3.259-1.055 3.631 4.962-3.905 11.162-6.25 16.687-6.875.535-.08.617-.055.69.207.127.455-.033.978-.593 1.936-.28.481-.945 1.833-1.476 3.005a98.58 98.58 0 0 1-1.56 3.296c-2.283 4.987-3.254 9.55-1.896 14.557 1.722-.503 2.583-2.407 3.23-3.562 1.013-1.849 1.738-2.728 2.381-6.093.557-2.916.644-3.24.853-3.18.07.02.357.857.637 1.857.715 2.556 1.307 3.665 2.193 4.106 2.49-1.433 1.363-5.353.974-7.169l-.108-.501.67.677c.876.803 2.565 3.59 3.053 2.22.627-4.565-1.15-6.317-2.157-10.54 4.478 3.978 8.658 7.751 11.259 12.898 1.102 2.22 1.85 5.093 1.776 6.821-.11 2.55-.88 5.085-1.88 6.192-2.202 2.081-5.09 1.217-7.417 2.667-1.852.961-2.817 2.974-4.508 4.1-1.603 1.012-4.895 2.268-6.31 2.316z" color="#fff" overflow="visible" fill="#fff" fill-opacity=".314" stroke="#fff" stroke-width=".128" stroke-opacity=".971"/><path style="marker:none" d="M295.774 265.759c-2.667.188-4.72-.9-6.217-3.294-.673-1.075-1.348-2.538-2.228-4.828-1.125-2.926-1.958-4.19-4.09-6.204-.838-.793-1.425-1.283-3.736-3.124-.486-.387-.748-.706-.612-.744.02-.006 1.012.173 2.205.397 2.706.507 3.556.786 5.363 1.757 1.405.756 2.74 1.261 3.612 1.366.687.083.785-.23.45-1.43-.24-.855-.354-1.065-.962-1.764-.777-.893-1.69-1.576-3.322-2.484-1.061-.59-1.428-.96-1.057-1.063.092-.026.656-.096 1.252-.156 1.108-.11 3.06.004 6 .353 2.176.258 3.44.312 3.65.157.484-.36-1.493-2.458-3-3.182-1.596-.767-3.4-1.175-5.714-1.295-.594-.03-1.179-.078-1.3-.106-.122-.028-1.506.052-3.076.175-1.57.124-2.882.215-2.916.203-.147-.054.101-.229 1.19-.838 2.335-1.307 5.1-2.424 8.019-3.24 5.391-1.506 10.423-2.018 13.65-1.388 1.117.219 2.781.848 3.844 1.456 1.802 1.03 2.955 2.214 4.332 4.45.526.854.683 1.227.893 2.126.283 1.212.225 1.88-.262 3.002-.44 1.018-.386 1.548.3 2.936.323.654.729 1.71.922 2.4.314 1.122.33 1.31.184 2.077-.235 1.227-1.232 2.961-2.16 3.758-.723.62-.763.639-2.23.998-3.336.816-3.79.972-4.428 1.516-.325.276-.929.994-1.342 1.595-1.408 2.047-2.942 3.16-5.421 3.936-.807.252-1.614.47-1.793.482zM288.947 230.008c-5.374.714-7.437 4.567-11.87 5.9-.162-.092.167-.712.96-1.808.49-.678 1.117-1.36 1.218-1.523.999-2.142 14.94-12.71 11.81-13.25-4.15.096-9.509 4.44-11.436 5.966-1.304 1.037-2.41 1.863-2.457 1.837-.203-.115.64-3.072 1.325-4.65.965-2.056 1.616-2.783 2.882-4.551 1.073-1.502 4.432-4.396 6.898-5.945 2.013-1.264 2.91-1.654 5.018-2.184 4.791-1.204 8.77-.432 11.587 2.246 1.347 1.28 1.83 1.55.923 3.892l-.753 1.945s-.555.352.537 1.904c1.584 2.252.926 1.202 1.584 2.252 1.108 1.768 1.231 2.242 1.304 3.34-.142 2.572-.421 5.815-2.62 4.72-4.842-1.769-11.517-2.146-16.91-.091z" color="#fff" overflow="visible" fill="#fff" fill-opacity=".314" stroke="#fff" stroke-width=".128" stroke-opacity=".971"/><path style="marker:none" d="M270.377 241.272c-1.917-.273-2.468-3.712-1.14-9.612 1.915-7.413 3.176-14.325 7.3-20.516 1.077-1.592 3.26-4.386 3.476-4.446.172-.048.229.187.079.33-.144.138-1.713 4.035-2.625 6.518-2.4 5.693-3.067 10.744-3.545 16.51-.17 2.014-.684 6.938-.92 8.01-.298 1.316-.869 3.414-2.625 3.206z" color="#fff" overflow="visible" fill="#fff" fill-opacity=".314" stroke="#fff" stroke-width=".15" stroke-opacity=".971"/><path style="marker:none" d="M275.934 208.862c-.824-.154-1.387-1.119-1.157-1.981.131-.494.47-.795 1.084-.967.761-.213 1.414.23 1.665 1.13.188.67.05 1.142-.448 1.535-.457.361-.573.39-1.144.283zM277.015 203.86c-1.004-.187-1.199-1.926-.515-2.64.454-.473 1.13-.372 1.776-.292 1.133.14 1.699 1.77.755 2.466-.423.313-1.503.562-2.015.467zM283.183 202.745c-.691.103-.946.073-1.318-.155-1.024-.63-.808-2.32.636-2.723.558-.156.938-.302 1.409-.036 1.24.698.833 2.68-.727 2.914zM284.65 206.987c-.572-.107-1.153-.66-1.32-1.258-.2-.712.205-1.304 1.112-1.63.621-.223.755-.227 1.18-.034.355.162.541.355.717.747.571 1.274-.326 2.43-1.689 2.175zM281.863 211.333c-.204-.084-.503-.363-.665-.62-.71-1.123.054-2.442 1.381-2.38.844.038 1.303.813 1.134 1.91-.135.872-1.062 1.418-1.85 1.09zM264.275 281.252c-2.023.07-4.53-1.314-7.005-3.865-1.483-2.213-5.204-1.579-6.677-3.13-1.499-2.01-.978-5.761-.318-8.051.977-3.3 2.667-6.24 5.915-10.292.9-1.226 4.052-5.72 3.63-7.256-5.645.367-9.245 9.613-12.525 12.294-1.858 1.44-4.421 2.519-5.95 2.506-1.657-.014-2.423-.354-4.404-1.955-3.793-2.562-7.122-.844-9.803-5.94-.524-1.396.279-2.997.428-3.792 1.245-3.423 3.356-7.148 2.548-10.374-.78-2.864-.69-3.13 1.396-4.063 2.518-1.31 2.53-3.613 4.898-4.813 2.62-2.388 17.258.26 16.692-.846-3.979-5.406-11.995-5.371-16.297-9.872-1.283-1.493-1.646-2.919-1.142-4.497.423-1.324 1.962-2.786 4.17-3.958 1.798-.955 1.676-.827 2.257-2.388 1.367-3.782 2.819-4.901 5.793-6.791 1.84-1.18 3.424-1.79 5.416-1.382 2.964.607 5.095 1.13 6.336 1.553 3.235 1.029 6.76 3.254 8.425 5.57 1.282 2.588.74 4.178-.081 6.478-.594 1.66-.78 2.801-.868 5.32-.074 2.124-.29 3.59-.678 4.578-.754.724-2.832-5.571-3.583-6.676-1.342-1.89-2.293-2.728-4.727-4.165-1.879.804 1.616 6.652 1.757 8.367-.018.068-.715-.252-1.547-.71-2.564-1.415-4.745-2.107-6.522-2.07-1.431.03-1.483.138-.53 1.116.435.445 1.177 1.18 1.65 1.633 2.262 2.169 6.189 6.501 7.258 8.008 1.699 2.395 3.424 5.7 3.723 7.132l.12.575-.877-.341c-.766-.297-1.974-.64-3.82-1.082-3.579-.858-7.86-.293-11.216 1.48-.983.52-3.531 2.207-3.649 2.416 2.191 1.102 4.888.5 7.277.956 1.067.218 2.24.607 2.283.758-1.763 1.738-3.944 3.114-5.197 5.003-.715 1.136-1.332 3.259-1.055 3.631 4.962-3.905 11.162-6.25 16.687-6.875.535-.08.617-.055.69.207.127.455-.033.978-.593 1.936-.28.481-.945 1.833-1.476 3.005a98.58 98.58 0 0 1-1.56 3.296c-2.283 4.987-3.254 9.55-1.896 14.557 1.722-.503 2.583-2.407 3.23-3.562 1.013-1.849 1.738-2.728 2.381-6.093.557-2.916.644-3.24.853-3.18.07.02.357.857.637 1.857.715 2.556 1.307 3.665 2.193 4.106 2.49-1.433 1.363-5.353.974-7.169l-.108-.501.67.677c.876.803 2.565 3.59 3.053 2.22.627-4.565-1.15-6.317-2.157-10.54 4.478 3.978 8.658 7.751 11.259 12.898 1.102 2.22 1.85 5.093 1.776 6.821-.11 2.55-.88 5.085-1.88 6.192-2.202 2.081-5.09 1.217-7.417 2.667-1.852.961-2.817 2.974-4.508 4.1-1.603 1.012-4.895 2.268-6.31 2.316z" color="#fff" overflow="visible" fill="#fff" fill-opacity=".314" stroke="#fff" stroke-width=".128" stroke-opacity=".971"/><path d="M295.774 265.759c-2.667.188-4.72-.9-6.217-3.294-.673-1.075-1.348-2.538-2.228-4.828-1.125-2.926-1.958-4.19-4.09-6.204-.838-.793-1.425-1.283-3.736-3.124-.486-.387-.748-.706-.612-.744.02-.006 1.012.173 2.205.397 2.706.507 3.556.786 5.363 1.757 1.405.756 2.74 1.261 3.612 1.366.687.083.785-.23.45-1.43-.24-.855-.354-1.065-.962-1.764-.777-.893-1.69-1.576-3.322-2.484-1.061-.59-1.428-.96-1.057-1.063.092-.026.656-.096 1.252-.156 1.108-.11 3.06.004 6 .353 2.176.258 3.44.312 3.65.157.484-.36-1.493-2.458-3-3.182-1.596-.767-3.4-1.175-5.714-1.295-.594-.03-1.179-.078-1.3-.106-.122-.028-1.506.052-3.076.175-1.57.124-2.882.215-2.916.203-.147-.054.101-.229 1.19-.838 2.335-1.307 5.1-2.424 8.019-3.24 5.391-1.506 10.423-2.018 13.65-1.388 1.117.219 2.781.848 3.844 1.456 1.802 1.03 2.955 2.214 4.332 4.45.526.854.683 1.227.893 2.126.283 1.212.225 1.88-.262 3.002-.44 1.018-.386 1.548.3 2.936.323.654.729 1.71.922 2.4.314 1.122.33 1.31.184 2.077-.235 1.227-1.232 2.961-2.16 3.758-.723.62-.763.639-2.23.998-3.336.816-3.79.972-4.428 1.516-.325.276-.929.994-1.342 1.595-1.408 2.047-2.942 3.16-5.421 3.936-.807.252-1.614.47-1.793.482zM288.947 230.008c-5.374.714-7.437 4.567-11.87 5.9-.162-.092.167-.712.96-1.808.49-.678 1.117-1.36 1.218-1.523.999-2.142 14.94-12.71 11.81-13.25-4.15.096-9.509 4.44-11.436 5.966-1.304 1.037-2.41 1.863-2.457 1.837-.203-.115.64-3.072 1.325-4.65.965-2.056 1.616-2.783 2.882-4.551 1.073-1.502 4.432-4.396 6.898-5.945 2.013-1.264 2.91-1.654 5.018-2.184 4.791-1.204 8.77-.432 11.587 2.246 1.347 1.28 1.83 1.55.923 3.892l-.753 1.945s-.555.352.537 1.904c1.584 2.252.926 1.202 1.584 2.252 1.108 1.768 1.231 2.242 1.304 3.34-.142 2.572-.421 5.815-2.62 4.72-4.842-1.769-11.517-2.146-16.91-.091z" style="marker:none" color="#fff" overflow="visible" fill="#fff" fill-opacity=".314" stroke="#fff" stroke-width=".128" stroke-opacity=".971"/><path d="M270.377 241.272c-1.917-.273-2.468-3.712-1.14-9.612 1.915-7.413 3.176-14.325 7.3-20.516 1.077-1.592 3.26-4.386 3.476-4.446.172-.048.229.187.079.33-.144.138-1.713 4.035-2.625 6.518-2.4 5.693-3.067 10.744-3.545 16.51-.17 2.014-.684 6.938-.92 8.01-.298 1.316-.869 3.414-2.625 3.206z" style="marker:none" color="#fff" overflow="visible" fill="#fff" fill-opacity=".314" stroke="#fff" stroke-width=".15" stroke-opacity=".971"/><path d="M275.934 208.862c-.824-.154-1.387-1.119-1.157-1.981.131-.494.47-.795 1.084-.967.761-.213 1.414.23 1.665 1.13.188.67.05 1.142-.448 1.535-.457.361-.573.39-1.144.283zM277.015 203.86c-1.004-.187-1.199-1.926-.515-2.64.454-.473 1.13-.372 1.776-.292 1.133.14 1.699 1.77.755 2.466-.423.313-1.503.562-2.015.467zM283.183 202.745c-.691.103-.946.073-1.318-.155-1.024-.63-.808-2.32.636-2.723.558-.156.938-.302 1.409-.036 1.24.698.833 2.68-.727 2.914zM284.65 206.987c-.572-.107-1.153-.66-1.32-1.258-.2-.712.205-1.304 1.112-1.63.621-.223.755-.227 1.18-.034.355.162.541.355.717.747.571 1.274-.326 2.43-1.689 2.175zM281.863 211.333c-.204-.084-.503-.363-.665-.62-.71-1.123.054-2.442 1.381-2.38.844.038 1.303.813 1.134 1.91-.135.872-1.062 1.418-1.85 1.09z" style="marker:none" color="#fff" overflow="visible" fill="#fff" fill-opacity=".314" stroke="#fff" stroke-width=".128" stroke-opacity=".971"/><path d="M187.14 225.946c-2.742.734-6.606-.362-10.797-3.065-2.727-2.554-7.612-.51-10.115-2.162-2.686-2.273-3.162-7.564-2.986-10.903.291-4.82 1.67-9.372 4.825-15.938.84-1.96 3.725-9.102 2.663-11.066-7.598 2.289-9.59 16.065-13.224 20.768-2.084 2.555-5.245 4.842-7.338 5.31-2.269.505-3.423.283-6.638-1.279-5.995-2.299-10 1.103-15.278-5.013-1.158-1.74-.568-4.184-.615-5.317.617-5.073 2.321-10.832.197-14.985-1.975-3.667-1.934-4.058.62-5.994 3.026-2.59 2.313-5.739 5.17-8.129 2.823-4.093 23.668-5.11 22.543-6.443-7.15-6.128-18.094-3.542-25.397-8.33-2.227-1.633-3.174-3.468-2.986-5.783.158-1.945 1.8-4.43 4.445-6.731 2.155-1.875 2.03-1.661 2.329-3.978.67-5.602 2.3-7.591 5.766-11.116 2.142-2.195 4.113-3.53 6.965-3.604 4.243-.109 7.32-.07 9.151.117 4.746.38 10.27 2.305 13.277 4.943 2.572 3.132 2.335 5.476 1.94 8.88-.286 2.456-.179 4.074.5 7.545.571 2.925.74 4.998.523 6.471-.802 1.228-5.635-6.717-7.01-7.99-2.434-2.158-3.998-3-7.78-4.194-2.313 1.693 4.315 8.58 5.051 10.878-.003.099-1.057-.118-2.34-.481-3.952-1.121-7.151-1.376-9.568-.763-1.947.493-1.983.659-.371 1.692.735.472 1.982 1.241 2.77 1.71 3.78 2.248 10.519 6.925 12.457 8.646 3.08 2.735 6.486 6.706 7.347 8.568l.346.747-1.307-.188c-1.14-.164-2.9-.249-5.564-.27-5.162-.039-10.835 2.09-14.859 5.577-1.178 1.02-4.127 4.134-4.221 4.456 3.344.812 6.838-.866 10.247-.998 1.528-.04 3.253.121 3.36.313-1.858 2.933-4.403 5.505-5.517 8.484-.618 1.778-.789 4.875-.292 5.296 5.544-6.909 13.275-12.078 20.628-14.68.706-.278.825-.27 1.008.064.318.582.265 1.347-.197 2.833-.232.746-.711 2.805-1.065 4.575s-.845 4.02-1.09 4.998c-1.54 7.538-1.421 14.082 2.02 20.495 2.194-1.233 2.768-4.108 3.285-5.892.8-2.847 1.513-4.278 1.326-9.08-.163-4.162-.147-4.632.159-4.615.102.005.759 1.056 1.458 2.335 1.787 3.266 2.947 4.594 4.297 4.917 2.95-2.747.169-7.747-.938-10.106l-.308-.65 1.131.712c1.452.82 4.642 4.095 4.876 2.068-.59-6.437-3.574-8.269-6.287-13.722 7.38 4.018 14.288 7.851 19.472 14.061 2.21 2.684 4.143 6.375 4.588 8.76.657 3.52.408 7.228-.608 9.057-2.352 3.542-6.573 3.275-9.292 5.995-2.227 1.9-2.908 4.955-4.863 7.03-1.87 1.89-5.971 4.65-7.89 5.164z" style="marker:none" color="#fff" overflow="visible" fill="#fff" fill-opacity=".314" stroke="#fff" stroke-width=".18" stroke-opacity=".971"/><path d="M225.281 194.796c-3.584 1.102-6.734.266-9.54-2.532-1.26-1.257-2.646-3.042-4.573-5.893-2.464-3.643-4.003-5.107-7.553-7.184-1.397-.817-2.354-1.302-6.096-3.086-.787-.375-1.246-.727-1.072-.822.026-.014 1.438-.084 3.139-.157 3.86-.163 5.11-.052 7.886.704 2.159.588 4.145.855 5.368.723.965-.105 1.001-.564.163-2.097-.598-1.094-.82-1.344-1.873-2.106-1.345-.975-2.81-1.62-5.327-2.343-1.637-.47-2.256-.859-1.782-1.118.119-.065.867-.34 1.663-.61 1.478-.501 4.183-.963 8.31-1.418 3.057-.337 4.801-.663 5.037-.94.55-.647-2.817-2.887-5.106-3.4-2.424-.542-5.019-.53-8.219.04-.82.147-1.636.267-1.81.268-.175 0-2.042.547-4.148 1.213-2.107.666-3.872 1.206-3.922 1.2-.218-.027.066-.344 1.362-1.522 2.777-2.526 6.202-4.928 9.932-6.967 6.891-3.766 13.606-6.059 18.214-6.22 1.597-.055 4.071.279 5.715.772 2.79.836 4.74 2.09 7.33 4.71.99 1 1.323 1.461 1.894 2.623.77 1.566.903 2.497.593 4.185-.28 1.53-.038 2.238 1.34 3.917.649.792 1.538 2.107 2.02 2.99.784 1.433.866 1.685.909 2.779.068 1.75-.745 4.437-1.762 5.82-.79 1.077-.84 1.114-2.73 2.07-4.302 2.172-4.873 2.528-5.573 3.474-.356.48-.954 1.653-1.329 2.605-1.275 3.243-3.019 5.25-6.162 7.096-1.022.6-2.057 1.152-2.298 1.226zM204.629 148.1c-7.118 2.677-8.717 8.597-14.352 11.822-.252-.074.001-1.026.739-2.775.455-1.082 1.096-2.212 1.181-2.467.687-3.244 16.394-22.101 11.945-21.85-5.641 1.447-11.59 9.08-13.74 11.777-1.454 1.83-2.703 3.31-2.775 3.289-.315-.093-.1-4.401.337-6.776.668-3.114 1.327-4.313 2.498-7.132.99-2.392 4.664-7.41 7.544-10.308 2.35-2.365 3.453-3.183 6.167-4.575 6.166-3.161 11.847-3.367 16.546-.6 2.246 1.324 2.99 1.54 2.494 5.027l-.413 2.897s-.647.656 1.337 2.432c2.877 2.576 1.645 1.35 2.877 2.576 2.075 2.065 2.393 2.674 2.84 4.151.62 3.56 1.266 8.08-2.085 7.28-7.178-.883-16.42.716-23.14 5.232z" style="marker:none" color="#fff" overflow="visible" fill="#fff" fill-opacity=".314" stroke="#fff" stroke-width=".18" stroke-opacity=".971"/><path d="M182.818 169.374c-2.706.235-4.549-4.291-4.601-12.774.269-10.737-.196-20.583 3.48-30.35.966-2.517 3.066-7.027 3.34-7.178.221-.12.373.184.213.428-.152.232-1.063 6.056-1.523 9.737-1.477 8.54-.789 15.655.384 23.688.407 2.804 1.263 9.697 1.28 11.236.008 1.894-.107 4.942-2.573 5.213z" style="marker:none" color="#fff" overflow="visible" fill="#fff" fill-opacity=".314" stroke="#fff" stroke-width=".21" stroke-opacity=".971"/><path d="M180.149 123.322c-1.175.05-2.25-1.09-2.209-2.341.024-.716.39-1.236 1.176-1.665.972-.532 2.004-.133 2.633 1.017.469.857.43 1.545-.126 2.24-.51.639-.66.715-1.474.75zM180.043 116.144c-1.432.061-2.25-2.253-1.54-3.444.47-.791 1.426-.867 2.333-.963 1.594-.167 2.883 1.88 1.814 3.132-.479.56-1.877 1.244-2.607 1.275zM188.118 112.666c-.912.36-1.269.4-1.85.206-1.6-.535-1.84-2.914.007-3.923.713-.39 1.186-.709 1.914-.496 1.917.562 1.987 3.399-.071 4.213zM191.467 118c-.816.034-1.786-.538-2.203-1.301-.498-.91-.133-1.848 1.004-2.58.778-.503.96-.55 1.602-.42.536.107.852.313 1.216.792 1.184 1.561.324 3.426-1.619 3.509zM189.034 124.821c-.305-.05-.802-.337-1.105-.636-1.326-1.311-.699-3.355 1.133-3.692 1.166-.214 2.04.7 2.155 2.252.092 1.235-1.001 2.274-2.183 2.076z" style="marker:none" color="#fff" overflow="visible" fill="#fff" fill-opacity=".314" stroke="#fff" stroke-width=".18" stroke-opacity=".971"/><path style="marker:none" d="M182.818 169.374c-2.706.235-4.549-4.291-4.601-12.774.269-10.737-.196-20.583 3.48-30.35.966-2.517 3.066-7.027 3.34-7.178.221-.12.373.184.213.428-.152.232-1.063 6.056-1.523 9.737-1.477 8.54-.789 15.655.384 23.688.407 2.804 1.263 9.697 1.28 11.236.008 1.894-.107 4.942-2.573 5.213z" color="#fff" overflow="visible" fill="#fff" fill-opacity=".314" stroke="#fff" stroke-width=".21" stroke-opacity=".971"/><path style="marker:none" d="M180.149 123.322c-1.175.05-2.25-1.09-2.209-2.341.024-.716.39-1.236 1.176-1.665.972-.532 2.004-.133 2.633 1.017.469.857.43 1.545-.126 2.24-.51.639-.66.715-1.474.75zM180.043 116.144c-1.432.061-2.25-2.253-1.54-3.444.47-.791 1.426-.867 2.333-.963 1.594-.167 2.883 1.88 1.814 3.132-.479.56-1.877 1.244-2.607 1.275zM188.118 112.666c-.912.36-1.269.4-1.85.206-1.6-.535-1.84-2.914.007-3.923.713-.39 1.186-.709 1.914-.496 1.917.562 1.987 3.399-.071 4.213zM191.467 118c-.816.034-1.786-.538-2.203-1.301-.498-.91-.133-1.848 1.004-2.58.778-.503.96-.55 1.602-.42.536.107.852.313 1.216.792 1.184 1.561.324 3.426-1.619 3.509zM189.034 124.821c-.305-.05-.802-.337-1.105-.636-1.326-1.311-.699-3.355 1.133-3.692 1.166-.214 2.04.7 2.155 2.252.092 1.235-1.001 2.274-2.183 2.076z" color="#fff" overflow="visible" fill="#fff" fill-opacity=".314" stroke="#fff" stroke-width=".18" stroke-opacity=".971"/><path d="M106.316 155.555c-.503 1.522-2.217 3.006-4.792 4.147-2.05.495-2.599 3.435-4.155 4.104-1.905.563-4.55-.852-6.07-1.97-2.185-1.63-3.907-3.691-6.028-7.215-.665-1.004-3.142-4.578-4.398-4.686-1.274 4.296 4.61 9.504 5.705 12.677.56 1.775.66 3.975.232 5.108-.464 1.228-.927 1.704-2.66 2.737-2.943 2.117-2.578 5.062-7.1 5.657-1.18.007-2.151-1.028-2.7-1.356-2.204-1.864-4.393-4.452-7.012-4.737-2.342-.204-2.514-.344-2.637-2.15-.284-2.23-1.992-2.87-2.235-4.958-1.057-2.601 4.923-12.755 3.945-12.637-5.108 1.476-7.278 7.443-11.802 9.406-1.46.545-2.62.423-3.654-.383-.869-.677-1.533-2.221-1.8-4.183-.217-1.598-.155-1.473-1.156-2.332-2.435-2.052-2.87-3.438-3.46-6.166-.372-1.69-.39-3.035.458-4.404 1.263-2.036 2.235-3.477 2.89-4.283 1.65-2.122 4.27-4.132 6.447-4.734 2.275-.244 3.309.594 4.792 1.835 1.071.896 1.868 1.347 3.717 2.102 1.557.637 2.588 1.2 3.216 1.758.331.76-4.916.579-5.943.834-1.773.48-2.655.957-4.39 2.372.082 1.616 5.386.622 6.7.986.044.033-.384.463-.953.955-1.754 1.519-2.865 2.95-3.325 4.28-.37 1.072-.303 1.14.684.7.45-.201 1.2-.551 1.665-.778 2.232-1.088 6.528-2.819 7.94-3.2 2.246-.607 5.175-.983 6.32-.813l.46.068-.493.559c-.43.487-1.016 1.292-1.851 2.542-1.618 2.424-2.371 5.762-1.972 8.741.116.872.672 3.229.795 3.373 1.42-1.326 1.71-3.495 2.704-5.145.455-.734 1.065-1.498 1.19-1.49.807 1.787 1.233 3.784 2.293 5.234.648.842 2.057 1.882 2.41 1.778-1.543-4.757-1.587-10.008-.537-14.285.087-.419.127-.473.342-.455.373.03.718.292 1.276.97.28.341 1.104 1.205 1.83 1.921a78.078 78.078 0 0 1 2.02 2.063c3.082 3.062 6.207 5.034 10.3 5.397.098-1.417-1.081-2.58-1.763-3.376-1.096-1.26-1.55-2.04-3.875-3.44-2.015-1.212-2.231-1.365-2.129-1.504.034-.047.734-.031 1.554.035 2.095.169 3.082.033 3.653-.505-.384-2.243-3.605-2.48-5.061-2.688l-.403-.057.687-.313c.837-.43 3.371-.922 2.487-1.66-3.22-1.716-5.01-.876-8.425-1.285 4.184-2.238 8.133-4.31 12.67-4.833 1.952-.211 4.293.02 5.557.549 1.864.78 3.538 2.047 4.086 3.093.943 2.208-.49 4.117-.05 6.243.207 1.64 1.438 2.908 1.812 4.474.312 1.469.344 4.259-.008 5.323z" style="marker:none" color="#fff" overflow="visible" fill="#fff" fill-opacity=".314" stroke="#fff" stroke-width=".101" stroke-opacity=".971"/><path d="M103.433 127.902c-.59 2.033-1.962 3.26-4.151 3.717-.984.206-2.256.307-4.199.333-2.483.034-3.65.307-5.731 1.339-.819.406-1.344.708-3.345 1.92-.421.256-.73.364-.72.252 0-.016.405-.705.898-1.53 1.119-1.872 1.559-2.427 2.776-3.504.946-.837 1.687-1.691 2.004-2.31.25-.488.044-.647-.939-.726-.701-.057-.889-.03-1.574.231-.877.333-1.635.825-2.757 1.789-.73.627-1.104.798-1.08.494.006-.076.109-.514.228-.974.221-.853.842-2.273 1.906-4.361.788-1.547 1.174-2.472 1.116-2.67-.135-.459-2.235.436-3.186 1.358-1.007.976-1.805 2.204-2.528 3.891-.185.433-.381.855-.435.938-.053.082-.374 1.132-.712 2.333-.339 1.2-.63 2.201-.649 2.223-.08.094-.142-.138-.297-1.114-.331-2.094-.404-4.455-.21-6.847.358-4.42 1.356-8.299 2.708-10.524.469-.77 1.393-1.835 2.135-2.458 1.26-1.057 2.455-1.59 4.494-2 .78-.157 1.1-.172 1.825-.081.978.121 1.459.348 2.16 1.017.635.606 1.044.711 2.263.581a12.99 12.99 0 0 1 2.037-.027c.92.074 1.064.113 1.593.432.848.51 1.864 1.727 2.202 2.635.263.707.265.742.13 1.93-.307 2.704-.316 3.083-.087 3.707.117.317.485.962.818 1.434 1.136 1.607 1.543 3.052 1.44 5.107-.034.669-.094 1.328-.133 1.465zM74.993 123.18c-.941 4.189 1.357 6.778 1.134 10.437-.113.096-.484-.319-1.081-1.209-.37-.55-.705-1.202-.799-1.322-1.318-1.33-5.351-14.586-6.61-12.407-1.066 3.11.694 8.283 1.3 10.133.413 1.254.724 2.302.692 2.33-.141.12-2.108-1.317-3.093-2.26-1.263-1.28-1.625-1.962-2.592-3.388-.822-1.209-2.053-4.498-2.528-6.755-.388-1.842-.432-2.616-.248-4.328.418-3.89 2.081-6.635 4.843-7.995 1.321-.65 1.654-.935 3.145.38l1.24 1.093s.11.509 1.562.123c2.107-.56 1.147-.359 2.107-.56 1.618-.34 2.004-.301 2.84-.055 1.872.81 4.206 1.907 2.79 3.24-2.641 3.115-4.75 7.972-4.702 12.543z" style="marker:none" color="#fff" overflow="visible" fill="#fff" fill-opacity=".314" stroke="#fff" stroke-width=".101" stroke-opacity=".971"/><path d="M78.277 140.066c-.728 1.35-3.435.817-7.456-1.787-4.984-3.453-9.775-6.285-13.246-11.046-.888-1.236-2.366-3.624-2.352-3.8.011-.142.202-.12.267.031.063.144 2.53 2.379 4.124 3.737 3.574 3.343 7.145 5.222 11.3 7.158 1.449.677 4.967 2.409 5.699 2.878.897.582 2.3 1.58 1.664 2.829z" style="marker:none" color="#fff" overflow="visible" fill="#fff" fill-opacity=".314" stroke="#fff" stroke-width=".118" stroke-opacity=".971"/><path d="M55.714 127.057c-.34.57-1.212.724-1.79.316-.33-.233-.462-.566-.421-1.07.05-.624.558-.988 1.296-.928.55.044.862.276 1.018.753.143.44.133.534-.103.929zM52.293 124.882c-.415.695-1.76.363-2.103-.34-.227-.467.033-.942.27-1.4.414-.804 1.78-.777 2.04.115.115.4.005 1.27-.207 1.625zM53.154 119.993c-.112.542-.204.723-.476.937-.748.59-1.945-.034-1.85-1.218.037-.458.033-.78.36-1.057.858-.731 2.22.115 1.966 1.338zM56.709 120.065c-.237.396-.807.676-1.297.637-.584-.047-.913-.51-.907-1.274.005-.522.039-.623.299-.886.217-.22.412-.305.75-.328 1.104-.075 1.718.909 1.155 1.851zM59.175 123.328c-.119.127-.408.273-.643.323-1.03.22-1.8-.709-1.391-1.678.26-.616.961-.746 1.73-.32.611.34.763 1.178.304 1.675zM106.316 155.555c-.503 1.522-2.217 3.006-4.792 4.147-2.05.495-2.599 3.435-4.155 4.104-1.905.563-4.55-.852-6.07-1.97-2.185-1.63-3.907-3.691-6.028-7.215-.665-1.004-3.142-4.578-4.398-4.686-1.274 4.296 4.61 9.504 5.705 12.677.56 1.775.66 3.975.232 5.108-.464 1.228-.927 1.704-2.66 2.737-2.943 2.117-2.578 5.062-7.1 5.657-1.18.007-2.151-1.028-2.7-1.356-2.204-1.864-4.393-4.452-7.012-4.737-2.342-.204-2.514-.344-2.637-2.15-.284-2.23-1.992-2.87-2.235-4.958-1.057-2.601 4.923-12.755 3.945-12.637-5.108 1.476-7.278 7.443-11.802 9.406-1.46.545-2.62.423-3.654-.383-.869-.677-1.533-2.221-1.8-4.183-.217-1.598-.155-1.473-1.156-2.332-2.435-2.052-2.87-3.438-3.46-6.166-.372-1.69-.39-3.035.458-4.404 1.263-2.036 2.235-3.477 2.89-4.283 1.65-2.122 4.27-4.132 6.447-4.734 2.275-.244 3.309.594 4.792 1.835 1.071.896 1.868 1.347 3.717 2.102 1.557.637 2.588 1.2 3.216 1.758.331.76-4.916.579-5.943.834-1.773.48-2.655.957-4.39 2.372.082 1.616 5.386.622 6.7.986.044.033-.384.463-.953.955-1.754 1.519-2.865 2.95-3.325 4.28-.37 1.072-.303 1.14.684.7.45-.201 1.2-.551 1.665-.778 2.232-1.088 6.528-2.819 7.94-3.2 2.246-.607 5.175-.983 6.32-.813l.46.068-.493.559c-.43.487-1.016 1.292-1.851 2.542-1.618 2.424-2.371 5.762-1.972 8.741.116.872.672 3.229.795 3.373 1.42-1.326 1.71-3.495 2.704-5.145.455-.734 1.065-1.498 1.19-1.49.807 1.787 1.233 3.784 2.293 5.234.648.842 2.057 1.882 2.41 1.778-1.543-4.757-1.587-10.008-.537-14.285.087-.419.127-.473.342-.455.373.03.718.292 1.276.97.28.341 1.104 1.205 1.83 1.921a78.078 78.078 0 0 1 2.02 2.063c3.082 3.062 6.207 5.034 10.3 5.397.098-1.417-1.081-2.58-1.763-3.376-1.096-1.26-1.55-2.04-3.875-3.44-2.015-1.212-2.231-1.365-2.129-1.504.034-.047.734-.031 1.554.035 2.095.169 3.082.033 3.653-.505-.384-2.243-3.605-2.48-5.061-2.688l-.403-.057.687-.313c.837-.43 3.371-.922 2.487-1.66-3.22-1.716-5.01-.876-8.425-1.285 4.184-2.238 8.133-4.31 12.67-4.833 1.952-.211 4.293.02 5.557.549 1.864.78 3.538 2.047 4.086 3.093.943 2.208-.49 4.117-.05 6.243.207 1.64 1.438 2.908 1.812 4.474.312 1.469.344 4.259-.008 5.323z" style="marker:none" color="#fff" overflow="visible" fill="#fff" fill-opacity=".314" stroke="#fff" stroke-width=".101" stroke-opacity=".971"/><path style="marker:none" d="M103.433 127.902c-.59 2.033-1.962 3.26-4.151 3.717-.984.206-2.256.307-4.199.333-2.483.034-3.65.307-5.731 1.339-.819.406-1.344.708-3.345 1.92-.421.256-.73.364-.72.252 0-.016.405-.705.898-1.53 1.119-1.872 1.559-2.427 2.776-3.504.946-.837 1.687-1.691 2.004-2.31.25-.488.044-.647-.939-.726-.701-.057-.889-.03-1.574.231-.877.333-1.635.825-2.757 1.789-.73.627-1.104.798-1.08.494.006-.076.109-.514.228-.974.221-.853.842-2.273 1.906-4.361.788-1.547 1.174-2.472 1.116-2.67-.135-.459-2.235.436-3.186 1.358-1.007.976-1.805 2.204-2.528 3.891-.185.433-.381.855-.435.938-.053.082-.374 1.132-.712 2.333-.339 1.2-.63 2.201-.649 2.223-.08.094-.142-.138-.297-1.114-.331-2.094-.404-4.455-.21-6.847.358-4.42 1.356-8.299 2.708-10.524.469-.77 1.393-1.835 2.135-2.458 1.26-1.057 2.455-1.59 4.494-2 .78-.157 1.1-.172 1.825-.081.978.121 1.459.348 2.16 1.017.635.606 1.044.711 2.263.581a12.99 12.99 0 0 1 2.037-.027c.92.074 1.064.113 1.593.432.848.51 1.864 1.727 2.202 2.635.263.707.265.742.13 1.93-.307 2.704-.316 3.083-.087 3.707.117.317.485.962.818 1.434 1.136 1.607 1.543 3.052 1.44 5.107-.034.669-.094 1.328-.133 1.465zM74.993 123.18c-.941 4.189 1.357 6.778 1.134 10.437-.113.096-.484-.319-1.081-1.209-.37-.55-.705-1.202-.799-1.322-1.318-1.33-5.351-14.586-6.61-12.407-1.066 3.11.694 8.283 1.3 10.133.413 1.254.724 2.302.692 2.33-.141.12-2.108-1.317-3.093-2.26-1.263-1.28-1.625-1.962-2.592-3.388-.822-1.209-2.053-4.498-2.528-6.755-.388-1.842-.432-2.616-.248-4.328.418-3.89 2.081-6.635 4.843-7.995 1.321-.65 1.654-.935 3.145.38l1.24 1.093s.11.509 1.562.123c2.107-.56 1.147-.359 2.107-.56 1.618-.34 2.004-.301 2.84-.055 1.872.81 4.206 1.907 2.79 3.24-2.641 3.115-4.75 7.972-4.702 12.543z" color="#fff" overflow="visible" fill="#fff" fill-opacity=".314" stroke="#fff" stroke-width=".101" stroke-opacity=".971"/><path style="marker:none" d="M78.277 140.066c-.728 1.35-3.435.817-7.456-1.787-4.984-3.453-9.775-6.285-13.246-11.046-.888-1.236-2.366-3.624-2.352-3.8.011-.142.202-.12.267.031.063.144 2.53 2.379 4.124 3.737 3.574 3.343 7.145 5.222 11.3 7.158 1.449.677 4.967 2.409 5.699 2.878.897.582 2.3 1.58 1.664 2.829z" color="#fff" overflow="visible" fill="#fff" fill-opacity=".314" stroke="#fff" stroke-width=".118" stroke-opacity=".971"/><path style="marker:none" d="M55.714 127.057c-.34.57-1.212.724-1.79.316-.33-.233-.462-.566-.421-1.07.05-.624.558-.988 1.296-.928.55.044.862.276 1.018.753.143.44.133.534-.103.929zM52.293 124.882c-.415.695-1.76.363-2.103-.34-.227-.467.033-.942.27-1.4.414-.804 1.78-.777 2.04.115.115.4.005 1.27-.207 1.625zM53.154 119.993c-.112.542-.204.723-.476.937-.748.59-1.945-.034-1.85-1.218.037-.458.033-.78.36-1.057.858-.731 2.22.115 1.966 1.338zM56.709 120.065c-.237.396-.807.676-1.297.637-.584-.047-.913-.51-.907-1.274.005-.522.039-.623.299-.886.217-.22.412-.305.75-.328 1.104-.075 1.718.909 1.155 1.851zM59.175 123.328c-.119.127-.408.273-.643.323-1.03.22-1.8-.709-1.391-1.678.26-.616.961-.746 1.73-.32.611.34.763 1.178.304 1.675z" color="#fff" overflow="visible" fill="#fff" fill-opacity=".314" stroke="#fff" stroke-width=".101" stroke-opacity=".971"/><path d="M252.832 101.92c-1.708 1.085-4.57 1.163-7.997.22-2.4-1.156-5.286 1.277-7.342.686-2.312-.972-3.764-4.47-4.356-6.778-.83-3.34-.864-6.73-.119-11.87.154-1.513.592-6.985-.55-8.095-4.68 3.178-3.095 12.973-4.563 16.947-.872 2.183-2.534 4.413-3.858 5.176-1.436.829-2.268.924-4.788.548-4.568-.285-6.567 2.883-11.461-.151-1.16-.937-1.28-2.725-1.553-3.485-.663-3.582-.732-7.862-3.063-10.234-2.125-2.073-2.181-2.348-.857-4.21 1.506-2.406.349-4.396 1.782-6.631 1.047-3.387 15.008-8.525 13.959-9.192-6.17-2.643-13.062 1.451-19.052-.248-1.863-.635-2.898-1.681-3.264-3.296-.307-1.356.279-3.396 1.587-5.526 1.066-1.735 1.026-1.563.735-3.203-.738-3.953-.054-5.654 1.55-8.79.99-1.95 2.045-3.279 3.97-3.937 2.862-.98 4.964-1.61 6.248-1.874 3.31-.753 7.477-.622 10.085.53 2.418 1.581 2.757 3.226 3.214 5.625.33 1.732.748 2.81 1.95 5.026 1.013 1.868 1.57 3.242 1.737 4.29-.284 1.006-5.266-3.367-6.473-3.938-2.116-.95-3.36-1.19-6.187-1.194-1.211 1.645 4.766 4.915 5.757 6.321.018.068-.744.146-1.694.172-2.927.08-5.158.59-6.67 1.522-1.22.751-1.21.872.108 1.23a83.5 83.5 0 0 0 2.25.573c3.05.722 8.63 2.466 10.316 3.223 2.678 1.203 5.842 3.178 6.825 4.26l.394.434-.929.151c-.81.132-2.025.45-3.841 1.004-3.52 1.075-6.924 3.733-8.917 6.963-.584.945-1.925 3.692-1.92 3.931 2.447-.16 4.466-2.047 6.756-2.865 1.031-.353 2.239-.612 2.353-.504-.639 2.392-1.821 4.684-1.944 6.948-.04 1.34.504 3.484.932 3.664 2.297-5.882 6.453-11.047 10.899-14.386.42-.34.503-.36.699-.17.34.327.467.859.47 1.968.002.557.115 2.06.252 3.34.136 1.279.283 2.913.325 3.63.56 5.457 2.037 9.882 5.746 13.51 1.23-1.307 1.007-3.385.978-4.708-.063-2.108.116-3.233-1.036-6.46-.999-2.795-1.088-3.118-.877-3.172.071-.019.742.556 1.491 1.277 1.912 1.84 2.984 2.496 3.971 2.428 1.42-2.498-1.538-5.306-2.794-6.674l-.348-.377.921.244c1.162.248 4.031 1.794 3.758.366-1.775-4.252-4.195-4.862-7.204-7.992 5.877 1.159 11.393 2.292 16.244 5.41 2.076 1.354 4.178 3.452 4.99 4.979 1.198 2.254 1.82 4.83 1.518 6.29-.844 2.911-3.772 3.63-5.041 6.06-1.11 1.767-.92 3.99-1.807 5.819-.87 1.685-3.07 4.436-4.265 5.195z" style="marker:none" color="#fff" overflow="visible" fill="#fff" fill-opacity=".314" stroke="#fff" stroke-width=".128" stroke-opacity=".971"/><path d="M272.13 72.597c-2.204 1.514-4.525 1.617-7.03.312-1.125-.586-2.449-1.504-4.368-3.032-2.453-1.952-3.812-2.62-6.67-3.275-1.124-.258-1.879-.383-4.804-.798-.616-.088-1.003-.23-.905-.33.014-.016.96-.365 2.102-.777 2.59-.935 3.464-1.125 5.513-1.204 1.594-.06 3.002-.303 3.806-.654.634-.277.56-.597-.337-1.46-.64-.617-.845-.74-1.723-1.033-1.123-.376-2.257-.502-4.123-.457-1.214.029-1.718-.103-1.45-.38.066-.07.517-.416 1-.77.9-.657 2.64-1.548 5.35-2.738 2.007-.88 3.124-1.475 3.226-1.714.235-.557-2.532-1.362-4.199-1.222-1.764.148-3.526.71-5.581 1.78-.527.275-1.056.53-1.175.568-.118.038-1.271.808-2.562 1.71-1.29.903-2.376 1.647-2.411 1.653-.154.028-.029-.248.601-1.326 1.35-2.31 3.167-4.675 5.27-6.857 3.883-4.032 7.961-7.024 11.061-8.116 1.075-.379 2.828-.68 4.052-.695 2.075-.026 3.67.41 5.99 1.64.887.47 1.211.712 1.848 1.38.858.9 1.147 1.506 1.296 2.72.136 1.1.452 1.53 1.747 2.379.61.4 1.495 1.104 2.012 1.602.839.807.949.961 1.21 1.696.42 1.177.44 3.177.045 4.335-.309.9-.334.937-1.416 1.99-2.463 2.395-2.775 2.76-3.05 3.552-.14.403-.296 1.328-.347 2.055-.176 2.478-.934 4.216-2.678 6.141-.567.627-1.153 1.223-1.301 1.325zM248.12 45.241c-4.27 3.34-4.095 7.708-7.24 11.103-.187.003-.217-.698-.09-2.045.08-.833.274-1.738.278-1.93-.225-2.353 6.436-18.53 3.463-17.41-3.528 2.188-5.946 8.65-6.833 10.942-.599 1.555-1.132 2.828-1.186 2.829-.234.004-1.007-2.972-1.216-4.68-.21-2.261-.018-3.217.177-5.384.164-1.839 1.591-6.036 2.932-8.621 1.094-2.11 1.67-2.901 3.219-4.427 3.519-3.466 7.34-4.818 11.126-3.938 1.81.421 2.362.409 2.768 2.887l.338 2.058s-.3.585 1.428 1.37c2.506 1.137 1.407.566 2.506 1.137 1.852.962 2.199 1.309 2.818 2.218 1.181 2.289 2.585 5.226.135 5.396-5.07.931-11.016 3.99-14.624 8.495z" style="marker:none" color="#fff" overflow="visible" fill="#fff" fill-opacity=".314" stroke="#fff" stroke-width=".128" stroke-opacity=".971"/><path d="M237.824 64.365c-1.79.736-4.01-1.949-5.855-7.708-2.108-7.36-4.525-13.957-4.108-21.385.12-1.918.586-5.433.74-5.594.125-.13.293.045.237.245-.054.19.568 4.346 1.04 6.948.818 6.124 2.804 10.816 5.316 16.03.874 1.82 2.927 6.326 3.267 7.369.41 1.286.982 3.384-.637 4.095z" style="marker:none" color="#fff" overflow="visible" fill="#fff" fill-opacity=".314" stroke="#fff" stroke-width=".15" stroke-opacity=".971"/><path d="M226.183 33.611c-.788.285-1.763-.261-2.002-1.121-.136-.492.002-.923.445-1.383.548-.57 1.335-.518 2.008.13.502.483.622.959.392 1.55-.21.543-.297.627-.843.824zM224.58 28.752c-.96.347-2.01-1.053-1.783-2.015.152-.638.785-.894 1.382-1.152 1.049-.454 2.362.664 1.902 1.743-.206.483-1.01 1.247-1.501 1.424zM229.33 24.663c-.543.44-.777.543-1.214.535-1.202-.023-1.873-1.59-.833-2.67.402-.417.656-.735 1.197-.745 1.423-.027 2.076 1.887.85 2.88zM232.746 27.576c-.548.198-1.33.015-1.776-.415-.533-.512-.485-1.228.132-1.969.423-.507.536-.578 1-.627.388-.041.647.032.996.28 1.14.809.952 2.26-.352 2.731zM232.546 32.735c-.218.03-.617-.058-.887-.197-1.182-.608-1.191-2.133-.017-2.752.747-.395 1.536.04 1.946 1.071.326.82-.196 1.761-1.042 1.878zM252.832 101.92c-1.708 1.085-4.57 1.163-7.997.22-2.4-1.156-5.286 1.277-7.342.686-2.312-.972-3.764-4.47-4.356-6.778-.83-3.34-.864-6.73-.119-11.87.154-1.513.592-6.985-.55-8.095-4.68 3.178-3.095 12.973-4.563 16.947-.872 2.183-2.534 4.413-3.858 5.176-1.436.829-2.268.924-4.788.548-4.568-.285-6.567 2.883-11.461-.151-1.16-.937-1.28-2.725-1.553-3.485-.663-3.582-.732-7.862-3.063-10.234-2.125-2.073-2.181-2.348-.857-4.21 1.506-2.406.349-4.396 1.782-6.631 1.047-3.387 15.008-8.525 13.959-9.192-6.17-2.643-13.062 1.451-19.052-.248-1.863-.635-2.898-1.681-3.264-3.296-.307-1.356.279-3.396 1.587-5.526 1.066-1.735 1.026-1.563.735-3.203-.738-3.953-.054-5.654 1.55-8.79.99-1.95 2.045-3.279 3.97-3.937 2.862-.98 4.964-1.61 6.248-1.874 3.31-.753 7.477-.622 10.085.53 2.418 1.581 2.757 3.226 3.214 5.625.33 1.732.748 2.81 1.95 5.026 1.013 1.868 1.57 3.242 1.737 4.29-.284 1.006-5.266-3.367-6.473-3.938-2.116-.95-3.36-1.19-6.187-1.194-1.211 1.645 4.766 4.915 5.757 6.321.018.068-.744.146-1.694.172-2.927.08-5.158.59-6.67 1.522-1.22.751-1.21.872.108 1.23a83.5 83.5 0 0 0 2.25.573c3.05.722 8.63 2.466 10.316 3.223 2.678 1.203 5.842 3.178 6.825 4.26l.394.434-.929.151c-.81.132-2.025.45-3.841 1.004-3.52 1.075-6.924 3.733-8.917 6.963-.584.945-1.925 3.692-1.92 3.931 2.447-.16 4.466-2.047 6.756-2.865 1.031-.353 2.239-.612 2.353-.504-.639 2.392-1.821 4.684-1.944 6.948-.04 1.34.504 3.484.932 3.664 2.297-5.882 6.453-11.047 10.899-14.386.42-.34.503-.36.699-.17.34.327.467.859.47 1.968.002.557.115 2.06.252 3.34.136 1.279.283 2.913.325 3.63.56 5.457 2.037 9.882 5.746 13.51 1.23-1.307 1.007-3.385.978-4.708-.063-2.108.116-3.233-1.036-6.46-.999-2.795-1.088-3.118-.877-3.172.071-.019.742.556 1.491 1.277 1.912 1.84 2.984 2.496 3.971 2.428 1.42-2.498-1.538-5.306-2.794-6.674l-.348-.377.921.244c1.162.248 4.031 1.794 3.758.366-1.775-4.252-4.195-4.862-7.204-7.992 5.877 1.159 11.393 2.292 16.244 5.41 2.076 1.354 4.178 3.452 4.99 4.979 1.198 2.254 1.82 4.83 1.518 6.29-.844 2.911-3.772 3.63-5.041 6.06-1.11 1.767-.92 3.99-1.807 5.819-.87 1.685-3.07 4.436-4.265 5.195z" style="marker:none" color="#fff" overflow="visible" fill="#fff" fill-opacity=".314" stroke="#fff" stroke-width=".128" stroke-opacity=".971"/><path style="marker:none" d="M272.13 72.597c-2.204 1.514-4.525 1.617-7.03.312-1.125-.586-2.449-1.504-4.368-3.032-2.453-1.952-3.812-2.62-6.67-3.275-1.124-.258-1.879-.383-4.804-.798-.616-.088-1.003-.23-.905-.33.014-.016.96-.365 2.102-.777 2.59-.935 3.464-1.125 5.513-1.204 1.594-.06 3.002-.303 3.806-.654.634-.277.56-.597-.337-1.46-.64-.617-.845-.74-1.723-1.033-1.123-.376-2.257-.502-4.123-.457-1.214.029-1.718-.103-1.45-.38.066-.07.517-.416 1-.77.9-.657 2.64-1.548 5.35-2.738 2.007-.88 3.124-1.475 3.226-1.714.235-.557-2.532-1.362-4.199-1.222-1.764.148-3.526.71-5.581 1.78-.527.275-1.056.53-1.175.568-.118.038-1.271.808-2.562 1.71-1.29.903-2.376 1.647-2.411 1.653-.154.028-.029-.248.601-1.326 1.35-2.31 3.167-4.675 5.27-6.857 3.883-4.032 7.961-7.024 11.061-8.116 1.075-.379 2.828-.68 4.052-.695 2.075-.026 3.67.41 5.99 1.64.887.47 1.211.712 1.848 1.38.858.9 1.147 1.506 1.296 2.72.136 1.1.452 1.53 1.747 2.379.61.4 1.495 1.104 2.012 1.602.839.807.949.961 1.21 1.696.42 1.177.44 3.177.045 4.335-.309.9-.334.937-1.416 1.99-2.463 2.395-2.775 2.76-3.05 3.552-.14.403-.296 1.328-.347 2.055-.176 2.478-.934 4.216-2.678 6.141-.567.627-1.153 1.223-1.301 1.325zM248.12 45.241c-4.27 3.34-4.095 7.708-7.24 11.103-.187.003-.217-.698-.09-2.045.08-.833.274-1.738.278-1.93-.225-2.353 6.436-18.53 3.463-17.41-3.528 2.188-5.946 8.65-6.833 10.942-.599 1.555-1.132 2.828-1.186 2.829-.234.004-1.007-2.972-1.216-4.68-.21-2.261-.018-3.217.177-5.384.164-1.839 1.591-6.036 2.932-8.621 1.094-2.11 1.67-2.901 3.219-4.427 3.519-3.466 7.34-4.818 11.126-3.938 1.81.421 2.362.409 2.768 2.887l.338 2.058s-.3.585 1.428 1.37c2.506 1.137 1.407.566 2.506 1.137 1.852.962 2.199 1.309 2.818 2.218 1.181 2.289 2.585 5.226.135 5.396-5.07.931-11.016 3.99-14.624 8.495z" color="#fff" overflow="visible" fill="#fff" fill-opacity=".314" stroke="#fff" stroke-width=".128" stroke-opacity=".971"/><path style="marker:none" d="M237.824 64.365c-1.79.736-4.01-1.949-5.855-7.708-2.108-7.36-4.525-13.957-4.108-21.385.12-1.918.586-5.433.74-5.594.125-.13.293.045.237.245-.054.19.568 4.346 1.04 6.948.818 6.124 2.804 10.816 5.316 16.03.874 1.82 2.927 6.326 3.267 7.369.41 1.286.982 3.384-.637 4.095z" color="#fff" overflow="visible" fill="#fff" fill-opacity=".314" stroke="#fff" stroke-width=".15" stroke-opacity=".971"/><path style="marker:none" d="M226.183 33.611c-.788.285-1.763-.261-2.002-1.121-.136-.492.002-.923.445-1.383.548-.57 1.335-.518 2.008.13.502.483.622.959.392 1.55-.21.543-.297.627-.843.824zM224.58 28.752c-.96.347-2.01-1.053-1.783-2.015.152-.638.785-.894 1.382-1.152 1.049-.454 2.362.664 1.902 1.743-.206.483-1.01 1.247-1.501 1.424zM229.33 24.663c-.543.44-.777.543-1.214.535-1.202-.023-1.873-1.59-.833-2.67.402-.417.656-.735 1.197-.745 1.423-.027 2.076 1.887.85 2.88zM232.746 27.576c-.548.198-1.33.015-1.776-.415-.533-.512-.485-1.228.132-1.969.423-.507.536-.578 1-.627.388-.041.647.032.996.28 1.14.809.952 2.26-.352 2.731zM232.546 32.735c-.218.03-.617-.058-.887-.197-1.182-.608-1.191-2.133-.017-2.752.747-.395 1.536.04 1.946 1.071.326.82-.196 1.761-1.042 1.878z" color="#fff" overflow="visible" fill="#fff" fill-opacity=".314" stroke="#fff" stroke-width=".128" stroke-opacity=".971"/><path style="marker:none" d="M5.46 65.019c.617 1.942 2.774 3.867 6.026 5.381 2.597.682 3.251 4.422 5.218 5.31 2.41.765 5.788-.96 7.735-2.336 2.797-2.01 5.012-4.576 7.755-8.987.858-1.255 4.054-5.72 5.65-5.823 1.557 5.477-5.988 11.925-7.422 15.916-.737 2.236-.895 5.022-.367 6.469.572 1.568 1.153 2.183 3.339 3.539 3.706 2.76 3.202 6.483 8.935 7.356 1.498.04 2.745-1.246 3.447-1.649 2.824-2.303 5.64-5.527 8.97-5.818 2.976-.198 3.197-.371 3.378-2.656.392-2.82 2.57-3.585 2.907-6.226 1.379-3.269-6.07-16.294-4.83-16.12C62.667 61.38 65.338 69 71.054 71.607c1.846.73 3.32.606 4.645-.389 1.112-.835 1.978-2.775 2.344-5.255.298-2.02.217-1.862 1.5-2.925 3.122-2.537 3.693-4.282 4.48-7.723.497-2.134.54-3.837-.518-5.594-1.575-2.614-2.789-4.466-3.61-5.504-2.065-2.733-5.363-5.35-8.118-6.17-2.885-.369-4.209.666-6.11 2.2-1.373 1.108-2.391 1.658-4.749 2.567-1.986.766-3.302 1.453-4.108 2.144-.431.953 6.234.862 7.534 1.212 2.244.655 3.358 1.283 5.541 3.122-.128 2.046-6.848.646-8.52 1.074-.058.04.48.596 1.195 1.236 2.205 1.97 3.597 3.813 4.161 5.511.455 1.368.37 1.453-.878.869a84.982 84.982 0 0 1-2.104-1.03c-2.818-1.437-8.247-3.744-10.036-4.264-2.842-.827-6.556-1.382-8.013-1.196l-.585.074.62.721c.54.63 1.271 1.664 2.313 3.271 2.02 3.115 2.93 7.364 2.381 11.13-.16 1.103-.899 4.075-1.057 4.255-1.784-1.719-2.122-4.476-3.36-6.593-.568-.942-1.332-1.927-1.49-1.919-1.051 2.243-1.619 4.764-2.986 6.573-.835 1.05-2.638 2.332-3.085 2.191 2.027-5.99 2.157-12.643.884-18.091-.105-.533-.155-.603-.429-.587-.474.029-.915.352-1.633 1.197-.362.424-1.418 1.498-2.35 2.386a97.65 97.65 0 0 0-2.595 2.562c-3.955 3.8-7.95 6.217-13.153 6.57-.104-1.799 1.409-3.24 2.286-4.233 1.409-1.568 1.997-2.544 4.969-4.257 2.575-1.484 2.852-1.673 2.724-1.852-.043-.06-.932-.058-1.974.004-2.662.16-3.913-.04-4.63-.735.518-2.833 4.612-3.049 6.463-3.274l.512-.062-.867-.414c-1.057-.569-4.268-1.258-3.135-2.17 4.114-2.09 6.374-.978 10.715-1.407-5.28-2.946-10.265-5.677-16.018-6.459-2.475-.318-5.45-.087-7.062.55-2.38.94-4.521 2.502-5.232 3.814-1.23 2.773.564 5.23-.025 7.914-.286 2.072-1.867 3.647-2.364 5.622-.417 1.853-.497 5.389-.065 6.747z" color="#fff" overflow="visible" fill="#fff" fill-opacity=".314" stroke="#fff" stroke-width=".129" stroke-opacity=".971"/><path style="marker:none" d="M9.512 30.046c.722 2.592 2.445 4.184 5.218 4.82 1.247.287 2.86.448 5.326.533 3.152.108 4.631.484 7.258 1.847 1.034.536 1.696.932 4.22 2.523.531.334.921.478.911.337-.001-.02-.505-.904-1.12-1.963-1.393-2.402-1.944-3.118-3.474-4.514-1.19-1.085-2.119-2.188-2.512-2.98-.31-.625-.047-.821 1.202-.896.892-.053 1.13-.013 1.996.335 1.109.445 2.064 1.088 3.475 2.339.917.813 1.39 1.04 1.364.655-.007-.097-.13-.655-.276-1.24-.269-1.087-1.036-2.903-2.358-5.579-.978-1.98-1.456-3.163-1.38-3.412.178-.578 2.833.61 4.027 1.804 1.265 1.263 2.26 2.841 3.154 4.999.23.553.472 1.093.54 1.199.066.106.459 1.446.871 2.976.413 1.53.77 2.806.792 2.834.1.122.182-.17.393-1.404.45-2.644.576-5.635.363-8.672-.391-5.61-1.604-10.554-3.29-13.41-.583-.989-1.742-2.361-2.675-3.171-1.584-1.373-3.095-2.079-5.678-2.653-.987-.22-1.394-.246-2.316-.15-1.243.128-1.856.402-2.756 1.231-.815.752-1.336.875-2.882.678a16.525 16.525 0 0 0-2.586-.088c-1.168.07-1.352.116-2.029.506-1.083.625-2.39 2.14-2.832 3.282-.344.889-.347.933-.193 2.442.352 3.435.358 3.916.058 4.7-.152.4-.629 1.208-1.059 1.797-1.464 2.007-2.002 3.828-1.9 6.435.033.849.1 1.686.148 1.86zM45.687 24.808c1.137 5.334-1.818 8.555-1.586 13.198.142.124.619-.391 1.39-1.503.477-.688.911-1.506 1.032-1.655 1.692-1.65 7-18.346 8.57-15.552 1.308 3.97-1 10.48-1.796 12.81-.542 1.577-.952 2.898-.911 2.933.177.156 2.695-1.613 3.959-2.781 1.622-1.59 2.09-2.445 3.34-4.227 1.06-1.51 2.67-5.647 3.304-8.495.519-2.324.586-3.304.376-5.479-.476-4.94-2.549-8.464-6.037-10.26-1.668-.859-2.085-1.228-3.998.4l-1.59 1.352s-.145.641-1.985.114c-2.667-.765-1.45-.484-2.667-.765-2.049-.472-2.54-.434-3.605-.144-2.388.979-5.366 2.306-3.587 4.034 3.309 4.016 5.918 10.228 5.791 16.02z" color="#fff" overflow="visible" fill="#fff" fill-opacity=".314" stroke="#fff" stroke-width=".129" stroke-opacity=".971"/><path style="marker:none" d="M41.28 46.124c.905 1.73 4.35 1.126 9.491-2.07 6.377-4.246 12.5-7.708 16.975-13.652 1.145-1.543 3.055-4.531 3.04-4.755-.013-.18-.255-.156-.34.033-.082.181-3.245 2.949-5.29 4.628-4.583 4.143-9.144 6.431-14.446 8.776-1.85.82-6.342 2.922-7.277 3.497-1.148.715-2.943 1.944-2.153 3.543z" color="#fff" overflow="visible" fill="#fff" fill-opacity=".314" stroke="#fff" stroke-width=".15" stroke-opacity=".971"/><path style="marker:none" d="M70.111 30.228c.424.73 1.528.95 2.268.448.423-.287.594-.706.55-1.346-.055-.792-.695-1.266-1.632-1.21-.699.042-1.1.327-1.304.928-.188.553-.176.673.118 1.18zM74.485 27.562c.517.89 2.23.506 2.675-.376.295-.587-.028-1.195-.322-1.782-.515-1.03-2.25-1.032-2.591.092-.154.503-.026 1.61.238 2.066zM73.461 21.343c.135.69.25.921.592 1.2.941.766 2.47.007 2.365-1.496-.04-.581-.03-.99-.441-1.35-1.08-.948-2.82.088-2.516 1.646zM68.947 21.34c.295.509 1.015.879 1.637.841.742-.044 1.167-.622 1.17-1.59.001-.663-.04-.79-.367-1.13-.273-.285-.519-.398-.948-.436-1.401-.125-2.194 1.106-1.492 2.315zM65.77 25.41c.149.166.514.358.811.428 1.305.306 2.296-.852 1.79-2.091-.321-.788-1.21-.97-2.192-.45-.78.414-.986 1.472-.409 2.113zM5.46 65.019c.617 1.942 2.774 3.867 6.026 5.381 2.597.682 3.251 4.422 5.218 5.31 2.41.765 5.788-.96 7.735-2.336 2.797-2.01 5.012-4.576 7.755-8.987.858-1.255 4.054-5.72 5.65-5.823 1.557 5.477-5.988 11.925-7.422 15.916-.737 2.236-.895 5.022-.367 6.469.572 1.568 1.153 2.183 3.339 3.539 3.706 2.76 3.202 6.483 8.935 7.356 1.498.04 2.745-1.246 3.447-1.649 2.824-2.303 5.64-5.527 8.97-5.818 2.976-.198 3.197-.371 3.378-2.656.392-2.82 2.57-3.585 2.907-6.226 1.379-3.269-6.07-16.294-4.83-16.12C62.667 61.38 65.338 69 71.054 71.607c1.846.73 3.32.606 4.645-.389 1.112-.835 1.978-2.775 2.344-5.255.298-2.02.217-1.862 1.5-2.925 3.122-2.537 3.693-4.282 4.48-7.723.497-2.134.54-3.837-.518-5.594-1.575-2.614-2.789-4.466-3.61-5.504-2.065-2.733-5.363-5.35-8.118-6.17-2.885-.369-4.209.666-6.11 2.2-1.373 1.108-2.391 1.658-4.749 2.567-1.986.766-3.302 1.453-4.108 2.144-.431.953 6.234.862 7.534 1.212 2.244.655 3.358 1.283 5.541 3.122-.128 2.046-6.848.646-8.52 1.074-.058.04.48.596 1.195 1.236 2.205 1.97 3.597 3.813 4.161 5.511.455 1.368.37 1.453-.878.869a84.982 84.982 0 0 1-2.104-1.03c-2.818-1.437-8.247-3.744-10.036-4.264-2.842-.827-6.556-1.382-8.013-1.196l-.585.074.62.721c.54.63 1.271 1.664 2.313 3.271 2.02 3.115 2.93 7.364 2.381 11.13-.16 1.103-.899 4.075-1.057 4.255-1.784-1.719-2.122-4.476-3.36-6.593-.568-.942-1.332-1.927-1.49-1.919-1.051 2.243-1.619 4.764-2.986 6.573-.835 1.05-2.638 2.332-3.085 2.191 2.027-5.99 2.157-12.643.884-18.091-.105-.533-.155-.603-.429-.587-.474.029-.915.352-1.633 1.197-.362.424-1.418 1.498-2.35 2.386a97.65 97.65 0 0 0-2.595 2.562c-3.955 3.8-7.95 6.217-13.153 6.57-.104-1.799 1.409-3.24 2.286-4.233 1.409-1.568 1.997-2.544 4.969-4.257 2.575-1.484 2.852-1.673 2.724-1.852-.043-.06-.932-.058-1.974.004-2.662.16-3.913-.04-4.63-.735.518-2.833 4.612-3.049 6.463-3.274l.512-.062-.867-.414c-1.057-.569-4.268-1.258-3.135-2.17 4.114-2.09 6.374-.978 10.715-1.407-5.28-2.946-10.265-5.677-16.018-6.459-2.475-.318-5.45-.087-7.062.55-2.38.94-4.521 2.502-5.232 3.814-1.23 2.773.564 5.23-.025 7.914-.286 2.072-1.867 3.647-2.364 5.622-.417 1.853-.497 5.389-.065 6.747z" color="#fff" overflow="visible" fill="#fff" fill-opacity=".314" stroke="#fff" stroke-width=".129" stroke-opacity=".971"/><path d="M9.512 30.046c.722 2.592 2.445 4.184 5.218 4.82 1.247.287 2.86.448 5.326.533 3.152.108 4.631.484 7.258 1.847 1.034.536 1.696.932 4.22 2.523.531.334.921.478.911.337-.001-.02-.505-.904-1.12-1.963-1.393-2.402-1.944-3.118-3.474-4.514-1.19-1.085-2.119-2.188-2.512-2.98-.31-.625-.047-.821 1.202-.896.892-.053 1.13-.013 1.996.335 1.109.445 2.064 1.088 3.475 2.339.917.813 1.39 1.04 1.364.655-.007-.097-.13-.655-.276-1.24-.269-1.087-1.036-2.903-2.358-5.579-.978-1.98-1.456-3.163-1.38-3.412.178-.578 2.833.61 4.027 1.804 1.265 1.263 2.26 2.841 3.154 4.999.23.553.472 1.093.54 1.199.066.106.459 1.446.871 2.976.413 1.53.77 2.806.792 2.834.1.122.182-.17.393-1.404.45-2.644.576-5.635.363-8.672-.391-5.61-1.604-10.554-3.29-13.41-.583-.989-1.742-2.361-2.675-3.171-1.584-1.373-3.095-2.079-5.678-2.653-.987-.22-1.394-.246-2.316-.15-1.243.128-1.856.402-2.756 1.231-.815.752-1.336.875-2.882.678a16.525 16.525 0 0 0-2.586-.088c-1.168.07-1.352.116-2.029.506-1.083.625-2.39 2.14-2.832 3.282-.344.889-.347.933-.193 2.442.352 3.435.358 3.916.058 4.7-.152.4-.629 1.208-1.059 1.797-1.464 2.007-2.002 3.828-1.9 6.435.033.849.1 1.686.148 1.86zM45.687 24.808c1.137 5.334-1.818 8.555-1.586 13.198.142.124.619-.391 1.39-1.503.477-.688.911-1.506 1.032-1.655 1.692-1.65 7-18.346 8.57-15.552 1.308 3.97-1 10.48-1.796 12.81-.542 1.577-.952 2.898-.911 2.933.177.156 2.695-1.613 3.959-2.781 1.622-1.59 2.09-2.445 3.34-4.227 1.06-1.51 2.67-5.647 3.304-8.495.519-2.324.586-3.304.376-5.479-.476-4.94-2.549-8.464-6.037-10.26-1.668-.859-2.085-1.228-3.998.4l-1.59 1.352s-.145.641-1.985.114c-2.667-.765-1.45-.484-2.667-.765-2.049-.472-2.54-.434-3.605-.144-2.388.979-5.366 2.306-3.587 4.034 3.309 4.016 5.918 10.228 5.791 16.02z" style="marker:none" color="#fff" overflow="visible" fill="#fff" fill-opacity=".314" stroke="#fff" stroke-width=".129" stroke-opacity=".971"/><path d="M41.28 46.124c.905 1.73 4.35 1.126 9.491-2.07 6.377-4.246 12.5-7.708 16.975-13.652 1.145-1.543 3.055-4.531 3.04-4.755-.013-.18-.255-.156-.34.033-.082.181-3.245 2.949-5.29 4.628-4.583 4.143-9.144 6.431-14.446 8.776-1.85.82-6.342 2.922-7.277 3.497-1.148.715-2.943 1.944-2.153 3.543z" style="marker:none" color="#fff" overflow="visible" fill="#fff" fill-opacity=".314" stroke="#fff" stroke-width=".15" stroke-opacity=".971"/><path d="M70.111 30.228c.424.73 1.528.95 2.268.448.423-.287.594-.706.55-1.346-.055-.792-.695-1.266-1.632-1.21-.699.042-1.1.327-1.304.928-.188.553-.176.673.118 1.18zM74.485 27.562c.517.89 2.23.506 2.675-.376.295-.587-.028-1.195-.322-1.782-.515-1.03-2.25-1.032-2.591.092-.154.503-.026 1.61.238 2.066zM73.461 21.343c.135.69.25.921.592 1.2.941.766 2.47.007 2.365-1.496-.04-.581-.03-.99-.441-1.35-1.08-.948-2.82.088-2.516 1.646zM68.947 21.34c.295.509 1.015.879 1.637.841.742-.044 1.167-.622 1.17-1.59.001-.663-.04-.79-.367-1.13-.273-.285-.519-.398-.948-.436-1.401-.125-2.194 1.106-1.492 2.315zM65.77 25.41c.149.166.514.358.811.428 1.305.306 2.296-.852 1.79-2.091-.321-.788-1.21-.97-2.192-.45-.78.414-.986 1.472-.409 2.113z" style="marker:none" color="#fff" overflow="visible" fill="#fff" fill-opacity=".314" stroke="#fff" stroke-width=".129" stroke-opacity=".971"/><path style="marker:none" d="M49.01 268.375c-1.85.68-4.59.165-7.656-1.44-2.046-1.594-5.293.127-7.127-.859-2-1.402-2.66-5.029-2.749-7.347-.101-3.35.565-6.583 2.334-11.32.457-1.407 2.002-6.525 1.145-7.815-5.108 2.059-5.62 11.706-7.835 15.185-1.28 1.897-3.321 3.676-4.738 4.13-1.537.493-2.349.412-4.669-.466-4.288-1.212-6.843 1.39-10.875-2.505-.91-1.13-.655-2.856-.76-3.636.109-3.546.925-7.633-.805-10.37-1.594-2.41-1.591-2.683.053-4.182 1.929-1.98 1.238-4.112 3.062-5.943 1.694-3.006 16.038-5.019 15.177-5.87-5.327-3.786-12.729-1.31-18.078-4.162-1.641-.989-2.411-2.197-2.427-3.81-.012-1.353.966-3.173 2.65-4.93 1.371-1.432 1.298-1.276 1.36-2.897.11-3.913 1.112-5.39 3.286-8.044 1.343-1.653 2.621-2.699 4.588-2.929 2.925-.342 5.055-.509 6.332-.495 3.304-.035 7.243.949 9.487 2.583 1.975 2.003 1.959 3.638 1.9 6.015-.044 1.716.132 2.828.819 5.184.579 1.986.825 3.408.768 4.44-.477.899-4.316-4.289-5.348-5.082-1.817-1.339-2.951-1.823-5.64-2.41-1.492 1.316 3.521 5.658 4.175 7.201.003.069-.738-.015-1.648-.186-2.802-.526-5.029-.501-6.66.074-1.316.463-1.33.58-.151 1.193.537.28 1.448.733 2.022 1.008 2.754 1.316 7.705 4.125 9.153 5.193 2.3 1.697 4.904 4.228 5.616 5.46l.286.495-.915-.048c-.798-.041-2.02.01-3.862.164-3.57.297-7.358 2.125-9.92 4.787-.75.78-2.593 3.117-2.638 3.345 2.363.352 4.672-1.027 7.02-1.333 1.054-.124 2.256-.12 2.343.006-1.1 2.144-2.698 4.08-3.281 6.21-.315 1.268-.239 3.419.13 3.68 3.4-5.125 8.418-9.183 13.336-11.444.47-.236.553-.239.7-.019.257.382.269.915.043 1.97-.113.531-.316 1.984-.45 3.23a95.948 95.948 0 0 1-.438 3.523c-.59 5.307-.098 9.822 2.684 14.038 1.438-.99 1.655-3.013 1.9-4.278.374-2.018.777-3.053.346-6.36-.374-2.866-.392-3.192-.18-3.2.071-.002.59.683 1.155 1.523 1.44 2.145 2.325 2.99 3.278 3.129 1.866-2.085-.37-5.366-1.283-6.926l-.254-.43.827.42c1.055.476 3.466 2.539 3.5 1.124-.812-4.413-2.99-5.491-5.208-9.09 5.353 2.314 10.37 4.529 14.342 8.495 1.696 1.717 3.264 4.146 3.722 5.767.675 2.391.736 4.97.148 6.298-1.402 2.596-4.337 2.677-6.045 4.727-1.42 1.453-1.699 3.608-2.92 5.165-1.174 1.424-3.835 3.589-5.128 4.065z" color="#fff" overflow="visible" fill="#fff" fill-opacity=".314" stroke="#fff" stroke-width=".125" stroke-opacity=".971"/><path style="marker:none" d="M73.414 244.45c-2.408.986-4.638.606-6.752-1.152-.95-.79-2.02-1.936-3.532-3.785-1.932-2.364-3.087-3.279-5.672-4.491-1.017-.477-1.709-.752-4.407-1.75-.568-.21-.907-.424-.793-.501.017-.01.99-.149 2.16-.305 2.657-.356 3.528-.357 5.495-.01 1.529.271 2.918.331 3.756.163.66-.133.656-.453-.02-1.46-.482-.718-.651-.877-1.426-1.338-.991-.589-2.045-.942-3.83-1.284-1.16-.223-1.613-.452-1.301-.661.078-.052.578-.29 1.11-.526.991-.44 2.832-.928 5.656-1.502 2.09-.425 3.276-.76 3.422-.967.339-.481-2.129-1.818-3.743-2.028-1.71-.223-3.502-.051-5.678.544-.559.152-1.114.287-1.235.298-.12.012-1.376.506-2.79 1.1-1.415.592-2.6 1.076-2.636 1.075-.152-.005.025-.242.846-1.137 1.76-1.92 3.977-3.796 6.427-5.44 4.526-3.036 9.024-5.042 12.199-5.443 1.1-.139 2.83-.063 3.998.174 1.98.403 3.407 1.147 5.362 2.795.748.63 1.006.927 1.474 1.694.631 1.034.78 1.67.673 2.855-.098 1.076.114 1.55 1.172 2.624.498.506 1.195 1.359 1.584 1.939.632.941.705 1.11.803 1.863.157 1.207-.236 3.115-.852 4.134-.479.794-.51.823-1.757 1.602-2.837 1.772-3.209 2.054-3.634 2.751-.216.355-.555 1.203-.754 1.884-.678 2.322-1.757 3.82-3.813 5.292-.67.48-1.35.926-1.512.992zM56.206 213.471c-4.752 2.298-5.485 6.49-9.177 9.074-.178-.036-.063-.71.336-1.965.247-.776.619-1.598.662-1.78.271-2.284 9.942-16.305 6.883-15.852-3.808 1.355-7.44 7.004-8.757 9.003-.89 1.356-1.66 2.458-1.712 2.448-.223-.045-.345-3.036-.192-4.704.266-2.195.646-3.065 1.278-5.087.535-1.715 2.758-5.415 4.567-7.599 1.476-1.782 2.186-2.417 3.975-3.55 4.063-2.572 7.977-3.071 11.398-1.453 1.636.774 2.164.876 2.04 3.317l-.103 2.029s-.406.494 1.076 1.597c2.15 1.599 1.222.829 2.15 1.599 1.564 1.297 1.823 1.698 2.225 2.69.652 2.422 1.382 5.506-.984 5.164-5.017-.16-11.304 1.526-15.665 5.07z" color="#fff" overflow="visible" fill="#fff" fill-opacity=".314" stroke="#fff" stroke-width=".125" stroke-opacity=".971"/><path style="marker:none" d="M42.468 229.546c-1.856.332-3.414-2.68-3.983-8.54-.49-7.438-1.43-14.214.498-21.196.51-1.8 1.677-5.05 1.858-5.17.145-.098.269.103.174.281-.09.17-.355 4.253-.441 6.826-.484 5.996.438 10.87 1.754 16.348.457 1.913 1.482 6.623 1.59 7.686.126 1.309.237 3.422-1.45 3.765z" color="#fff" overflow="visible" fill="#fff" fill-opacity=".314" stroke="#fff" stroke-width=".146" stroke-opacity=".971"/><path style="marker:none" d="M37.729 197.884c-.809.108-1.624-.612-1.674-1.48-.028-.496.192-.878.708-1.224.639-.429 1.377-.218 1.884.537.378.563.395 1.041.054 1.556-.313.474-.412.536-.972.611zM37.205 192.93c-.986.131-1.696-1.417-1.281-2.285.275-.576.931-.689 1.552-.812 1.091-.215 2.11 1.12 1.45 2.05-.295.418-1.218.979-1.721 1.046zM42.567 190.018c-.607.306-.851.356-1.265.258-1.14-.27-1.454-1.898-.242-2.711.468-.315.775-.565 1.292-.463 1.36.267 1.587 2.224.215 2.916zM45.218 193.494c-.563.075-1.268-.26-1.605-.761-.401-.598-.208-1.268.532-1.847.506-.395.629-.44 1.08-.39.378.04.61.163.89.471.918 1.005.44 2.348-.898 2.527zM43.964 198.362c-.213-.016-.575-.183-.803-.37-1-.823-.694-2.276.551-2.623.792-.222 1.453.355 1.63 1.42.142.848-.548 1.635-1.378 1.573z" color="#fff" overflow="visible" fill="#fff" fill-opacity=".314" stroke="#fff" stroke-width=".125" stroke-opacity=".971"/><path d="M45.218 193.494c-.563.075-1.268-.26-1.605-.761-.401-.598-.208-1.268.532-1.847.506-.395.629-.44 1.08-.39.378.04.61.163.89.471.918 1.005.44 2.348-.898 2.527z" style="marker:none" color="#fff" overflow="visible" fill="#fff" fill-opacity=".314" stroke="#fff" stroke-width=".125" stroke-opacity=".971"/><path style="marker:none" d="M158.788 69.412c-1.357.734-3.539.641-6.096-.26-1.764-1.006-4.09.691-5.622.133-1.707-.863-2.625-3.601-2.953-5.389-.454-2.585-.299-5.166.542-9.036.197-1.143.821-5.283.012-6.187-3.73 2.168-3.045 9.704-4.374 12.649-.78 1.614-2.162 3.222-3.21 3.733-1.136.553-1.775.581-3.672.161-3.46-.46-5.149 1.844-8.71-.725-.832-.774-.829-2.14-.996-2.733-.314-2.76-.139-6.02-1.786-7.949-1.506-1.69-1.534-1.902-.427-3.248 1.273-1.75.499-3.326 1.708-4.95.977-2.52 11.871-5.687 11.108-6.25-4.553-2.339-10.014.409-14.48-1.202-1.383-.583-2.116-1.434-2.308-2.682-.162-1.048.393-2.568 1.502-4.12.903-1.262.863-1.134.73-2.396-.352-3.047.259-4.305 1.647-6.605.855-1.431 1.73-2.386 3.228-2.784 2.23-.593 3.862-.96 4.854-1.093 2.557-.397 5.72-.075 7.644.94 1.755 1.332 1.925 2.601 2.145 4.45.16 1.336.42 2.178 1.216 3.928.671 1.474 1.021 2.55 1.093 3.356-.27.75-3.827-2.842-4.715-3.341-1.559-.834-2.492-1.083-4.643-1.237-1.009 1.187 3.364 3.992 4.043 5.115.01.053-.573.071-1.298.04-2.23-.094-3.955.175-5.155.804-.967.506-.966.598.017.941.448.157 1.204.407 1.68.555 2.283.712 6.436 2.336 7.678 3.001 1.973 1.058 4.275 2.729 4.965 3.604l.277.352-.715.065c-.624.057-1.565.234-2.976.56-2.734.63-5.466 2.47-7.154 4.822-.494.688-1.66 2.706-1.67 2.888 1.87.008 3.507-1.32 5.293-1.82.803-.213 1.735-.346 1.816-.258-.613 1.786-1.634 3.466-1.848 5.182-.102 1.018.198 2.677.514 2.837 2.06-4.352 5.497-8.06 9.057-10.364.338-.236.401-.247.54-.093.242.268.31.68.254 1.523-.029.424-.023 1.573.013 2.554a75 75 0 0 1 .054 2.78c.137 4.18 1.024 7.625 3.653 10.582 1.004-.928.946-2.52.994-3.529.064-1.607.26-2.453-.444-4.969-.611-2.18-.662-2.43-.498-2.46.055-.01.535.463 1.066 1.05 1.356 1.503 2.137 2.059 2.892 2.06 1.213-1.826-.888-4.119-1.77-5.227l-.245-.305.687.234c.871.25 2.972 1.58 2.84.48-1.124-3.33-2.933-3.923-5.055-6.464 4.409 1.194 8.545 2.35 12.07 4.98 1.506 1.14 2.994 2.848 3.53 4.053.791 1.778 1.127 3.77.82 4.866-.796 2.17-3.062 2.56-4.157 4.342-.938 1.285-.913 2.987-1.685 4.33-.75 1.236-2.571 3.212-3.52 3.726z" color="#fff" overflow="visible" fill="#fff" fill-opacity=".314" stroke="#fff" stroke-width=".098" stroke-opacity=".971"/><path style="marker:none" d="M175.028 48.13c-1.756 1.036-3.527.99-5.363-.135-.825-.506-1.783-1.275-3.162-2.54-1.762-1.615-2.76-2.196-4.9-2.846-.842-.256-1.409-.392-3.612-.863-.464-.1-.751-.227-.671-.3.011-.01.75-.226 1.64-.478 2.02-.573 2.695-.672 4.259-.623 1.215.039 2.3-.07 2.93-.294.497-.177.458-.425-.179-1.13-.454-.502-.603-.607-1.256-.877-.834-.346-1.69-.502-3.112-.567-.925-.043-1.301-.17-1.083-.367.054-.05.415-.288.802-.532.719-.451 2.09-1.037 4.216-1.798 1.573-.563 2.455-.956 2.545-1.132.208-.411-1.854-1.172-3.13-1.154-1.35.02-2.72.353-4.34 1.058-.416.18-.831.347-.924.37-.092.022-1.01.546-2.04 1.164-1.03.618-1.895 1.126-1.922 1.13-.119.013-.008-.191.528-.977 1.15-1.686 2.658-3.388 4.373-4.937 3.17-2.86 6.43-4.92 8.847-5.585.838-.231 2.188-.367 3.12-.313 1.58.09 2.77.507 4.47 1.566.65.404.883.606 1.332 1.148.605.731.792 1.207.841 2.139.045.844.262 1.188 1.202 1.902.443.337 1.08.92 1.446 1.326.595.659.67.782.83 1.355.257.917.166 2.44-.197 3.3-.282.669-.304.695-1.183 1.438-2 1.692-2.257 1.952-2.509 2.54-.127.3-.296.995-.374 1.545-.265 1.876-.934 3.158-2.363 4.53-.465.446-.943.868-1.06.938zM158.22 26.043c-3.427 2.313-3.526 5.645-6.099 8.061-.142-.007-.129-.543.04-1.56.105-.63.301-1.308.314-1.454-.045-1.802 5.882-13.754 3.561-13.06-2.8 1.476-4.983 6.263-5.78 7.96-.538 1.15-1.012 2.09-1.053 2.089-.178-.01-.608-2.315-.676-3.625-.04-1.732.158-2.449.421-4.087.223-1.39 1.532-4.507 2.69-6.402.944-1.547 1.424-2.118 2.684-3.196 2.861-2.45 5.84-3.275 8.673-2.404 1.355.417 1.776.437 1.953 2.343l.147 1.584s-.26.429 1.014 1.118c1.846.999 1.04.506 1.846.999 1.357.83 1.603 1.112 2.026 1.837.776 1.804 1.687 4.113-.185 4.112-3.907.439-8.593 2.45-11.577 5.685z" color="#fff" overflow="visible" fill="#fff" fill-opacity=".314" stroke="#fff" stroke-width=".098" stroke-opacity=".971"/><path style="marker:none" d="M149.369 40.043c-1.402.465-2.947-1.696-4.044-6.175-1.212-5.712-2.7-10.86-1.987-16.488.193-1.452.735-4.102.861-4.216.101-.092.22.05.167.2-.052.141.2 3.336.422 5.34.296 4.703 1.557 8.378 3.19 12.477.569 1.432 1.89 4.969 2.093 5.78.244 1.001.568 2.627-.702 3.082z" color="#fff" overflow="visible" fill="#fff" fill-opacity=".314" stroke="#fff" stroke-width=".114" stroke-opacity=".971"/><path style="marker:none" d="M142.15 16.028c-.615.174-1.327-.293-1.463-.96-.078-.382.05-.702.412-1.029.447-.403 1.043-.323 1.52.206.356.394.422.763.216 1.2-.19.403-.259.462-.685.583zM141.189 12.245c-.75.213-1.474-.908-1.249-1.627.15-.477.645-.638 1.113-.803.821-.29 1.761.631 1.354 1.427-.183.357-.836.894-1.218 1.003zM145.02 9.388c-.436.306-.62.372-.952.342-.913-.081-1.34-1.309-.491-2.075.328-.296.538-.525.95-.504 1.084.056 1.479 1.547.493 2.237zM147.464 11.786c-.428.121-1.012-.06-1.33-.41-.377-.419-.303-.96.206-1.491.348-.365.439-.412.795-.424.297-.01.49.058.742.266.824.676.604 1.77-.413 2.059zM147.037 15.7c-.167.011-.466-.077-.664-.197-.867-.526-.793-1.686.134-2.095.589-.26 1.166.112 1.423.919.204.641-.243 1.329-.893 1.373zM158.788 69.412c-1.357.734-3.539.641-6.096-.26-1.764-1.006-4.09.691-5.622.133-1.707-.863-2.625-3.601-2.953-5.389-.454-2.585-.299-5.166.542-9.036.197-1.143.821-5.283.012-6.187-3.73 2.168-3.045 9.704-4.374 12.649-.78 1.614-2.162 3.222-3.21 3.733-1.136.553-1.775.581-3.672.161-3.46-.46-5.149 1.844-8.71-.725-.832-.774-.829-2.14-.996-2.733-.314-2.76-.139-6.02-1.786-7.949-1.506-1.69-1.534-1.902-.427-3.248 1.273-1.75.499-3.326 1.708-4.95.977-2.52 11.871-5.687 11.108-6.25-4.553-2.339-10.014.409-14.48-1.202-1.383-.583-2.116-1.434-2.308-2.682-.162-1.048.393-2.568 1.502-4.12.903-1.262.863-1.134.73-2.396-.352-3.047.259-4.305 1.647-6.605.855-1.431 1.73-2.386 3.228-2.784 2.23-.593 3.862-.96 4.854-1.093 2.557-.397 5.72-.075 7.644.94 1.755 1.332 1.925 2.601 2.145 4.45.16 1.336.42 2.178 1.216 3.928.671 1.474 1.021 2.55 1.093 3.356-.27.75-3.827-2.842-4.715-3.341-1.559-.834-2.492-1.083-4.643-1.237-1.009 1.187 3.364 3.992 4.043 5.115.01.053-.573.071-1.298.04-2.23-.094-3.955.175-5.155.804-.967.506-.966.598.017.941.448.157 1.204.407 1.68.555 2.283.712 6.436 2.336 7.678 3.001 1.973 1.058 4.275 2.729 4.965 3.604l.277.352-.715.065c-.624.057-1.565.234-2.976.56-2.734.63-5.466 2.47-7.154 4.822-.494.688-1.66 2.706-1.67 2.888 1.87.008 3.507-1.32 5.293-1.82.803-.213 1.735-.346 1.816-.258-.613 1.786-1.634 3.466-1.848 5.182-.102 1.018.198 2.677.514 2.837 2.06-4.352 5.497-8.06 9.057-10.364.338-.236.401-.247.54-.093.242.268.31.68.254 1.523-.029.424-.023 1.573.013 2.554a75 75 0 0 1 .054 2.78c.137 4.18 1.024 7.625 3.653 10.582 1.004-.928.946-2.52.994-3.529.064-1.607.26-2.453-.444-4.969-.611-2.18-.662-2.43-.498-2.46.055-.01.535.463 1.066 1.05 1.356 1.503 2.137 2.059 2.892 2.06 1.213-1.826-.888-4.119-1.77-5.227l-.245-.305.687.234c.871.25 2.972 1.58 2.84.48-1.124-3.33-2.933-3.923-5.055-6.464 4.409 1.194 8.545 2.35 12.07 4.98 1.506 1.14 2.994 2.848 3.53 4.053.791 1.778 1.127 3.77.82 4.866-.796 2.17-3.062 2.56-4.157 4.342-.938 1.285-.913 2.987-1.685 4.33-.75 1.236-2.571 3.212-3.52 3.726z" color="#fff" overflow="visible" fill="#fff" fill-opacity=".314" stroke="#fff" stroke-width=".098" stroke-opacity=".971"/><path d="M175.028 48.13c-1.756 1.036-3.527.99-5.363-.135-.825-.506-1.783-1.275-3.162-2.54-1.762-1.615-2.76-2.196-4.9-2.846-.842-.256-1.409-.392-3.612-.863-.464-.1-.751-.227-.671-.3.011-.01.75-.226 1.64-.478 2.02-.573 2.695-.672 4.259-.623 1.215.039 2.3-.07 2.93-.294.497-.177.458-.425-.179-1.13-.454-.502-.603-.607-1.256-.877-.834-.346-1.69-.502-3.112-.567-.925-.043-1.301-.17-1.083-.367.054-.05.415-.288.802-.532.719-.451 2.09-1.037 4.216-1.798 1.573-.563 2.455-.956 2.545-1.132.208-.411-1.854-1.172-3.13-1.154-1.35.02-2.72.353-4.34 1.058-.416.18-.831.347-.924.37-.092.022-1.01.546-2.04 1.164-1.03.618-1.895 1.126-1.922 1.13-.119.013-.008-.191.528-.977 1.15-1.686 2.658-3.388 4.373-4.937 3.17-2.86 6.43-4.92 8.847-5.585.838-.231 2.188-.367 3.12-.313 1.58.09 2.77.507 4.47 1.566.65.404.883.606 1.332 1.148.605.731.792 1.207.841 2.139.045.844.262 1.188 1.202 1.902.443.337 1.08.92 1.446 1.326.595.659.67.782.83 1.355.257.917.166 2.44-.197 3.3-.282.669-.304.695-1.183 1.438-2 1.692-2.257 1.952-2.509 2.54-.127.3-.296.995-.374 1.545-.265 1.876-.934 3.158-2.363 4.53-.465.446-.943.868-1.06.938zM158.22 26.043c-3.427 2.313-3.526 5.645-6.099 8.061-.142-.007-.129-.543.04-1.56.105-.63.301-1.308.314-1.454-.045-1.802 5.882-13.754 3.561-13.06-2.8 1.476-4.983 6.263-5.78 7.96-.538 1.15-1.012 2.09-1.053 2.089-.178-.01-.608-2.315-.676-3.625-.04-1.732.158-2.449.421-4.087.223-1.39 1.532-4.507 2.69-6.402.944-1.547 1.424-2.118 2.684-3.196 2.861-2.45 5.84-3.275 8.673-2.404 1.355.417 1.776.437 1.953 2.343l.147 1.584s-.26.429 1.014 1.118c1.846.999 1.04.506 1.846.999 1.357.83 1.603 1.112 2.026 1.837.776 1.804 1.687 4.113-.185 4.112-3.907.439-8.593 2.45-11.577 5.685z" style="marker:none" color="#fff" overflow="visible" fill="#fff" fill-opacity=".314" stroke="#fff" stroke-width=".098" stroke-opacity=".971"/><path d="M149.369 40.043c-1.402.465-2.947-1.696-4.044-6.175-1.212-5.712-2.7-10.86-1.987-16.488.193-1.452.735-4.102.861-4.216.101-.092.22.05.167.2-.052.141.2 3.336.422 5.34.296 4.703 1.557 8.378 3.19 12.477.569 1.432 1.89 4.969 2.093 5.78.244 1.001.568 2.627-.702 3.082z" style="marker:none" color="#fff" overflow="visible" fill="#fff" fill-opacity=".314" stroke="#fff" stroke-width=".114" stroke-opacity=".971"/><path d="M142.15 16.028c-.615.174-1.327-.293-1.463-.96-.078-.382.05-.702.412-1.029.447-.403 1.043-.323 1.52.206.356.394.422.763.216 1.2-.19.403-.259.462-.685.583zM141.189 12.245c-.75.213-1.474-.908-1.249-1.627.15-.477.645-.638 1.113-.803.821-.29 1.761.631 1.354 1.427-.183.357-.836.894-1.218 1.003zM145.02 9.388c-.436.306-.62.372-.952.342-.913-.081-1.34-1.309-.491-2.075.328-.296.538-.525.95-.504 1.084.056 1.479 1.547.493 2.237zM147.464 11.786c-.428.121-1.012-.06-1.33-.41-.377-.419-.303-.96.206-1.491.348-.365.439-.412.795-.424.297-.01.49.058.742.266.824.676.604 1.77-.413 2.059zM147.037 15.7c-.167.011-.466-.077-.664-.197-.867-.526-.793-1.686.134-2.095.589-.26 1.166.112 1.423.919.204.641-.243 1.329-.893 1.373z" style="marker:none" color="#fff" overflow="visible" fill="#fff" fill-opacity=".314" stroke="#fff" stroke-width=".098" stroke-opacity=".971"/></svg>