<svg xmlns="http://www.w3.org/2000/svg" viewBox="0 0 491.64661 486.56366" height="486.564" width="491.647"><path d="M5.67 480.217c7.045-23.673-11.476-50.997 21.136-71.017 37.552-28.942 93.927-35.873 154.716-67.636 11.595-5.689 21.33-32.003 10.133-52.206-3.342-9.936-15.924-15.856-21.124-26.42-7.418-14.095-13.642-44.64-18.001-63.323-6.75-7.49-8.492-15.58-12.435-27.562-.634-7.758-7.496-19.64-.35-33.95-1.409-21.982-3.45-32.427.855-54.885 1.213-11.064 5.382-19.36 9.68-28.819 6.26-13.775 55.298-53.054 98.113-48.54 71.173 5.735 93.121 49.563 96.784 54.466 3.117 4.172 6.926 21.929 7.635 26.725 1.332 28.556-4.004 38.248-2.295 54.247 1.533 4.992 4.201 9.417 4.32 15.115-1.956 30.332-12.869 34.621-17.66 49.839-3.381 17.19-10.145 37.896-13.527 49.881-10.771 18.649-17.45 20.951-23.68 29.983-8.073 31.093 8.195 36.937 8.369 52.913 65.02 35.787 100.518 37.084 142.034 60.872 49.223 32.395 23.672 54.108 35.508 81.162z" fill-opacity=".459" fill-rule="evenodd" stroke="#000" stroke-opacity="0"/></svg>