<?xml version="1.0" encoding="UTF-8" standalone="no"?>
<!-- Created with Inkscape (http://www.inkscape.org/) -->

<svg
   xmlns:dc="http://purl.org/dc/elements/1.1/"
   xmlns:cc="http://creativecommons.org/ns#"
   xmlns:rdf="http://www.w3.org/1999/02/22-rdf-syntax-ns#"
   xmlns:svg="http://www.w3.org/2000/svg"
   xmlns="http://www.w3.org/2000/svg"
   xmlns:sodipodi="http://sodipodi.sourceforge.net/DTD/sodipodi-0.dtd"
   xmlns:inkscape="http://www.inkscape.org/namespaces/inkscape"
   id="svg2816"
   version="1.1"
   inkscape:version="0.91 r13725"
   width="281.31952"
   height="287.23599"
   sodipodi:docname="Hibiscus-center-p.svg">
  <metadata
     id="metadata2822">
    <rdf:RDF>
      <cc:Work
         rdf:about="">
        <dc:format>image/svg+xml</dc:format>
        <dc:type
           rdf:resource="http://purl.org/dc/dcmitype/StillImage" />
        <dc:title />
      </cc:Work>
    </rdf:RDF>
  </metadata>
  <defs
     id="defs2820" />
  <sodipodi:namedview
     pagecolor="#FFFFFF"
     bordercolor="#666666"
     borderopacity="1"
     objecttolerance="10"
     gridtolerance="10"
     guidetolerance="10"
     inkscape:pageopacity="0"
     inkscape:pageshadow="2"
     inkscape:window-width="1920"
     inkscape:window-height="959"
     id="namedview2818"
     showgrid="false"
     inkscape:zoom="2.0289022"
     inkscape:cx="155.83945"
     inkscape:cy="149.0682"
     inkscape:window-x="0"
     inkscape:window-y="1"
     inkscape:window-maximized="1"
     inkscape:current-layer="svg2816"
     fit-margin-top="3"
     fit-margin-left="3"
     fit-margin-right="3"
     fit-margin-bottom="3" />
  <path
     style="color:#ffffff;display:inline;overflow:visible;visibility:visible;fill:#5f368e;fill-opacity:1;stroke:#ffffff;stroke-width:0.40455723;stroke-linecap:butt;stroke-linejoin:miter;stroke-miterlimit:4;stroke-dasharray:none;stroke-dashoffset:0;stroke-opacity:0.97093021;marker:none;enable-background:accumulate"
     d="m 170.03718,263.62577 c 6.03997,-5.00288 7.26299,-13.05169 7.31249,-20.95833 -0.008,-11.42034 4.19441,-16.51702 -1.72321,-32.45059 -1.54797,-4.74273 -6.81155,-21.99812 -4.28787,-26.49202 15.97407,6.43575 13.98134,22.70959 21.15916,34.30883 13.4288,21.9428 23.25303,23.01803 35.7391,16.67967 13.12657,-4.61579 14.36952,10.44816 26.44657,-3.27903 2.70187,-3.95272 4.86078,-20.57721 5.10626,-23.24571 -0.67366,-12.06376 -1.6361,-10.34301 3.44254,-19.86273 5.32242,-11.16143 -4.56806,-27.51987 -10.59135,-34.13524 -5.52281,-10.04871 -50.01536,-15.27787 -47.43761,-18.27335 16.08678,-13.50121 39.18512,-5.90881 55.43117,-16.22682 4.97487,-3.55319 7.23645,-7.75678 7.12873,-13.25019 -1.90279,-12.659069 -12.5538,-16.8594 -13.13321,-26.2069 -0.72099,-13.317906 -3.95607,-18.237366 -10.9248,-27.029977 -9.69296,-11.371597 -20.1824,-11.015343 -34.05437,-10.42209 -10.20763,0.255318 -22.27741,4.050763 -29.0516,9.871473 -8.09915,12.112229 -4.60708,26.739716 -7.31965,38.455666 -1.59701,6.829777 -2.22053,11.701638 -1.94659,15.209668 1.56002,3.00845 12.91957,-15.097731 16.02767,-17.915025 23.95707,-15.845558 12.58616,-2.377829 4.98714,16.152215 -0.004,0.23383 2.27813,-0.13512 5.07041,-0.81992 8.60323,-2.10991 15.4844,-2.27821 20.57958,-0.50328 6.66041,2.67798 -1.78963,5.54035 -5.57105,7.7095 -8.37743,4.79444 -23.39926,14.92471 -27.76786,18.72585 -6.94183,6.04011 -14.73909,14.95657 -16.82051,19.23492 l -0.83558,1.71749 2.82165,-0.26576 c 2.4622,-0.23192 6.24027,-0.19431 11.94435,0.11887 11.05512,0.60698 22.92706,6.40371 31.09615,15.18331 2.39158,2.57028 8.30698,10.32086 8.46803,11.09502 -9.60624,3.00975 -20.47649,-7.73308 -29.04251,-3.46264 3.60536,7.17809 8.7242,13.59513 10.7299,20.78119 1.09503,4.28205 1.06515,11.61897 -0.0511,12.54677 -10.98777,-17.06757 -26.87734,-30.3221 -42.2857,-37.46506 -1.47434,-0.75274 -1.73041,-0.75095 -2.16528,0.0152 3.63297,9.58085 -2.68992,20.00561 -3.12045,29.61379 2.3335,18.00986 3.40542,8.01087 -10.88334,27.55541 -5.70798,4.81624 -8.63842,14.30338 -7.75928,10.50569 1.77317,-14.06493 -3.36208,-11.24864 0.61683,-44.23009 l 0.74131,-1.49501 -2.51144,1.52889 c -3.21223,1.73923 -17.36075,18.40434 -17.60238,13.58752 2.08459,-15.12128 15.60597,-28.4065 22.10979,-40.91638 -17.75302,8.41477 -36.53896,24.0759 -41.041923,36.65127 -5.908754,16.50131 -2.500268,33.63004 4.740353,43.63232 16.64372,40.19393 30.47994,38.36564 39.46572,32.01469 8.67714,-6.13281 18.06479,-8.11222 26.7638,-13.98909 z"
     id="path3602"
     inkscape:connector-curvature="0"
     sodipodi:nodetypes="cccccccccccccccccccccsccsscsssccccccccccccccscscc" />
  <path
     style="color:#ffffff;display:inline;overflow:visible;visibility:visible;fill:#5f368e;fill-opacity:1;stroke:#ffffff;stroke-width:0.4236367;stroke-linecap:butt;stroke-linejoin:miter;stroke-miterlimit:4;stroke-dasharray:none;stroke-dashoffset:0;stroke-opacity:0.97093021;marker:none;enable-background:accumulate"
     d="m 46.001253,203.72998 c 8.271822,3.08328 15.793363,1.5384 22.779741,-4.67885 3.139268,-2.79367 6.646911,-6.81617 11.577009,-13.27633 6.301828,-8.25759 10.125261,-11.50152 18.76104,-15.91746 3.398847,-1.73801 5.717237,-2.75111 14.761787,-6.45072 1.90332,-0.77853 3.03113,-1.54604 2.63584,-1.79376 -0.0582,-0.0365 -3.36873,-0.39383 -7.35685,-0.79423 -9.04946,-0.90857 -12.003149,-0.81494 -18.635483,0.59071 -5.157513,1.09308 -9.862949,1.45423 -12.720903,0.97634 -4.913542,-8.6705 13.478325,-13.56413 17.460467,-14.48143 3.914174,-0.88828 5.422489,-1.7199 4.344539,-2.39542 -0.269877,-0.16906 -1.990544,-0.91697 -3.823771,-1.66192 -3.404455,-1.38343 -9.698898,-2.83872 -19.336799,-4.47071 -7.136727,-1.20847 -11.191613,-2.21336 -11.707957,-2.90147 -1.199189,-1.59812 7.027721,-6.42473 12.480765,-7.32229 16.335798,-0.9841 27.989892,3.9669 42.162062,8.86744 0.51565,-0.0334 -0.10745,-0.82067 -2.98709,-3.77383 C 110.22174,127.91444 102.5068,121.78529 94.023184,116.4721 76.34496,107.06849 58.239627,95.84927 38.537699,100.38327 c -9.90422,3.46626 -18.213824,8.15187 -22.709929,16.04211 -3.409059,7.48729 6.613453,13.67278 1.814454,18.9402 -3.348989,3.81297 -6.773859,6.69994 -11.9505961,16.43847 6.6851051,23.5129 12.5468631,16.0713 18.8313891,24.83107 4.535277,10.15433 8.206694,18.39605 16.248319,23.89144 2.320277,1.55455 4.673745,2.99605 5.229856,3.20339 l 0,0 z"
     id="path3604"
     inkscape:connector-curvature="0"
     sodipodi:nodetypes="csssscsscccsssccscccccccccc" />
  <path
     style="color:#ffffff;display:inline;overflow:visible;visibility:visible;fill:#5f368e;fill-opacity:1;stroke:#ffffff;stroke-width:0.43541527;stroke-linecap:butt;stroke-linejoin:miter;stroke-miterlimit:4;stroke-dasharray:none;stroke-dashoffset:0;stroke-opacity:0.97093021;marker:none;enable-background:accumulate"
     d="m 92.268786,101.79371 c 16.698334,6.91932 19.280034,21.30786 32.256014,29.45294 0.62841,-0.16201 0.22266,-2.47707 -1.18225,-6.74521 -0.86897,-2.64001 -2.17589,-5.40799 -2.32719,-6.0303 -0.95572,-7.87094 -34.956973,-54.388231 -24.205521,-53.494875 13.383401,3.852619 26.151351,22.656072 30.780231,29.302249 3.12993,4.508959 5.83826,8.160086 6.01854,8.113596 0.78423,-0.20218 1.21034,-10.615094 0.66997,-16.37252 -0.93537,-7.559903 -2.27314,-10.495504 -4.49673,-17.372547 -1.88091,-5.836098 -9.69829,-18.184833 -16.05551,-25.362155 -5.18849,-5.857796 -7.68612,-7.901851 -13.971802,-11.434495 -14.28045,-8.025809 -28.033502,-8.886939 -40.054954,-2.508019 -5.74821,3.050172 -7.602209,3.522739 -7.162882,11.96967 l 0.365058,7.018991 c 0,0 1.427337,1.624437 -3.78254,5.783211 -6.345373,5.622343 -12.040024,7.630048 -15.367887,15.868027 -2.287875,8.550363 -4.850335,19.418251 3.464519,17.702787 17.628142,-1.670926 39.722445,2.778948 55.052909,14.10864 z"
     id="path3606"
     inkscape:connector-curvature="0"
     sodipodi:nodetypes="ccscccsccsssscccccc" />
  <path
     style="color:#ffffff;display:inline;overflow:visible;visibility:visible;fill:#5f368e;fill-opacity:1;stroke:#ffffff;stroke-width:0.51714313;stroke-linecap:butt;stroke-linejoin:miter;stroke-miterlimit:4;stroke-dasharray:none;stroke-dashoffset:0;stroke-opacity:0.97093021;marker:none;enable-background:accumulate"
     d="m 152.57317,154.77964 c 6.45938,0.98417 5.85555,-15.28304 7.19454,-36.69784 0.89089,-27.152071 5.7865,-50.405852 -1.63731,-75.604563 -1.95899,-6.495217 -5.39558,-18.175435 -6.03415,-18.595245 -0.51171,-0.336404 -0.91852,0.410138 -0.57106,1.047991 0.33231,0.61001 1.68564,15.447993 2.26292,24.810635 2.32193,21.780686 -0.34772,39.645243 -4.31032,59.760042 -1.37674,7.02336 -4.41685,24.30403 -4.67701,28.18793 -0.29434,4.78267 -1.96623,19.0131 3.91245,20.05704 z"
     id="path3608"
     inkscape:connector-curvature="0"
     sodipodi:nodetypes="cccscccccc" />
  <path
     style="color:#ffffff;display:inline;overflow:visible;visibility:visible;fill:#5f368e;fill-opacity:1;stroke:#ffffff;stroke-width:0.43114585;stroke-linecap:butt;stroke-linejoin:miter;stroke-miterlimit:4;stroke-dasharray:none;stroke-dashoffset:0;stroke-opacity:0.97093021;marker:none;enable-background:accumulate"
     d="m 166.09746,36.608168 c 2.81371,0.2809 5.55956,-2.297584 5.63913,-5.295395 0.0455,-1.715137 -0.76068,-3.006346 -2.58581,-4.141473 -2.2585,-1.404656 -4.79341,-0.593577 -6.46837,2.069635 -1.24832,1.984874 -1.25398,3.634741 -0.0184,5.373173 1.13486,1.59673 1.48384,1.799405 3.43348,1.99406 z"
     id="path3610"
     inkscape:connector-curvature="0" />
  <path
     style="color:#ffffff;display:inline;overflow:visible;visibility:visible;fill:#5f368e;fill-opacity:1;stroke:#ffffff;stroke-width:0.38684943;stroke-linecap:butt;stroke-linejoin:miter;stroke-miterlimit:4;stroke-dasharray:none;stroke-dashoffset:0;stroke-opacity:0.97093021;marker:none;enable-background:accumulate"
     d="m 163.65974,19.960628 c 3.01652,0.31335 5.03422,-4.648767 3.68731,-7.343649 -0.8946,-1.789908 -2.90352,-2.077057 -4.80839,-2.399735 -3.34576,-0.5667578 -6.32531,3.753002 -4.22525,6.624666 0.94113,1.286919 3.80725,2.95884 5.34633,3.118718 z"
     id="path3612"
     inkscape:connector-curvature="0"
     sodipodi:nodetypes="sssss" />
  <path
     style="color:#ffffff;display:inline;overflow:visible;visibility:visible;fill:#5f368e;fill-opacity:1;stroke:#ffffff;stroke-width:0.43114585;stroke-linecap:butt;stroke-linejoin:miter;stroke-miterlimit:4;stroke-dasharray:none;stroke-dashoffset:0;stroke-opacity:0.97093021;marker:none;enable-background:accumulate"
     d="m 146.09454,12.41727 c 2.13704,0.987294 2.9885,1.131153 4.41315,0.745647 3.91622,-1.059711 4.83292,-6.7128579 0.54496,-9.3797165 -1.65696,-1.0305334 -2.74675,-1.8575108 -4.52581,-1.4475787 -4.68299,1.0790602 -5.25801,7.8522112 -0.4323,10.0816482 z"
     id="path3614"
     inkscape:connector-curvature="0"
     sodipodi:nodetypes="sssss" />
  <path
     style="color:#ffffff;display:inline;overflow:visible;visibility:visible;fill:#5f368e;fill-opacity:1;stroke:#ffffff;stroke-width:0.43114585;stroke-linecap:butt;stroke-linejoin:miter;stroke-miterlimit:4;stroke-dasharray:none;stroke-dashoffset:0;stroke-opacity:0.97093021;marker:none;enable-background:accumulate"
     d="m 137.76611,25.184707 c 1.9554,0.194849 4.36506,-1.040643 5.47659,-2.808002 1.32553,-2.10763 0.58403,-4.398222 -2.04177,-6.307214 -1.79702,-1.306449 -2.22639,-1.445219 -3.787,-1.22367 -1.30315,0.184975 -2.09038,0.633884 -3.0319,1.728923 -3.06891,3.569299 -1.26999,8.146186 3.38408,8.609963 z"
     id="path3616"
     inkscape:connector-curvature="0" />
  <path
     style="color:#ffffff;display:inline;overflow:visible;visibility:visible;fill:#5f368e;fill-opacity:1;stroke:#ffffff;stroke-width:0.43114585;stroke-linecap:butt;stroke-linejoin:miter;stroke-miterlimit:4;stroke-dasharray:none;stroke-dashoffset:0;stroke-opacity:0.97093021;marker:none;enable-background:accumulate"
     d="m 142.15493,39.923926 c 0.73851,-0.08022 1.97279,-0.696962 2.74286,-1.370563 3.37377,-2.951222 2.15993,-7.92462 -2.19197,-8.981 -2.76783,-0.671856 -4.99643,1.390836 -5.4964,5.087211 -0.39759,2.939355 2.07904,5.575645 4.94551,5.264352 l 0,0 z"
     id="path3618"
     inkscape:connector-curvature="0" />
</svg>
