<?xml version="1.0" encoding="UTF-8" standalone="no"?>
<!-- Created with Inkscape (http://www.inkscape.org/) -->

<svg
   xmlns:dc="http://purl.org/dc/elements/1.1/"
   xmlns:cc="http://creativecommons.org/ns#"
   xmlns:rdf="http://www.w3.org/1999/02/22-rdf-syntax-ns#"
   xmlns:svg="http://www.w3.org/2000/svg"
   xmlns="http://www.w3.org/2000/svg"
   xmlns:sodipodi="http://sodipodi.sourceforge.net/DTD/sodipodi-0.dtd"
   xmlns:inkscape="http://www.inkscape.org/namespaces/inkscape"
   id="svg2816"
   version="1.1"
   inkscape:version="0.91 r13725"
   width="316.32434"
   height="287.49887"
   sodipodi:docname="Hibiscus-flip-p.svg">
  <metadata
     id="metadata2822">
    <rdf:RDF>
      <cc:Work
         rdf:about="">
        <dc:format>image/svg+xml</dc:format>
        <dc:type
           rdf:resource="http://purl.org/dc/dcmitype/StillImage" />
        <dc:title />
      </cc:Work>
    </rdf:RDF>
  </metadata>
  <defs
     id="defs2820" />
  <sodipodi:namedview
     pagecolor="#FFFFFF"
     bordercolor="#666666"
     borderopacity="1"
     objecttolerance="10"
     gridtolerance="10"
     guidetolerance="10"
     inkscape:pageopacity="0"
     inkscape:pageshadow="2"
     inkscape:window-width="1920"
     inkscape:window-height="959"
     id="namedview2818"
     showgrid="false"
     inkscape:zoom="1.4346505"
     inkscape:cx="64.573037"
     inkscape:cy="160.64161"
     inkscape:window-x="0"
     inkscape:window-y="1"
     inkscape:window-maximized="1"
     inkscape:current-layer="svg2816"
     fit-margin-top="3"
     fit-margin-left="3"
     fit-margin-right="3"
     fit-margin-bottom="3" />
  <path
     style="color:#ffffff;display:inline;overflow:visible;visibility:visible;fill:#5f368e;fill-opacity:1;stroke:#ffffff;stroke-width:0.44526136;stroke-linecap:butt;stroke-linejoin:miter;stroke-miterlimit:4;stroke-dasharray:none;stroke-dashoffset:0;stroke-opacity:0.97093021;marker:none;enable-background:accumulate"
     d="m 274.84911,222.22206 c 1.11888,-8.65909 -6.84346,-19.15203 -12.73697,-24.97644 -8.57686,-8.34679 -18.69709,-14.38616 -35.42878,-21.1426 -4.80808,-2.18778 -22.004,-10.45249 -23.34021,-15.8286 17.71801,-8.51521 28.32273,5.03801 42.81853,7.5809 27.30151,4.93451 36.03489,-2.4111 41.35249,-17.38287 7.12705,-14.24195 19.43448,-4.25208 18.8772,-24.28993 -0.78633,-5.12778 -11.5201,-19.07505 -13.3246,-21.23016 -9.59664,-8.266575 -9.08184,-6.211228 -12.12821,-17.378466 C 276.85689,75.00403 256.60094,71.225391 246.77673,71.372337 234.77981,68.59364 194.9577,101.59791 194.78957,97.273063 c 2.84748,-23.191661 27.18157,-36.758004 32.54636,-57.753105 1.34743,-6.717037 0.0176,-11.663847 -4.19178,-15.592915 C 212.10906,16.242449 200.36341,21.986552 192.88119,15.62882 182.30521,6.4840562 176.00329,5.56353 163.7824,4.9004892 147.42812,4.6060523 139.23227,13.549384 128.48513,25.466011 c -8.04423,8.636235 -14.93425,21.403357 -16.03179,31.268406 2.55484,15.563815 16.34938,23.372689 22.9529,34.187833 3.83681,6.317678 6.98976,10.3974 9.84334,12.73664 3.51634,0.90924 -0.90601,-21.737757 -0.5125,-26.371275 7.43819,-31.421183 8.37049,-12.157632 16.14503,7.686598 0.17261,0.173984 1.73667,-1.984586 3.47566,-4.796829 5.358,-8.664748 10.78364,-14.483811 16.22656,-17.403116 7.38349,-3.554377 2.71377,5.533953 1.29062,10.250717 -3.16124,10.441464 -7.67916,30.285875 -8.35137,36.682455 -1.06816,10.16429 -0.66797,23.14061 0.8633,27.993 l 0.61472,1.94793 2.07715,-2.53005 c 1.81254,-2.20774 4.88902,-5.30758 9.72628,-9.80012 9.37512,-8.70701 23.30385,-14.29405 36.48348,-14.63414 3.85844,-0.0996 14.44751,0.67312 15.1584,1.10609 -5.49198,10.15319 -22.32426,11.29319 -26.0309,21.50747 8.29563,2.26614 17.24126,2.72279 24.25223,6.31888 4.09691,2.22574 9.57871,7.61717 9.37435,9.21981 -21.67344,-3.38906 -44.44035,0.0685 -62.23264,7.59814 -1.75444,0.6698 -1.9597,0.88307 -1.73564,1.80342 0.38907,1.59817 1.76378,2.91197 5.08863,4.86314 1.66948,0.97973 5.98269,3.95125 9.58489,6.60339 3.60222,2.65215 8.25285,5.95411 10.33475,7.3377 15.39803,11.24197 26.10389,23.43302 30.51311,40.94457 -6.06816,1.41005 -11.91807,-2.89804 -15.84083,-5.30324 -6.21675,-3.88021 -9.9092,-5.31203 -17.58174,-14.42772 -6.64907,-7.89967 -7.462,-8.73286 -7.99325,-8.19244 -0.17895,0.18205 0.37472,3.20672 1.23039,6.72149 2.18463,8.97369 2.2787,13.34919 0.34831,16.19964 -9.98036,-0.10324 -13.23962,-13.91921 -15.15184,-20.09345 l -0.5238,-1.70719 -0.87897,3.1972 c -1.28653,3.93115 -1.65611,15.27096 -5.46578,11.94765 -9.6657,-12.78621 -7.26571,-21.13462 -11.40612,-35.66876 -6.78958,19.70908 -13.72441,26.44149 -12.84058,46.49468 2.82039,21.66366 2.51604,47.23753 21.76261,53.25471 10.21386,2.55944 25.85302,-18.23442 35.36599,-17.79897 7.24338,-0.24365 19.16559,3.5218 26.20389,4.05604 26.14195,0.58142 30.07536,-7.0135 40.02514,-36.44425 z"
     id="path3602"
     inkscape:connector-curvature="0"
     sodipodi:nodetypes="cccccccccccccccccccccsccsscssscccccssscccsssccccccccccc" />
  <path
     style="color:#ffffff;display:inline;overflow:visible;visibility:visible;fill:#5f368e;fill-opacity:1;stroke:#ffffff;stroke-width:0.44526136;stroke-linecap:butt;stroke-linejoin:miter;stroke-miterlimit:4;stroke-dasharray:none;stroke-dashoffset:0;stroke-opacity:0.97093021;marker:none;enable-background:accumulate"
     d="m 122.87661,272.09586 c 8.39484,-3.97692 12.76034,-10.77839 13.22135,-20.59894 0.20715,-4.41278 -0.2385,-10.00336 -1.4709,-18.45179 -1.57528,-10.79907 -1.20381,-16.0574 1.82279,-25.80184 1.1912,-3.83518 2.1333,-6.32491 5.99857,-15.85278 0.8134,-2.00502 1.06528,-3.41738 0.58868,-3.30085 -0.0701,0.0171 -2.77115,2.25091 -6.00233,4.96391 -7.33192,6.15611 -9.43179,8.45122 -13.24858,14.4804 -2.96806,4.68848 -6.15399,8.50005 -8.61301,10.30437 -10.12612,-2.64722 -0.29019,-20.09585 1.94636,-23.76956 2.20841,-3.60123 2.69169,-5.34738 1.39201,-5.02962 -0.32535,0.0796 -2.15167,0.82882 -4.05846,1.66507 -3.54109,1.55296 -9.25961,5.2318 -17.567535,11.30156 -6.151899,4.49457 -9.886409,6.81513 -10.782906,6.70032 -2.082104,-0.26666 0.335459,-10.0037 3.667591,-14.77174 11.26324,-13.03501 23.5468,-18.19345 37.64261,-25.28699 0.35374,-0.41321 -0.69567,-0.52015 -5.03081,-0.51262 -9.2945,0.0161 -19.56913,1.34215 -29.795365,3.84532 -20.05594,6.43799 -41.790149,11.86799 -52.858919,30.04073 -4.672271,10.00497 -7.256546,19.70107 -4.630576,28.86987 3.121876,8.05422 15.134346,5.02996 15.566731,12.50589 0.404766,5.31751 0.05788,10.01392 3.572746,21.04966 22.581838,12.18381 21.296428,2.31418 32.496978,3.99333 10.963281,4.01926 19.854515,7.28873 29.892905,5.25219 2.87308,-0.61035 5.68558,-1.32854 6.25,-1.59587 l 0,0 z"
     id="path3604"
     inkscape:connector-curvature="0"
     sodipodi:nodetypes="csssscsscccsssccscccccccccc" />
  <path
     style="color:#ffffff;display:inline;overflow:visible;visibility:visible;fill:#5f368e;fill-opacity:1;stroke:#ffffff;stroke-width:0.45915315;stroke-linecap:butt;stroke-linejoin:miter;stroke-miterlimit:4;stroke-dasharray:none;stroke-dashoffset:0;stroke-opacity:0.97093021;marker:none;enable-background:accumulate"
     d="m 82.70458,155.51958 c 17.48606,-7.4417 30.28984,1.25265 45.97721,-2.48398 0.33772,-0.59229 -1.71529,-1.99842 -5.98175,-4.0969 -2.63895,-1.298 -5.69593,-2.3613 -6.27876,-2.70752 -6.6694,-5.09935 -66.866522,-13.91659 -58.30893,-21.34078 12.730802,-7.21587 36.348492,-2.91767 44.78128,-1.48565 5.71341,0.97936 10.46727,1.64166 10.56416,1.47174 0.42145,-0.73915 -7.16287,-8.75653 -11.92507,-12.60595 -6.418623,-4.88474 -9.625336,-6.04873 -16.470285,-9.46005 C 79.258035,99.910948 64.163732,96.661339 54.061382,96.136339 45.816299,95.707874 42.435586,96.07505 35.149606,98.190317 18.596588,102.996 7.8634566,112.70106 3.8899694,126.45571 c -1.8999653,6.57697 -2.9004556,8.32039 3.8272765,14.2338 l 5.5904181,4.91376 c 0,0 2.278038,0.12746 1.613344,7.11908 -0.38704,8.92729 -3.038306,14.69342 0.769861,23.28511 4.807307,8.04058 11.170858,18.00069 15.964183,10.48032 11.653135,-14.49056 31.221388,-27.8151 51.049499,-30.96819 z"
     id="path3606"
     inkscape:connector-curvature="0"
     sodipodi:nodetypes="ccscccsccsssscccccc" />
  <path
     style="color:#ffffff;display:inline;overflow:visible;visibility:visible;fill:#5f368e;fill-opacity:1;stroke:#ffffff;stroke-width:0.51987249;stroke-linecap:butt;stroke-linejoin:miter;stroke-miterlimit:4;stroke-dasharray:none;stroke-dashoffset:0;stroke-opacity:0.97093021;marker:none;enable-background:accumulate"
     d="m 162.28991,155.16701 c 5.34011,-4.09688 -6.51018,-14.77797 -20.57439,-30.41481 C 123.30258,105.5219 110.50791,86.000692 87.480833,74.246702 81.512673,71.250544 70.842324,65.798935 70.088071,65.98335 c -0.604397,0.147773 -0.373326,0.958835 0.324397,1.138544 0.667277,0.171853 12.054087,9.321847 19.039925,15.299726 16.956107,13.183622 27.571097,27.3747 38.834547,44.05979 3.93774,5.82076 13.87631,19.88601 16.41461,22.73478 3.14442,3.48877 11.92732,14.45724 16.89138,10.83005 z"
     id="path3608"
     inkscape:connector-curvature="0"
     sodipodi:nodetypes="cccscccccc" />
  <path
     style="color:#ffffff;display:inline;overflow:visible;visibility:visible;fill:#5f368e;fill-opacity:1;stroke:#ffffff;stroke-width:0.44526136;stroke-linecap:butt;stroke-linejoin:miter;stroke-miterlimit:4;stroke-dasharray:none;stroke-dashoffset:0;stroke-opacity:0.97093021;marker:none;enable-background:accumulate"
     d="m 86.123899,65.595091 c 2.231921,-1.873274 2.295643,-5.762272 0.130879,-7.986792 -1.238525,-1.272715 -2.775417,-1.610684 -4.92948,-1.084016 -2.665531,0.65172 -3.887551,3.108188 -3.118252,6.268198 0.573354,2.355132 1.792176,3.551273 3.969365,3.895519 1.999733,0.316175 2.400952,0.205094 3.947488,-1.092909 z"
     id="path3610"
     inkscape:connector-curvature="0" />
  <path
     style="color:#ffffff;display:inline;overflow:visible;visibility:visible;fill:#5f368e;fill-opacity:1;stroke:#ffffff;stroke-width:0.44526136;stroke-linecap:butt;stroke-linejoin:miter;stroke-miterlimit:4;stroke-dasharray:none;stroke-dashoffset:0;stroke-opacity:0.97093021;marker:none;enable-background:accumulate"
     d="m 74.336144,52.261206 c 2.720281,-2.283159 0.351603,-7.892643 -2.932129,-8.889968 -2.18101,-0.662418 -4.056184,0.796163 -5.875068,2.139429 -3.194698,2.359313 -2.132702,8.268633 1.910027,8.773694 1.811722,0.226342 5.509227,-0.85824 6.89717,-2.023155 z"
     id="path3612"
     inkscape:connector-curvature="0"
     sodipodi:nodetypes="sssss" />
  <path
     style="color:#ffffff;display:inline;overflow:visible;visibility:visible;fill:#5f368e;fill-opacity:1;stroke:#ffffff;stroke-width:0.44526136;stroke-linecap:butt;stroke-linejoin:miter;stroke-miterlimit:4;stroke-dasharray:none;stroke-dashoffset:0;stroke-opacity:0.97093021;marker:none;enable-background:accumulate"
     d="m 53.762055,59.393202 c 2.268817,-0.863619 2.987845,-1.387972 3.726767,-2.717728 2.031216,-3.655349 -1.499596,-8.415971 -6.560333,-7.178625 -1.955581,0.478138 -3.352359,0.684829 -4.328078,2.293746 -2.568369,4.23513 2.038357,9.552775 7.161644,7.602607 z"
     id="path3614"
     inkscape:connector-curvature="0"
     sodipodi:nodetypes="sssss" />
  <path
     style="color:#ffffff;display:inline;overflow:visible;visibility:visible;fill:#5f368e;fill-opacity:1;stroke:#ffffff;stroke-width:0.44526136;stroke-linecap:butt;stroke-linejoin:miter;stroke-miterlimit:4;stroke-dasharray:none;stroke-dashoffset:0;stroke-opacity:0.97093021;marker:none;enable-background:accumulate"
     d="m 56.538267,74.771617 c 1.550815,-1.302103 2.368174,-3.972773 1.857652,-6.069816 -0.608813,-2.500789 -2.839929,-3.608503 -6.143452,-3.05012 -2.260823,0.382144 -2.6725,0.59872 -3.630732,1.910344 -0.800166,1.095221 -1.033641,2.000439 -0.899166,3.486304 0.438316,4.843212 5.124576,6.822431 8.815698,3.723288 z"
     id="path3616"
     inkscape:connector-curvature="0" />
  <path
     style="color:#ffffff;display:inline;overflow:visible;visibility:visible;fill:#5f368e;fill-opacity:1;stroke:#ffffff;stroke-width:0.44526136;stroke-linecap:butt;stroke-linejoin:miter;stroke-miterlimit:4;stroke-dasharray:none;stroke-dashoffset:0;stroke-opacity:0.97093021;marker:none;enable-background:accumulate"
     d="m 72.375463,83.204839 c 0.471701,-0.602899 0.902309,-1.959238 0.956889,-3.014114 0.239078,-4.621635 -4.320264,-7.319049 -8.233301,-4.871003 -2.488698,1.556966 -2.562709,4.691655 -0.182537,7.731077 1.892707,2.41695 5.628016,2.494085 7.458949,0.15404 l 0,0 z"
     id="path3618"
     inkscape:connector-curvature="0" />
</svg>
