<?xml version="1.0" encoding="UTF-8" standalone="no"?>
<!-- Created with Inkscape (http://www.inkscape.org/) -->

<svg
   xmlns:dc="http://purl.org/dc/elements/1.1/"
   xmlns:cc="http://creativecommons.org/ns#"
   xmlns:rdf="http://www.w3.org/1999/02/22-rdf-syntax-ns#"
   xmlns:svg="http://www.w3.org/2000/svg"
   xmlns="http://www.w3.org/2000/svg"
   xmlns:sodipodi="http://sodipodi.sourceforge.net/DTD/sodipodi-0.dtd"
   xmlns:inkscape="http://www.inkscape.org/namespaces/inkscape"
   id="svg2816"
   version="1.1"
   inkscape:version="0.91 r13725"
   width="705"
   height="658"
   sodipodi:docname="Hibiscus-2.svg">
  <metadata
     id="metadata2822">
    <rdf:RDF>
      <cc:Work
         rdf:about="">
        <dc:format>image/svg+xml</dc:format>
        <dc:type
           rdf:resource="http://purl.org/dc/dcmitype/StillImage" />
        <dc:title />
      </cc:Work>
    </rdf:RDF>
  </metadata>
  <defs
     id="defs2820">
    <inkscape:perspective
       sodipodi:type="inkscape:persp3d"
       inkscape:vp_x="0 : 0.5 : 1"
       inkscape:vp_y="0 : 1000 : 0"
       inkscape:vp_z="1 : 0.5 : 1"
       inkscape:persp3d-origin="0.5 : 0.33333333 : 1"
       id="perspective2824" />
  </defs>
  <sodipodi:namedview
     pagecolor="#FFFFFF"
     bordercolor="#666666"
     borderopacity="1"
     objecttolerance="10"
     gridtolerance="10"
     guidetolerance="10"
     inkscape:pageopacity="0"
     inkscape:pageshadow="2"
     inkscape:window-width="1920"
     inkscape:window-height="957"
     id="namedview2818"
     showgrid="false"
     inkscape:zoom="0.71732523"
     inkscape:cx="45.459831"
     inkscape:cy="325.15825"
     inkscape:window-x="0"
     inkscape:window-y="1"
     inkscape:window-maximized="1"
     inkscape:current-layer="svg2816" />
  <path
     style="color:#FFFFFF;display:inline;overflow:visible;visibility:visible;fill:#FFFFFF;fill-opacity:1;stroke:#FFFFFF;stroke-width:0.98575479;stroke-linecap:butt;stroke-linejoin:miter;stroke-miterlimit:4;stroke-dasharray:none;stroke-dashoffset:0;stroke-opacity:0.97093021;marker:none;enable-background:accumulate"
     d="m 236.87096,647.8069 c -15.13483,-3.68053 -30.85187,-19.13524 -43.91662,-43.18363 -6.40487,-19.48008 -35.30823,-22.49488 -43.00842,-37.0467 -6.94793,-18.01611 4.69575,-44.74261 14.33216,-60.3521 14.09178,-22.43832 32.71606,-40.72996 65.19972,-64.03523 9.20556,-7.22607 41.89817,-34.01571 41.95717,-46.26805 -42.61228,-8.98748 -88.47502,52.09432 -118.35316,65.17233 -16.76239,6.8165 -38.00341,9.50537 -49.30904,6.24195 -12.257374,-3.53814 -17.229931,-7.64704 -28.598037,-23.63105 -22.81055,-26.85469 -51.054651,-21.02382 -60.358046,-64.36746 -0.99477,-11.42999 8.279607,-21.64124 11.035255,-27.21932 16.329508,-22.80167 39.69837,-46.03817 40.403985,-71.63102 0.148854,-22.85195 1.375199,-24.63059 18.772014,-27.2263 21.386139,-4.49771 26.244039,-21.5418 46.289789,-25.52766 24.37419,-12.27198 127.41549,37.7184 125.51053,28.33824 -18.28734,-48.33102 -77.79243,-64.69531 -100.34844,-106.98471 -6.42204,-13.72359 -6.15175,-25.05028 0.85198,-35.70299 5.88073,-8.94463 20.32314,-16.587302 39.12322,-20.703329 15.31194,-3.352348 14.14652,-2.652536 21.6866,-13.022405 17.97782,-25.202903 31.06405,-30.491039 57.02942,-38.335238 16.09379,-4.931532 29.0994,-6.167409 43.02469,0.987397 20.71627,10.644005 35.43308,18.936953 43.7541,24.655507 21.84698,14.329136 43.37411,38.139678 50.90822,58.757988 4.13825,21.85069 -3.17363,32.51568 -14.03565,47.86076 -7.84595,11.07716 -11.59122,19.151 -17.46418,37.64826 -4.94956,15.58891 -9.59974,26.01034 -14.51763,32.53511 -7.09448,3.80064 -9.44357,-47.17902 -12.7196,-56.92734 -6.0354,-16.80083 -11.34477,-24.97893 -26.41272,-40.68386 -15.59414,2.06593 -1.81219,52.67169 -4.32021,65.67938 -0.28048,0.46449 -4.77951,-3.35156 -9.99786,-8.48012 -16.07816,-15.80148 -30.81037,-25.4535 -44.05978,-28.86638 -10.67284,-2.74919 -11.2837,-2.04761 -6.24482,7.1721 2.29751,4.2038 6.2751,11.19199 8.83909,15.52931 12.27964,20.77266 32.40907,61.03467 37.20933,74.42449 7.62771,21.27665 13.56787,49.36623 12.81435,60.59585 l -0.3025,4.50803 -5.7985,-4.34463 c -5.05985,-3.79117 -13.30871,-8.83503 -26.07872,-15.94613 -24.74964,-13.78207 -57.6683,-18.46894 -86.22377,-12.27631 -8.35983,1.81295 -30.75426,9.03546 -32.05793,10.33913 13.96089,12.71503 35.20354,13.83853 51.96531,22.17593 7.463,3.83219 15.34556,9.14946 15.3557,10.35837 -16.67355,9.22644 -35.69511,14.90667 -48.90554,26.31565 -7.65446,6.93411 -16.63133,21.39709 -15.35125,24.73293 44.88886,-18.66637 95.7209,-23.19734 137.97647,-16.36641 4.12859,0.51742 4.68234,0.86781 4.68234,2.96285 0,3.63803 -2.27125,7.18283 -8.40728,13.12143 -3.08103,2.98191 -10.81025,11.63191 -17.17603,19.22222 -6.36578,7.59031 -14.64831,17.12749 -18.40563,21.19373 -27.26094,32.24176 -43.92163,64.0578 -44.23612,103.99713 13.80453,-0.15808 24.14185,-12.48696 31.32725,-19.7151 11.35144,-11.60221 18.55117,-16.6181 30.29285,-40.23335 10.17536,-20.46505 11.48896,-22.68218 12.91609,-21.80017 0.48073,0.29711 0.87406,7.08639 0.87406,15.0873 0,20.42736 2.09095,29.87747 7.74142,34.98756 21.43469,-5.46454 21.21033,-36.85992 22.09119,-51.12965 l 0.23291,-3.94302 3.56839,6.40741 c 4.83067,7.77019 11.57039,31.93938 18.03108,22.79809 14.10912,-32.54829 4.56569,-49.22398 5.86206,-82.62523 24.94966,38.77795 48.12048,75.42425 56.7288,118.9724 3.57119,18.74178 3.1605,41.60171 -0.97477,54.25751 -6.10268,18.67698 -17.06618,35.87639 -26.77604,42.00596 -20.64998,10.86423 -40.27089,-1.5358 -60.52514,4.39691 -15.72351,3.28147 -27.04791,16.20256 -41.9221,21.04759 -13.98712,4.17517 -40.99416,6.66291 -51.58201,4.08814 l 0,0 z"
     id="path3602"
     inkscape:connector-curvature="0"
     sodipodi:nodetypes="cccccccsccccccccssccccccsccccsssssscsssccccccssscccssscccccccscccccc" />
  <path
     style="color:#FFFFFF;fill:#FFFFFF;stroke:#FFFFFF;stroke-width:0.98575479;stroke-linecap:butt;stroke-linejoin:miter;stroke-miterlimit:4;stroke-opacity:0.97093022;stroke-dasharray:none;stroke-dashoffset:0;marker:none;visibility:visible;display:inline;overflow:visible;enable-background:accumulate;fill-opacity:1"
     d="m 502.53188,598.25929 c -20.15962,-4.1345 -33.12416,-16.45411 -39.26441,-37.31119 -2.75907,-9.37195 -4.72994,-21.61729 -6.50489,-40.41594 -2.26881,-24.02908 -5.82492,-35.13135 -17.44928,-54.47721 -4.57507,-7.61406 -7.90854,-12.4683 -21.22516,-30.90831 -2.8023,-3.88045 -4.08494,-6.78256 -2.99768,-6.78256 0.15991,0 7.14645,3.38032 15.52564,7.51182 19.01326,9.3748 24.73755,13.20274 36.11582,24.15132 8.84814,8.51399 17.70572,15.02949 23.94603,17.6143 4.92183,2.03869 6.30257,-0.0789 6.30257,-9.66569 0,-6.841 -0.41261,-8.63261 -3.4715,-15.07377 -3.91063,-8.23467 -9.26809,-15.1941 -19.48123,-25.30646 -6.64264,-6.57708 -8.59848,-10.07482 -5.63357,-10.07482 0.74222,0 5.06722,0.65045 9.6111,1.44544 8.43839,1.47637 22.67932,6.37634 43.74878,15.05293 15.60163,6.42488 24.85883,9.44883 26.72891,8.73122 4.34322,-1.66666 -5.96591,-21.31652 -15.63966,-29.81019 -10.24169,-8.99231 -22.76689,-15.76301 -39.67614,-21.44755 -4.33732,-1.45811 -8.5763,-3.02396 -9.41994,-3.47965 -0.84365,-0.45569 -11.26801,-2.74203 -23.16524,-5.08074 -11.89723,-2.33872 -21.81616,-4.38484 -22.04207,-4.54693 -0.97825,-0.70195 1.2252,-1.48294 10.56317,-3.74402 20.02056,-4.84772 42.83801,-7.39609 66.16833,-7.38999 43.09264,0.0112 81.46124,6.65202 104.07236,18.01266 7.83562,3.9369 18.86613,12.05764 25.4852,18.76239 11.22455,11.36983 17.31778,22.5423 22.89168,41.97386 2.13109,7.42938 2.51902,10.52056 2.21123,17.62001 -0.4148,9.56767 -2.23179,14.39967 -8.16467,21.71265 -5.37846,6.62958 -6.07746,10.67505 -3.86774,22.38447 1.04197,5.52147 1.86025,14.19363 1.86025,19.7151 0,8.96413 -0.26672,10.3936 -2.94283,15.77208 -4.28406,8.61016 -15.2722,19.4046 -23.80684,23.38718 -6.64396,3.10031 -6.97935,3.15029 -18.59505,2.77096 -26.43427,-0.86322 -30.11832,-0.65279 -35.98005,2.05522 -2.98191,1.37759 -8.94706,5.44789 -13.25589,9.04511 -14.68217,12.25741 -28.36327,17.33385 -48.35379,17.9419 -6.50598,0.1979 -12.93803,0.13238 -14.29344,-0.1456 l 0,0 z"
     id="path3604" />
  <path
     style="color:#FFFFFF;display:inline;overflow:visible;visibility:visible;fill:#FFFFFF;fill-opacity:1;stroke:#FFFFFF;stroke-width:0.98575479;stroke-linecap:butt;stroke-linejoin:miter;stroke-miterlimit:4;stroke-dasharray:none;stroke-dashoffset:0;stroke-opacity:0.97093021;marker:none;enable-background:accumulate"
     d="m 526.04988,319.04454 c -41.32143,-5.8474 -64.60712,18.44366 -100.22919,19.13637 -1.01914,-1.01915 2.70868,-4.93838 10.86151,-11.41921 5.04283,-4.00864 11.10151,-7.76273 12.18584,-8.76839 11.84821,-13.80562 137.12763,-63.24351 115.04094,-73.74619 -30.97038,-7.88939 -79.70897,13.20171 -97.16186,20.52491 -11.82022,4.98017 -21.73053,8.81563 -22.02291,8.52325 -1.27185,-1.27185 11.10821,-21.45316 19.46558,-31.73173 11.41395,-13.24033 17.74542,-17.27649 30.80359,-27.7642 11.06976,-8.90709 41.97135,-23.40194 63.46647,-29.76989 17.54333,-5.19723 25.00417,-6.23155 41.73597,-5.786 38.013,1.01225 65.90858,14.97982 81.24428,40.67976 7.33293,12.28869 10.34661,15.28517 -1.22592,30.76603 l -9.61623,12.86387 c 0,0 -4.84258,1.45427 0.0347,15.22966 7.07191,19.97392 4.36958,10.82706 7.07191,19.97392 4.55193,15.4074 4.48156,19.18156 2.74707,27.47157 -6.38875,18.76928 -15.18257,42.23402 -29.2109,29.55946 -32.23533,-23.15202 -80.93996,-39.79015 -125.19085,-35.74319 z"
     id="path3606"
     inkscape:connector-curvature="0"
     sodipodi:nodetypes="ccscccsccsssscssccc" />
  <path
     style="color:#FFFFFF;display:inline;overflow:visible;visibility:visible;fill:#FFFFFF;stroke:#FFFFFF;stroke-width:1.1509347;stroke-linecap:butt;stroke-linejoin:miter;stroke-miterlimit:4;stroke-dasharray:none;stroke-dashoffset:0;stroke-opacity:0.97093022;marker:none;enable-background:accumulate;fill-opacity:1"
     d="m 365.0193,364.04952 c -13.64532,-5.9969 -10.60314,-32.63988 11.48229,-73.62322 29.56509,-50.98828 53.24953,-99.61727 96.66824,-136.96664 11.27962,-9.57226 33.26263,-25.75867 34.98329,-25.75867 1.37879,0 1.30639,1.86394 -0.10159,2.61654 -1.34662,0.71975 -21.06752,26.35985 -32.97538,42.87285 -29.59788,37.23179 -45.01458,73.29711 -60.52018,115.06137 -5.42731,14.57428 -19.45353,50.01394 -23.42555,57.46781 -4.94156,9.14732 -13.52171,23.51527 -26.11112,18.32996 z"
     id="path3608"
     inkscape:connector-curvature="0"
     sodipodi:nodetypes="cccsccccc" />
  <path
     style="color:#FFFFFF;display:inline;overflow:visible;visibility:visible;fill:#FFFFFF;stroke:#FFFFFF;stroke-width:0.98575479;stroke-linecap:butt;stroke-linejoin:miter;stroke-miterlimit:4;stroke-dasharray:none;stroke-dashoffset:0;stroke-opacity:0.97093022;marker:none;enable-background:accumulate;fill-opacity:1"
     d="m 473.42271,135.29046 c -5.78749,-2.85223 -7.96321,-11.17421 -4.46825,-17.0907 1.99956,-3.38499 5.13149,-4.91843 10.04548,-4.91843 6.08081,0 9.99957,4.63573 9.99957,11.82906 0,5.36113 -1.99728,8.57128 -6.50457,10.45455 -4.13992,1.72977 -5.06201,1.70187 -9.07223,-0.27448 z"
     id="path3610"
     inkscape:connector-curvature="0" />
  <path
     style="color:#FFFFFF;display:inline;overflow:visible;visibility:visible;fill:#FFFFFF;stroke:#FFFFFF;stroke-width:0.98575479;stroke-linecap:butt;stroke-linejoin:miter;stroke-miterlimit:4;stroke-dasharray:none;stroke-dashoffset:0;stroke-opacity:0.97093022;marker:none;enable-background:accumulate;fill-opacity:1"
     d="m 491.81379,100.45078 c -7.05385,-3.476334 -4.89415,-16.772487 1.65331,-20.640164 4.34876,-2.568873 9.15075,-0.420179 13.7711,1.510328 8.11522,3.390755 8.92615,16.644682 0.48644,19.853456 -3.78221,1.43799 -12.31185,1.05007 -15.91085,-0.72362 z"
     id="path3612"
     inkscape:connector-curvature="0"
     sodipodi:nodetypes="sssss" />
  <path
     style="color:#FFFFFF;display:inline;overflow:visible;visibility:visible;fill:#FFFFFF;stroke:#FFFFFF;stroke-width:0.98575479;stroke-linecap:butt;stroke-linejoin:miter;stroke-miterlimit:4;stroke-dasharray:none;stroke-dashoffset:0;stroke-opacity:0.97093022;marker:none;enable-background:accumulate;fill-opacity:1"
     d="m 539.85045,104.96612 c -5.33769,-0.66365 -7.16068,-1.4125 -9.44869,-3.8813 -6.28945,-6.786428 -1.18263,-18.86928 10.36229,-18.86928 4.4612,0 7.57697,-0.28965 10.52115,2.654533 7.74992,7.74992 0.61849,21.594677 -11.43475,20.096047 z"
     id="path3614"
     inkscape:connector-curvature="0"
     sodipodi:nodetypes="sssss" />
  <path
     style="color:#FFFFFF;display:inline;overflow:visible;visibility:visible;fill:#FFFFFF;stroke:#FFFFFF;stroke-width:0.98575479;stroke-linecap:butt;stroke-linejoin:miter;stroke-miterlimit:4;stroke-dasharray:none;stroke-dashoffset:0;stroke-opacity:0.97093022;marker:none;enable-background:accumulate;fill-opacity:1"
     d="m 541.93389,139.46467 c -4.02159,-1.98288 -7.18134,-7.29142 -7.18134,-12.06505 0,-5.6927 4.22321,-9.24461 11.62875,-9.78027 5.06809,-0.3666 6.06801,-0.11748 8.81871,2.19709 2.29693,1.93274 3.2741,3.75493 3.76341,7.01793 1.59494,10.63578 -7.45764,17.34981 -17.02953,12.6303 z"
     id="path3616"
     inkscape:connector-curvature="0" />
  <path
     style="color:#FFFFFF;display:inline;overflow:visible;visibility:visible;fill:#FFFFFF;stroke:#FFFFFF;stroke-width:0.98575479;stroke-linecap:butt;stroke-linejoin:miter;stroke-miterlimit:4;stroke-dasharray:none;stroke-dashoffset:0;stroke-opacity:0.97093022;marker:none;enable-background:accumulate;fill-opacity:1"
     d="m 512.25513,165.90256 c -1.33167,-1.0475 -2.96976,-3.73539 -3.6402,-5.9731 -2.93731,-9.80389 5.46557,-17.99425 15.17395,-14.7902 6.17456,2.03779 7.97703,8.73373 4.44544,16.51418 -2.80832,6.187 -10.81041,8.31488 -15.97919,4.24912 l 0,0 z"
     id="path3618"
     inkscape:connector-curvature="0" />
</svg>
